<svg id="ic-jointname" xmlns="http://www.w3.org/2000/svg" width="28" height="28" viewBox="0 0 28 28">
  <path id="Path_1799" data-name="Path 1799" d="M0,0H28V28H0Z" fill="none"/>
  <path id="Path_1800" data-name="Path 1800" d="M10.167,15.208C7.437,15.208,2,16.573,2,19.292v2.042H18.333V19.292C18.333,16.573,12.9,15.208,10.167,15.208ZM4.73,19a11.249,11.249,0,0,1,5.437-1.458A11.249,11.249,0,0,1,15.6,19Zm5.437-5.833A4.083,4.083,0,1,0,6.083,9.083,4.088,4.088,0,0,0,10.167,13.167Zm0-5.833a1.75,1.75,0,1,1-1.75,1.75A1.748,1.748,0,0,1,10.167,7.333Zm8.213,7.945a4.891,4.891,0,0,1,2.287,4.013v2.042h4.667V19.292C25.333,16.935,21.25,15.593,18.38,15.278Zm-1.213-2.112a4.083,4.083,0,0,0,0-8.167,4.02,4.02,0,0,0-1.75.408,6.371,6.371,0,0,1,0,7.35A4.02,4.02,0,0,0,17.167,13.167Z" transform="translate(0.333 0.833)" fill="#6595f6"/>
</svg>
