<svg xmlns="http://www.w3.org/2000/svg" xmlns:xlink="http://www.w3.org/1999/xlink" width="463.024" height="49.397" viewBox="0 0 463.024 49.397">
  <defs>
    <clipPath id="clip-path">
      <rect id="Rectangle_387" data-name="Rectangle 387" width="463.024" height="49.397" transform="translate(0 0)" fill="none"/>
    </clipPath>
    <clipPath id="clip-path-2">
      <path id="Path_1513" data-name="Path 1513" d="M24.557,40.9a8.669,8.669,0,0,0-2.859,1.26,1.1,1.1,0,0,0,.6.68,2.319,2.319,0,0,0,1.283.17,4.46,4.46,0,0,0,.813-.187,5.388,5.388,0,0,0,.809-.359,6.1,6.1,0,0,0,.752-.506,6.646,6.646,0,0,0,.647-.616,1.087,1.087,0,0,0-.763-.5,2.1,2.1,0,0,0-.431-.041,4.289,4.289,0,0,0-.849.1" fill="none"/>
    </clipPath>
    <linearGradient id="linear-gradient" x1="-8.938" y1="1.985" x2="-8.547" y2="1.985" gradientUnits="objectBoundingBox">
      <stop offset="0" stop-color="#ffa400"/>
      <stop offset="0.078" stop-color="#ffa400"/>
      <stop offset="0.543" stop-color="#3dae2b"/>
      <stop offset="1" stop-color="#006d46"/>
    </linearGradient>
    <clipPath id="clip-path-3">
      <path id="Path_1514" data-name="Path 1514" d="M23.93,17.541a2.868,2.868,0,0,0,.431.872,3.832,3.832,0,0,0,.345.454c.032.037.066.075.1.111l.1.115c.069.077.141.151.217.225s.154.144.232.21.15.137.227.2a5,5,0,0,0,.463.333,3.155,3.155,0,0,0,.449.255,3.066,3.066,0,0,0,.377.142c.033.049.077.118.135.208.132.189.3.485.509.858.17.318.363.7.557,1.143-.019-.039-.035-.077-.056-.115A3.679,3.679,0,0,0,27.7,22.1a2.717,2.717,0,0,0-.183-.2c-.068-.063-.137-.122-.207-.179a2.644,2.644,0,0,0-.44-.286,1.232,1.232,0,0,0-1.465.114,3.7,3.7,0,0,0,.578.774,4.011,4.011,0,0,0,.371.33,2.729,2.729,0,0,0,.408.28q.109.062.216.108c.07.033.137.061.2.086a1.575,1.575,0,0,0,.392.089.963.963,0,0,0,.661-.159c-.007-.021-.017-.043-.024-.063a14.214,14.214,0,0,1,.616,1.839c.043.179.088.361.133.547.007.027.011.056.017.083a2.684,2.684,0,0,0-.758-1.056,1.967,1.967,0,0,0-.206-.154,2.043,2.043,0,0,0-.215-.114,1.5,1.5,0,0,0-.409-.119,1.04,1.04,0,0,0-.7.148,2.783,2.783,0,0,0,.173.468,3.114,3.114,0,0,0,.23.458c.044.074.1.146.143.218s.1.142.149.211a2.93,2.93,0,0,0,.355.385,1.489,1.489,0,0,0,1.408.52c.034.243.063.49.1.741.039.471.061.961.061,1.46a2.635,2.635,0,0,0-.472-1.022,1.658,1.658,0,0,0-.753-.6,1.1,1.1,0,0,0-.75-.02,4.247,4.247,0,0,0,.642,2.032,2.319,2.319,0,0,0,.655.692,1.106,1.106,0,0,0,.623.191,14.259,14.259,0,0,1-.329,2.061,2.9,2.9,0,0,0-.222-1.106,1.812,1.812,0,0,0-.626-.789,1.168,1.168,0,0,0-.764-.2,4.378,4.378,0,0,0,.162,2.209,1.7,1.7,0,0,0,1.073,1.216,14.32,14.32,0,0,1-.792,1.893c.02-.081.041-.162.055-.242.017-.11.026-.221.033-.33a2.609,2.609,0,0,0-.036-.639,2.385,2.385,0,0,0-.169-.546,1.6,1.6,0,0,0-.277-.407,1.219,1.219,0,0,0-.728-.386,4.607,4.607,0,0,0-.374,2.273,1.77,1.77,0,0,0,.8,1.512,14.988,14.988,0,0,1-1.262,1.714c.008-.014.017-.027.025-.042.056-.1.109-.207.155-.313s.081-.218.114-.327.061-.219.083-.327a2.918,2.918,0,0,0,.036-.33,2.2,2.2,0,0,0-.04-.6,1.761,1.761,0,0,0-.181-.479,1.276,1.276,0,0,0-.646-.567,4.83,4.83,0,0,0-.932,2.207,1.834,1.834,0,0,0,.467,1.758c-.227.221-.456.437-.692.638-.375.322-.759.617-1.147.889.088-.085.174-.171.256-.261a3.086,3.086,0,0,0,.233-.28c.07-.1.136-.2.2-.3a2.828,2.828,0,0,0,.163-.313A3.44,3.44,0,0,0,24,39.159a1.981,1.981,0,0,0,.033-1.141,1.326,1.326,0,0,0-.52-.73,5.058,5.058,0,0,0-1.469,2,1.878,1.878,0,0,0,.074,1.947l-.069.042a14.637,14.637,0,0,1-5.507,1.875c-.211.023-.4.045-.562.064l-.416.026-.347.022.032.689.362-.029.435-.036.586-.076a15.006,15.006,0,0,0,3.525-.957,15.179,15.179,0,0,0,2.181-1.1,15.343,15.343,0,0,0,2.183-1.62c.071-.063.141-.131.211-.2.292.468.976.677,1.924.334a4.181,4.181,0,0,0,.712-.355,4.832,4.832,0,0,0,.67-.514,5.107,5.107,0,0,0,1.05-1.35,1.035,1.035,0,0,0-.82-.3,2.129,2.129,0,0,0-.551.094,4.1,4.1,0,0,0-.628.241,7.383,7.383,0,0,0-1.461.953A15.589,15.589,0,0,0,27.16,37.07c.384.339,1.049.36,1.829-.156a4.086,4.086,0,0,0,.58-.49,3,3,0,0,0,.264-.3c.084-.106.164-.215.241-.328a4.532,4.532,0,0,0,.4-.72,4.481,4.481,0,0,0,.273-.765.987.987,0,0,0-.828-.1,2.067,2.067,0,0,0-.491.208,3.434,3.434,0,0,0-.532.364,6.808,6.808,0,0,0-1.008,1.033c.061-.116.124-.231.182-.348a15.139,15.139,0,0,0,.738-1.8c.433.209,1.044.07,1.637-.574a3.6,3.6,0,0,0,.426-.585,3.783,3.783,0,0,0,.326-.692c.046-.121.088-.245.126-.371s.061-.255.085-.383a3.947,3.947,0,0,0,.083-.767.941.941,0,0,0-.788.094,2.651,2.651,0,0,0-.82.758,6.223,6.223,0,0,0-.679,1.131,14.951,14.951,0,0,0,.355-2.316.942.942,0,0,0,.663-.11,1.937,1.937,0,0,0,.722-.791,4.22,4.22,0,0,0,.349-2.806.9.9,0,0,0-.713.259,2.668,2.668,0,0,0-.6.879,6.513,6.513,0,0,0-.387,1.291c-.006-.535-.037-1.058-.089-1.56-.047-.319-.089-.629-.143-.933.456.01.887-.357,1.117-1.145a4.08,4.08,0,0,0-.3-2.665.86.86,0,0,0-.6.4,1.783,1.783,0,0,0-.211.409,2.543,2.543,0,0,0-.077.251c-.026.09-.049.185-.069.284a3.942,3.942,0,0,0-.07.609,6.01,6.01,0,0,0-.007.63c0,.089.012.177.021.266-.041-.159-.082-.316-.122-.469a15.013,15.013,0,0,0-1.384-3.322c-.222-.374-.394-.67-.53-.86s-.2-.3-.2-.3l-.016.011a1.885,1.885,0,0,0-.052-.283,3.127,3.127,0,0,0-.183-.507,3.58,3.58,0,0,0-.314-.518c-.062-.086-.127-.173-.2-.258s-.153-.163-.234-.242-.166-.156-.25-.228c-.042-.035-.084-.07-.127-.1s-.089-.061-.132-.092a4.134,4.134,0,0,0-.526-.3,2.42,2.42,0,0,0-.958-.226h-.01" fill="none"/>
    </clipPath>
    <linearGradient id="linear-gradient-2" x1="-0.354" y1="1.542" x2="-0.317" y2="1.542" xlink:href="#linear-gradient"/>
    <clipPath id="clip-path-4">
      <path id="Path_1515" data-name="Path 1515" d="M27.622,20.341a3.715,3.715,0,0,0,.064.581c.019.1.04.192.065.289s.045.194.074.29a4.544,4.544,0,0,0,.2.564,4.282,4.282,0,0,0,.24.533.831.831,0,0,0,.558-.389,1.425,1.425,0,0,0,.177-.4,1.787,1.787,0,0,0,.054-.251,2.438,2.438,0,0,0,.018-.279,3.518,3.518,0,0,0-.048-.613,3.678,3.678,0,0,0-.174-.624,4.123,4.123,0,0,0-.638-1.143c-.42.152-.64.694-.59,1.443" fill="none"/>
    </clipPath>
    <linearGradient id="linear-gradient-3" x1="-6.982" y1="17.084" x2="-6.718" y2="17.084" xlink:href="#linear-gradient"/>
    <clipPath id="clip-path-6">
      <path id="Path_1517" data-name="Path 1517" d="M30.285,11.13l.015-.012.091.087c-.035-.026-.071-.05-.106-.075M27.991,8.525a5.142,5.142,0,0,0,.432.73c.022.033.048.062.071.1-.139-.1-.267-.189-.376-.256L27.7,8.818l-.016.022a2.726,2.726,0,0,0-.216-.346,4.5,4.5,0,0,0-.507-.572,4.994,4.994,0,0,0-.686-.516c-.126-.082-.258-.162-.4-.237s-.286-.134-.435-.2-.3-.118-.448-.168c-.074-.025-.148-.049-.221-.071l-.223-.051a5.864,5.864,0,0,0-.851-.121,3.455,3.455,0,0,0-1.393.209,4.088,4.088,0,0,0,1.025.924,5.74,5.74,0,0,0,.692.417c.063.033.126.063.19.094l.193.1c.13.065.265.125.4.182s.277.109.416.155.269.1.4.143a7.2,7.2,0,0,0,.785.2,4.468,4.468,0,0,0,.725.1,4.28,4.28,0,0,0,.584-.012c.067.047.156.107.274.188.257.165.6.436,1.04.771a6.617,6.617,0,0,0,.543.555q.155.151.316.294c-.045-.027-.088-.055-.133-.08-.114-.062-.229-.124-.348-.174s-.244-.09-.367-.127a3.768,3.768,0,0,0-.731-.145,1.74,1.74,0,0,0-1.868.918,5.206,5.206,0,0,0,1.167.715,5.512,5.512,0,0,0,.662.242,3.941,3.941,0,0,0,.684.154c.116.015.23.025.341.03s.212.009.315,0a2.25,2.25,0,0,0,.563-.088,1.363,1.363,0,0,0,.786-.553,19.414,19.414,0,0,1,1.608,1.855l.462.628c.08.106.155.217.227.332l.081.124a3.939,3.939,0,0,0-1.8-1.26,3.038,3.038,0,0,0-.352-.095,2.83,2.83,0,0,0-.342-.037,2.087,2.087,0,0,0-.6.059,1.474,1.474,0,0,0-.842.559,3.9,3.9,0,0,0,.474.526,4.635,4.635,0,0,0,.542.483c.1.074.2.142.3.211s.2.139.307.2a4.238,4.238,0,0,0,.669.32,2.066,2.066,0,0,0,2.184-.1c.153.263.3.533.459.8a21.583,21.583,0,0,1,1.206,2.768,4.051,4.051,0,0,0-1.516-1.708,2.371,2.371,0,0,0-1.305-.391,1.56,1.56,0,0,0-1,.368,6.051,6.051,0,0,0,1.91,2.339,3.33,3.33,0,0,0,1.227.568A1.518,1.518,0,0,0,35.9,20.21a19.141,19.141,0,0,1,.648,3.2c-.014-.04-.025-.08-.039-.119a4.161,4.161,0,0,0-.935-1.487,2.579,2.579,0,0,0-1.239-.71,1.647,1.647,0,0,0-1.11.14,6.206,6.206,0,0,0,1.37,2.823,2.4,2.4,0,0,0,2.07,1.037,18.748,18.748,0,0,1-.079,2.415c-.008.079-.02.156-.03.233,0-.028-.007-.056-.012-.085-.037-.154-.082-.3-.131-.452a3.529,3.529,0,0,0-.383-.822,3.229,3.229,0,0,0-.509-.631,2.317,2.317,0,0,0-.577-.391,1.724,1.724,0,0,0-1.162-.127,6.553,6.553,0,0,0,.7,3.191,2.657,2.657,0,0,0,1.693,1.558,19.764,19.764,0,0,1-.575,2c0-.041,0-.083-.006-.123-.014-.163-.035-.32-.063-.475a4.091,4.091,0,0,0-.125-.454,3.078,3.078,0,0,0-.365-.764,2.457,2.457,0,0,0-.491-.536,1.8,1.8,0,0,0-1.148-.409,6.878,6.878,0,0,0-.069,3.4,2.936,2.936,0,0,0,1.183,1.911c-.074.146-.145.293-.223.435-.175.324-.36.637-.549.944.007-.071.014-.14.015-.21a4.425,4.425,0,0,0-.017-.491,2.807,2.807,0,0,0-.555-1.521A1.879,1.879,0,0,0,32.117,33a7.161,7.161,0,0,0-.888,3.4,3.263,3.263,0,0,0,.609,2.106,20.64,20.64,0,0,1-1.809,1.838c-.472.426-.937.8-1.388,1.137a14.181,14.181,0,0,1-7.288,2.146c-5.727.076-10.785-3.328-13.607-8.479,2.677,6.3,8,10.569,14.069,10.488A13.979,13.979,0,0,0,32.178,40.5a1.853,1.853,0,0,0,1.114.438,3.956,3.956,0,0,0,1.973-.449,7.009,7.009,0,0,0,1.078-.672,8.038,8.038,0,0,0,.972-.9,8.743,8.743,0,0,0,.8-1.06,8.549,8.549,0,0,0,.585-1.152,1.847,1.847,0,0,0-1.4-.256,5.335,5.335,0,0,0-1.835.745,12.016,12.016,0,0,0-1.86,1.422,20.251,20.251,0,0,0,1.541-2.775c.695.478,1.828.4,3.025-.558a6.321,6.321,0,0,0,.833-.842,6.78,6.78,0,0,0,.68-1.028,7.087,7.087,0,0,0,.485-1.144,6.737,6.737,0,0,0,.262-1.185,1.782,1.782,0,0,0-1.37.038,3.5,3.5,0,0,0-.75.412,6.488,6.488,0,0,0-.777.647A11.068,11.068,0,0,0,35.511,35a22.673,22.673,0,0,0,1.264-4.316,2.407,2.407,0,0,0,2.639-1.151,5.573,5.573,0,0,0,.562-.949,4.015,4.015,0,0,0,.213-.532q.09-.275.162-.558a5.979,5.979,0,0,0,.167-1.158,5.64,5.64,0,0,0-.047-1.151,1.676,1.676,0,0,0-1.264.307,3.2,3.2,0,0,0-.6.533,4.913,4.913,0,0,0-.564.758,9.455,9.455,0,0,0-1.043,2.454c.035-.271.066-.545.091-.821-.012.067-.028.134-.04.2.046-.352.085-.7.113-1.059a19.945,19.945,0,0,0,.056-2.1c.8.131,1.682-.368,2.206-1.6a4.69,4.69,0,0,0,.281-.993,4.926,4.926,0,0,0,.076-1.083c0-.184-.016-.37-.033-.555s-.06-.367-.1-.549a5.406,5.406,0,0,0-.325-1.053,1.531,1.531,0,0,0-1.1.537,3.618,3.618,0,0,0-.758,1.429,8.389,8.389,0,0,0-.355,2.372c-.016-.162-.029-.325-.048-.485a19.648,19.648,0,0,0-.708-3.269,1.506,1.506,0,0,0,.957-.5,2.583,2.583,0,0,0,.595-1.42A5.537,5.537,0,0,0,36.8,14.4a1.39,1.39,0,0,0-.891.714,3.5,3.5,0,0,0-.359,1.471,8.2,8.2,0,0,0,.156,1.762,22.909,22.909,0,0,0-1.015-2.129c-.195-.325-.38-.647-.572-.958a1.857,1.857,0,0,0,.793-2.028,5.631,5.631,0,0,0-1.99-3.351,1.239,1.239,0,0,0-.651.838,2.226,2.226,0,0,0-.069.65,3.271,3.271,0,0,0,.033.371c.015.132.036.268.064.409a5.165,5.165,0,0,0,.252.839c.027.069.054.139.082.208A20.294,20.294,0,0,0,30.5,10.957a1.192,1.192,0,0,0,.33-.6,1.848,1.848,0,0,0,.025-.62,2.477,2.477,0,0,0-.068-.359A3.384,3.384,0,0,0,30.654,9a4.951,4.951,0,0,0-.427-.783,5.237,5.237,0,0,0-.617-.73,6.413,6.413,0,0,0-1.6-1.172c-.524.421-.531,1.25-.022,2.212" fill="none"/>
    </clipPath>
    <linearGradient id="linear-gradient-4" x1="-0.084" y1="1.165" x2="-0.06" y2="1.165" xlink:href="#linear-gradient"/>
  </defs>
  <g id="logo" transform="translate(0 0)">
    <g id="Group_198" data-name="Group 198">
      <g id="Group_197" data-name="Group 197" clip-path="url(#clip-path)">
        <path id="Path_1898" data-name="Path 1898" d="M8.406-17.965a20.2,20.2,0,0,1-6.066,5.4l-.976-1.952a16.164,16.164,0,0,0,5.068-4.358Zm12.332,1.93H9.315V-18.01H20.738ZM8.883-13.762A34.53,34.53,0,0,1,6.632-10.4V1.153H4.525V-7.974A14.315,14.315,0,0,1,2.251-6.088L1.364-8.107a19.084,19.084,0,0,0,5.567-6.454ZM21.3-10.291H18.243v9.2q0,2.262-2.462,2.262-1.575,0-3.083-.067L11.944-.954q.954.022,3.527.022a.637.637,0,0,0,.427-.183.579.579,0,0,0,.205-.449v-8.728H8.694v-2H21.3ZM44.359-.222,43.128,1.431a18,18,0,0,1-4.059-3.748A17.053,17.053,0,0,1,33.89,1.453L32.659-.255a13.877,13.877,0,0,0,5.268-3.759A15.921,15.921,0,0,1,36.23-8.3l1.763-.832a15.588,15.588,0,0,0,1.1,3.105,22.945,22.945,0,0,0,1.5-7.375H37.816a44.761,44.761,0,0,1-2.3,5.578L33.979-9.171a33.752,33.752,0,0,0,3.083-9.637l1.952.366a26.762,26.762,0,0,1-.632,3.116h5.567v1.93H42.585a25.122,25.122,0,0,1-2.3,9.471A13.945,13.945,0,0,0,44.359-.222ZM34.545-3.36a79.993,79.993,0,0,1-9.726,3.9L24.076-1.3l1.131-.366V-12.587h2.029v10.18a13.686,13.686,0,0,0,1.7-.61V-15.9H24.641V-17.81h9.726V-15.9H30.951v4.724h2.772v1.93H30.951v5.367q1.8-.721,3.249-1.475Zm31.772-8.495H64.365V-14.65h-7.84v2.795H54.573V-16.6h4.68a7.742,7.742,0,0,0-.843-1.907l2.074-.322a11,11,0,0,1,.909,2.229h4.924Zm-14.106.2a8.961,8.961,0,0,1,1.819,4.9,3.69,3.69,0,0,1-.61,2.262,2.963,2.963,0,0,1-2.462.81q-.288,0-.588-.022L49.8-5.634a5.1,5.1,0,0,0,.743.055q1.042,0,1.275-.266a1.023,1.023,0,0,0,.233-.7A7.711,7.711,0,0,0,50.1-11.356a39.69,39.69,0,0,0,1.652-5.135h-2.2V1.065H47.586V-18.42h6.2v1.841Q53.076-13.973,52.211-11.655Zm11.5.8h-6.5v-1.93h6.5Zm3.127,7.519q0,2.662-.66,3.493a3.194,3.194,0,0,1-2.589.832A3.278,3.278,0,0,1,61.637.56a1.794,1.794,0,0,1-.543-1.492V-7h-1.93a8.246,8.246,0,0,1-5.545,8.273L52.377-.388Q57.19-2.207,57.19-6.221A7.03,7.03,0,0,0,57.145-7H54.528V-8.883H66.505V-7H63.112v5.634q0,.388.41.388.932,0,1.148-.338A7.881,7.881,0,0,0,64.886-3.9ZM88.33-11.267H71.318v-6.044h5.013v-1.353h1.907v1.353h3.094v-1.353h1.93v1.353H88.33Zm-1.907-3.626V-15.9H83.262v1.009Zm-5.09,0V-15.9H78.238v1.009Zm-5,0V-15.9H73.248v1.009Zm10.092,2.262v-1H83.262v1Zm-5.09,0v-1H78.238v1Zm-5,0v-1H73.248v1Zm13.2,8.45H76.7V-1a29.155,29.155,0,0,0,3.427-.821l.122,1.686a47.638,47.638,0,0,1-5.634,1.2l-.543-1.5q.721-.244.721-.843V-4.181H72.9a11.678,11.678,0,0,1-1.8,5.412L69.61-.177a8.906,8.906,0,0,0,1.364-4.7v-5.456H89.239v1.5H72.993v.954H88.186v1.3H72.993v.976H89.528Zm.044,3.793L88.829,1.3a15.321,15.321,0,0,1-9.382-4.314l1.8-.665a11.661,11.661,0,0,0,2.451,1.708,25.621,25.621,0,0,0,3.083-1.752L88.23-2.562q-.887.588-2.429,1.453A14.782,14.782,0,0,0,89.572-.388Zm20.849-17.233a12.62,12.62,0,0,1-1.952,2.107l-1.8-1.065a13.7,13.7,0,0,0,1.985-2Zm1.774,13.33H103.29V1.153h-2.018V-4.292H92.389V-6h8.883V-7.153H93.464V-8.861h7.807V-9.97H92.888v-1.708h5.179a6.982,6.982,0,0,0-.787-.976L98.8-13.5H92.344v-1.7H99.3v-3.382h1.974v3.382h2.041v-3.382H105.3v3.382h6.853v1.7h-6.266l1.342.71a8.648,8.648,0,0,1-.754,1.109H111.7V-9.97H103.29v1.109h7.863v1.708H103.29V-6h8.905Zm-7-9.2H99.231a15.049,15.049,0,0,1,1.264,1.819h3.438A11.459,11.459,0,0,0,105.2-13.5Zm-7.541-2.95-1.519,1.1a14.745,14.745,0,0,0-2.018-2.007l1.519-1.176A13.269,13.269,0,0,1,97.656-16.446ZM112.605-.654,111.5.976A41.627,41.627,0,0,0,105-2.107l1.176-1.641A45.96,45.96,0,0,1,112.605-.654ZM99.619-2.384a31.1,31.1,0,0,1-5.889,3.427L92.411-.543A25.234,25.234,0,0,0,98.044-3.7ZM134.885-9.06l-1.231,1.519a39.681,39.681,0,0,0-7.718-3.116v1.963h-1.93v-2.861a28.59,28.59,0,0,1-7.929,4.125l-1.131-1.652a29.006,29.006,0,0,0,7.519-3.593h-7.109v-1.885h8.65v-1.264q-3.471.177-6.5.177l-.654-1.863q1.087.022,2.129.022a61.655,61.655,0,0,0,13.042-1.231l1.187,1.641a60.08,60.08,0,0,1-7.275,1.087v1.431h8.728l-.022,1.885h-8.705v.255A38.359,38.359,0,0,1,134.885-9.06Zm-.2,4.27h-5.223a11.656,11.656,0,0,1-1.841,2.273Q133-1.031,134.607-.388l-.954,1.73a58.487,58.487,0,0,0-7.874-2.451Q122.3.976,115.6,1.176L114.9-.7a23.048,23.048,0,0,0,7.951-1.076q-2.406-.488-4.525-.765A17.351,17.351,0,0,0,120.1-4.791h-4.835V-6.654H121.3q.621-.943,1.187-2l2.063.432a15.826,15.826,0,0,1-.909,1.564h4.613l.632-1.32,1.819.543a3.782,3.782,0,0,1-.311.776h4.292Zm-7.663,0h-4.536a8.529,8.529,0,0,1-.8,1.109l3.593.621A8.494,8.494,0,0,0,127.022-4.791ZM155.057-13.7H140.452v-4.4h14.605Zm-2.007-1.519v-1.3H142.536v1.3Zm2.506,12.742H144.987l.754.654a22.952,22.952,0,0,1-6.853,3.138L137.768-.3a24.006,24.006,0,0,0,5.456-2.174h-3.271V-12.4h15.6Zm-2-7.086v-1.275H141.993v1.275Zm0,2.75v-1.3H141.993v1.3Zm0,2.795v-1.32H141.993v1.32ZM157.774-.3l-1,1.686a31.931,31.931,0,0,0-6.632-1.841l.932-1.686A29.08,29.08,0,0,1,157.774-.3Zm22.878-14.417-.8,1.8a39.836,39.836,0,0,1-5.634-1.863v.843H166.8v-.887a38,38,0,0,1-5.567,1.952l-1-1.641q6.709-1.73,9.9-4.425l2.218.543a2.977,2.977,0,0,1-.41.432A28.1,28.1,0,0,0,180.652-14.716Zm-8.018-.8q-1.83-1.02-2.229-1.264a12.267,12.267,0,0,1-2.129,1.264Zm5.944,8.362H162.365v-5.866h16.213Zm-2-1.586V-11.4h-5.135v2.662Zm-.865-1.6a14.751,14.751,0,0,1-1.907,1.32L172.4-9.97q1.331-.843,1.863-1.231Zm-6.266,1.6V-11.4h-5.112v2.662Zm-1-1.12-1.431.909a15.881,15.881,0,0,0-1.885-1.342l1.408-.954A14.008,14.008,0,0,1,168.453-9.859ZM177.6,1.109h-2V.3H165.437v.81h-2.074V-6.155H177.6Zm-2-4.791v-.932H165.437v.932Zm0,2.406v-1H165.437v1Zm26.283-9.992H184.877v-6.044h5.013v-1.353H191.8v1.353h3.094v-1.353h1.93v1.353h5.068Zm-1.907-3.626V-15.9h-3.161v1.009Zm-5.09,0V-15.9H191.8v1.009Zm-5,0V-15.9h-3.083v1.009Zm10.092,2.262v-1h-3.161v1Zm-5.09,0v-1H191.8v1Zm-5,0v-1h-3.083v1Zm13.2,8.45H190.256V-1a29.155,29.155,0,0,0,3.427-.821L193.8-.133a47.638,47.638,0,0,1-5.634,1.2l-.543-1.5q.721-.244.721-.843V-4.181h-1.885a11.678,11.678,0,0,1-1.8,5.412l-1.5-1.408a8.906,8.906,0,0,0,1.364-4.7v-5.456H202.8v1.5H186.552v.954h15.193v1.3H186.552v.976h16.535Zm.044,3.793L202.388,1.3a15.321,15.321,0,0,1-9.382-4.314l1.8-.665a11.661,11.661,0,0,0,2.451,1.708,25.621,25.621,0,0,0,3.083-1.752l1.453,1.164q-.887.588-2.429,1.453A14.782,14.782,0,0,0,203.131-.388Zm21.326,1.541h-2.041V-.477h-13.13v1.63h-2.041V-18.1h17.211Zm-2.041-11.6v-5.678h-5.5v5.678Zm-7.608,0v-5.678h-5.523v5.678Zm7.608,8.018V-8.495h-5.5v6.066Zm-7.608,0V-8.495h-5.523v6.066Zm33.79.2L247.268-.566a19.03,19.03,0,0,1-7.452-8.583v7.94a2.531,2.531,0,0,1-.372,1.492,1.744,1.744,0,0,1-.926.682,6.953,6.953,0,0,1-1.808.166q-.865,0-1.852-.067l-.61-2.041q1.309.122,2.085.122a3.321,3.321,0,0,0,1.2-.128.554.554,0,0,0,.238-.538V-18.7h2.041v4.569a16.583,16.583,0,0,0,1.153,3.227,22.554,22.554,0,0,0,5.223-5.2l1.708,1.131A26.335,26.335,0,0,1,241.856-9.1,17.722,17.722,0,0,0,248.6-2.229Zm-11.733-11.6q-.743,8.606-6.931,13.4l-1.3-1.608a14.071,14.071,0,0,0,4.131-4.508,11.944,11.944,0,0,0,1.758-5.373H229.3v-1.907ZM262.96-7l-1.02,1.885a19.94,19.94,0,0,0-3.549-3.582V1.131h-2V-8.428a21.375,21.375,0,0,1-4.181,5.911l-1.02-1.93a21.365,21.365,0,0,0,5.046-7.086h-4.525V-13.5h4.68v-2.262q-1.431.166-3.471.244l-.843-1.952a29.74,29.74,0,0,0,9.038-1.253l1.176,1.708a30.217,30.217,0,0,1-3.9.954V-13.5h4.136v1.963h-4.136v.61A30.576,30.576,0,0,1,262.96-7Zm7.63,5.678q-.044,2.451-2.617,2.5l-2.562.011L264.7-.932q1.1.067,3.416.067.432,0,.432-.5V-18.575h2.041Zm-4.68-1.519h-2.018V-17.078h2.018Zm26.87-11.1H275.1v-4.436H292.78Zm-1.93-1.464v-1.453h-3.227V-15.4Zm-5.223,0v-1.453h-3.271V-15.4Zm-5.245,0v-1.453h-3.294V-15.4Zm13.441,7.275h-7.064q-.477.3-2.562,1.408h7.486V1.153h-1.974V.133h-10.1v.954h-1.93V-4.4q-1.386.421-2.994.787l-.865-1.675a48.434,48.434,0,0,0,9.448-2.839h-9.2v-1.6h7.907v-1.309h-6.332v-1.453h6.332v-.821h1.93v.821h4.68v1.109q1.042-.843,2.207-1.93l1.675.776a21.137,21.137,0,0,1-3.294,2.806h4.658ZM288.1-11.034h-4.2v1.309h2.318A20.539,20.539,0,0,0,288.1-11.034Zm1.608,6.92V-5.223H280.36l-.754.277v.832Zm0,2.706V-2.617h-10.1v1.209Zm14.339-7.386-1.53,1.486a14.189,14.189,0,0,0-1.042-2.273V1.131h-1.907V-7.951a18.161,18.161,0,0,1-1.974,3.427l-1.02-2.218a16.027,16.027,0,0,0,2.883-6h-2.617v-1.885h2.728V-18.7h1.907v4.07h1.8v1.885h-1.8v.3A19.825,19.825,0,0,1,304.048-8.794ZM316.734-3.36a7.2,7.2,0,0,1-.643,3.349,2.105,2.105,0,0,1-1.952.965A10.85,10.85,0,0,1,311.7.787a1.622,1.622,0,0,1-.893-.66,2.513,2.513,0,0,1-.338-1.425V-18.664h1.863v4.946a23.165,23.165,0,0,0,2.617-2.251l1.309,1.431a26.573,26.573,0,0,1-3.926,3.161v1.8a26.229,26.229,0,0,1,4.114,3.515l-1.408,1.475a18.12,18.12,0,0,0-2.706-2.673v5.7q0,.6.932.6,1.009,0,1.214-.25a10.2,10.2,0,0,0,.394-2.833Zm-7.718-4.769a11.434,11.434,0,0,1-3.992,9.26L303.382-.111A9.16,9.16,0,0,0,307.02-6.72a36.93,36.93,0,0,1-3.05,2.606l-1.2-1.63a22.459,22.459,0,0,0,4.336-3.7v-9.216h1.907Zm-2.406-3.382-1.752.787a20.347,20.347,0,0,0-1.519-4.813l1.774-.721A20.507,20.507,0,0,1,306.609-11.511Zm31.839,12.62h-1.974V.277H322.323v.832h-2.018V-18.354h18.143Zm-1.974-2.562V-16.579H322.323V-1.453Zm-.743-9.925H322.967v-1.431h5.423v-1.02h-4.746v-1.386h4.746v-.8h1.952v.8h4.724v1.386h-4.724v1.02h5.39Zm-1.1,4.658h-5.445a7.6,7.6,0,0,1-1.1,1.02v1.863a15.669,15.669,0,0,0,1.985-.61l.155,1.564a28.966,28.966,0,0,1-3.948,1.109l-.455-1.386a.862.862,0,0,0,.4-.743v-.5a21.507,21.507,0,0,1-2.695,1.2l-.776-1.5A13.78,13.78,0,0,0,326.87-6.72h-2.706v-3.815h10.469Zm-2.018-1.386V-9.171h-6.476v1.065Zm3.294,5.013-1.164,1.231A37.414,37.414,0,0,0,329.3-5.179l1.153-1.131a11.837,11.837,0,0,1,2.029,1.042q.7-.577,1.408-1.275l1.586.843A19.107,19.107,0,0,1,334-4.425Q334.988-3.771,335.908-3.094Zm26.139-12.6h-7a11.554,11.554,0,0,1-1.286,1.608l-1.841-.976a13.043,13.043,0,0,0,2.65-3.859l2.052.588q-.288.588-.5.932h5.922Zm-10.125,0h-6a17.693,17.693,0,0,1-2.517,2.34l-1.32-1.641a8.674,8.674,0,0,0,3.449-3.859l2.052.543a5.2,5.2,0,0,1-.455.909h4.791Zm-2.1,1.952-2.218.41a11.739,11.739,0,0,0-.954-1.6l2.151-.444A9.755,9.755,0,0,1,349.826-13.74Zm9.182.133-2.185.344a9.172,9.172,0,0,0-.865-1.774l2.207-.244A12.16,12.16,0,0,1,359.008-13.607Zm2.473,4.658h-2v-2.185H344.747v2.185H342.74v-3.859h8.184a6.97,6.97,0,0,0-.554-1.02l2.318-.366a9.655,9.655,0,0,1,.732,1.386h8.062ZM359.419.2H347.353v.909h-1.974v-11.1h13.286v4.336H347.353v1.209h12.066Zm-2.772-7.33V-8.45h-9.293v1.32Zm.743,5.789V-2.928H347.353v1.586ZM384.714.632H371.706V-1.209h5.578v-2.24h-4.791v-1.8h4.791V-7.2h-4.647V-18.1h11.212V-7.2h-4.58v1.952h4.9v1.8h-4.9v2.24h5.445Zm-2.839-14.217V-16.3h-2.606v2.717Zm-4.591,0V-16.3h-2.65v2.717Zm4.591,4.591v-2.95h-2.606v2.95Zm-4.591,0v-2.95h-2.65v2.95ZM371.795-3.7a54.789,54.789,0,0,1-6.321,3.271l-.7-1.93q.821-.322,2.706-1.231V-9.249H365.3v-1.885h2.185v-4.491h-2.528v-1.819h6.8v1.819h-2.318v4.491h1.974v1.885h-1.974v4.613a15.832,15.832,0,0,0,2.3-1.2Zm35.354-11.312a14.456,14.456,0,0,1-1.331,4.314L404-11.312a9.442,9.442,0,0,0,.743-1.974h-7.308v.954l5.811-.2.044,1.541-5.855.2v.3q0,.654.7.654h6.953V-8.2h-7.608a2.246,2.246,0,0,1-1.414-.449,1.7,1.7,0,0,1-.582-1.436V-10.7l-3.36.1-.044-1.553,3.4-.111v-1.02H391v7.02a14.921,14.921,0,0,1-1.863,7.419L387.487-.089a15.409,15.409,0,0,0,1.519-7.43v-7.5h6.931v-3.7h2.018v1.031h7.885v1.652h-7.885v1.02Zm.432,14.151-.61,1.841a72.2,72.2,0,0,1-8.184-.189,8.447,8.447,0,0,1-3.371-1.264,15.686,15.686,0,0,1-3.249,1.841L391.08-.255a11.187,11.187,0,0,0,2.861-1.408q-.366-.388-.954-1.131a9.655,9.655,0,0,1-.865.932L391-3.294a15.011,15.011,0,0,0,3.027-5.179l1.7.455a4.066,4.066,0,0,1-.355,1.109h3.449v1.73A12.95,12.95,0,0,1,396.758-1.8,6.623,6.623,0,0,0,399.1-1a41.077,41.077,0,0,0,4.846.183Q405.585-.821,407.581-.865ZM396.824-5.179h-2.251a7.21,7.21,0,0,1-.543.976,5.774,5.774,0,0,0,1.32,1.386A9.609,9.609,0,0,0,396.824-5.179Zm10.447.732a4.585,4.585,0,0,1-.538,2.273,2.189,2.189,0,0,1-1.869.632,2.656,2.656,0,0,1-1.625-.388,1.353,1.353,0,0,1-.493-1.131V-5.5H401.7a5.512,5.512,0,0,1-1.752,4.27l-1.5-1.065a4.445,4.445,0,0,0,1.386-3.6V-7.175h4.724v3.449q0,.477.455.477a.494.494,0,0,0,.5-.366,4.537,4.537,0,0,0,.128-1.309Z" transform="translate(54.211 29.794)" fill="#333"/>
      </g>
    </g>
    <g id="Group_200" data-name="Group 200">
      <g id="Group_199" data-name="Group 199" clip-path="url(#clip-path-2)">
        <rect id="Rectangle_388" data-name="Rectangle 388" width="2.559" height="5.032" transform="translate(21.559 43.05) rotate(-86.478)" fill="url(#linear-gradient)"/>
      </g>
    </g>
    <g id="Group_202" data-name="Group 202">
      <g id="Group_201" data-name="Group 201" clip-path="url(#clip-path-3)">
        <rect id="Rectangle_389" data-name="Rectangle 389" width="27.363" height="17.882" transform="translate(13.598 43.853) rotate(-86.478)" fill="url(#linear-gradient-2)"/>
      </g>
    </g>
    <g id="Group_204" data-name="Group 204">
      <g id="Group_203" data-name="Group 203" clip-path="url(#clip-path-4)">
        <rect id="Rectangle_390" data-name="Rectangle 390" width="3.785" height="1.727" transform="matrix(0.061, -0.998, 0.998, 0.061, 27.345, 22.584)" fill="url(#linear-gradient-3)"/>
      </g>
    </g>
    <g id="Group_206" data-name="Group 206">
      <g id="Group_205" data-name="Group 205" clip-path="url(#clip-path)">
        <path id="Path_1516" data-name="Path 1516" d="M22.125,46.947A17.253,17.253,0,0,1,4.917,30.006c0-3.78,1.731-7.283,3.79-10.1h0l.007-.009c.371-.509,10.07-12.047,12.739-15.214.712-.845.141-1.42.141-1.42L19.027.228,18.834,0l-.167.195C17.03,2.11,7.24,13.883,5.222,16.656,2.022,21.053,0,25.584,0,29.857A18.6,18.6,0,0,0,18.834,48.691a19.048,19.048,0,0,0,11.947-4.2,16.429,16.429,0,0,1-8.656,2.453" fill="#0098cc"/>
      </g>
    </g>
    <g id="Group_208" data-name="Group 208">
      <g id="Group_207" data-name="Group 207" clip-path="url(#clip-path-6)">
        <rect id="Rectangle_392" data-name="Rectangle 392" width="41.348" height="35.162" transform="translate(5.33 45.572) rotate(-86.479)" fill="url(#linear-gradient-4)"/>
      </g>
    </g>
    <g id="Group_210" data-name="Group 210">
      <g id="Group_209" data-name="Group 209" clip-path="url(#clip-path)">
        <path id="Path_1518" data-name="Path 1518" d="M23.417,27.436c-.171-.606-.689-2.451-3.986-6.953l-3.189-4.356-3.19,4.356c-3.3,4.5-3.815,6.347-3.986,6.953a7.564,7.564,0,1,0,14.351,0" fill="#0098cc"/>
        <path id="Path_1899" data-name="Path 1899" d="M2.513,0V-6.12H.227v-.819h5.5v.819h-2.3V0ZM8.184-.62a3.172,3.172,0,0,1-.911.568,2.633,2.633,0,0,1-.94.166,1.827,1.827,0,0,1-1.273-.4,1.336,1.336,0,0,1-.445-1.034A1.375,1.375,0,0,1,4.783-2a1.391,1.391,0,0,1,.44-.49,2.07,2.07,0,0,1,.613-.279A6.088,6.088,0,0,1,6.594-2.9,7.787,7.787,0,0,0,8.113-3.19q0-.175,0-.222a.941.941,0,0,0-.241-.734,1.426,1.426,0,0,0-.97-.289,1.5,1.5,0,0,0-.887.211,1.287,1.287,0,0,0-.424.745l-.833-.114a2.064,2.064,0,0,1,.374-.864,1.639,1.639,0,0,1,.753-.506A3.357,3.357,0,0,1,7.029-5.14a3.019,3.019,0,0,1,1.046.151,1.378,1.378,0,0,1,.592.381,1.34,1.34,0,0,1,.265.58,4.8,4.8,0,0,1,.043.786v1.136A12.057,12.057,0,0,0,9.029-.6a1.9,1.9,0,0,0,.215.6h-.89A1.806,1.806,0,0,1,8.184-.62Zm-.071-1.9A6.251,6.251,0,0,1,6.722-2.2a3.219,3.219,0,0,0-.743.17.741.741,0,0,0-.336.277.727.727,0,0,0-.118.4.726.726,0,0,0,.258.568,1.11,1.11,0,0,0,.755.227,1.757,1.757,0,0,0,.876-.215,1.326,1.326,0,0,0,.563-.589,2.058,2.058,0,0,0,.137-.852Zm2.34.009a2.591,2.591,0,0,1,.776-2.068A2.339,2.339,0,0,1,12.81-5.14a2.255,2.255,0,0,1,1.694.679,2.584,2.584,0,0,1,.658,1.877,3.325,3.325,0,0,1-.291,1.526,2.061,2.061,0,0,1-.847.864A2.467,2.467,0,0,1,12.81.114,2.259,2.259,0,0,1,11.1-.563,2.7,2.7,0,0,1,10.453-2.513Zm.876,0a2.141,2.141,0,0,0,.421,1.446,1.35,1.35,0,0,0,1.06.48,1.343,1.343,0,0,0,1.055-.483,2.192,2.192,0,0,0,.421-1.472,2.077,2.077,0,0,0-.424-1.413,1.347,1.347,0,0,0-1.053-.48,1.353,1.353,0,0,0-1.06.478A2.131,2.131,0,0,0,11.329-2.513ZM16.6,1.936l-.095-.8a1.9,1.9,0,0,0,.488.076.935.935,0,0,0,.454-.095.774.774,0,0,0,.279-.265,4.179,4.179,0,0,0,.26-.634q.024-.071.076-.208L16.153-5.027h.918l1.046,2.911q.2.554.364,1.164a11.463,11.463,0,0,1,.35-1.145l1.074-2.93h.852L18.847.085a10.034,10.034,0,0,1-.478,1.141,1.683,1.683,0,0,1-.521.618,1.23,1.23,0,0,1-.7.2A1.706,1.706,0,0,1,16.6,1.936ZM25.252,0V-.738a1.84,1.84,0,0,1-1.6.852,2.033,2.033,0,0,1-.831-.17,1.368,1.368,0,0,1-.573-.428,1.605,1.605,0,0,1-.263-.632,4.326,4.326,0,0,1-.052-.8V-5.027h.852v2.788a4.968,4.968,0,0,0,.052.9.889.889,0,0,0,.341.528,1.056,1.056,0,0,0,.644.192,1.4,1.4,0,0,0,.719-.2,1.092,1.092,0,0,0,.476-.535,2.684,2.684,0,0,0,.14-.982V-5.027h.852V0ZM31.1-.62a3.172,3.172,0,0,1-.911.568,2.633,2.633,0,0,1-.94.166,1.827,1.827,0,0,1-1.273-.4,1.336,1.336,0,0,1-.445-1.034A1.375,1.375,0,0,1,27.7-2a1.391,1.391,0,0,1,.44-.49,2.07,2.07,0,0,1,.613-.279,6.088,6.088,0,0,1,.757-.128,7.787,7.787,0,0,0,1.519-.293q0-.175,0-.222a.941.941,0,0,0-.241-.734,1.426,1.426,0,0,0-.97-.289,1.5,1.5,0,0,0-.887.211,1.287,1.287,0,0,0-.424.745l-.833-.114a2.064,2.064,0,0,1,.374-.864,1.639,1.639,0,0,1,.753-.506,3.357,3.357,0,0,1,1.141-.177A3.019,3.019,0,0,1,31-4.989a1.378,1.378,0,0,1,.592.381,1.34,1.34,0,0,1,.265.58,4.8,4.8,0,0,1,.043.786v1.136a12.057,12.057,0,0,0,.054,1.5,1.9,1.9,0,0,0,.215.6h-.89A1.806,1.806,0,0,1,31.1-.62Zm-.071-1.9a6.251,6.251,0,0,1-1.392.322,3.219,3.219,0,0,0-.743.17.741.741,0,0,0-.336.277.727.727,0,0,0-.118.4.726.726,0,0,0,.258.568,1.11,1.11,0,0,0,.755.227,1.757,1.757,0,0,0,.876-.215,1.326,1.326,0,0,0,.563-.589,2.058,2.058,0,0,0,.137-.852ZM33.69,0V-5.027h.767v.715a1.807,1.807,0,0,1,1.6-.828,2.1,2.1,0,0,1,.835.163,1.314,1.314,0,0,1,.57.428,1.644,1.644,0,0,1,.265.63,4.879,4.879,0,0,1,.047.828V0h-.852V-3.058a2.3,2.3,0,0,0-.1-.779.819.819,0,0,0-.353-.412,1.122,1.122,0,0,0-.594-.154,1.38,1.38,0,0,0-.94.346,1.7,1.7,0,0,0-.4,1.311V0Zm9.124,0V-6.939H44.2l1.642,4.913q.227.686.331,1.027.118-.379.369-1.112L48.2-6.939h1.235V0h-.885V-5.808L46.535,0h-.828L43.7-5.907V0ZM54.564-.62a3.172,3.172,0,0,1-.911.568,2.633,2.633,0,0,1-.94.166,1.827,1.827,0,0,1-1.273-.4,1.336,1.336,0,0,1-.445-1.034A1.375,1.375,0,0,1,51.163-2a1.391,1.391,0,0,1,.44-.49,2.07,2.07,0,0,1,.613-.279,6.088,6.088,0,0,1,.757-.128,7.787,7.787,0,0,0,1.519-.293q0-.175,0-.222a.941.941,0,0,0-.241-.734,1.426,1.426,0,0,0-.97-.289,1.5,1.5,0,0,0-.887.211,1.287,1.287,0,0,0-.424.745l-.833-.114a2.064,2.064,0,0,1,.374-.864,1.639,1.639,0,0,1,.753-.506,3.357,3.357,0,0,1,1.141-.177,3.019,3.019,0,0,1,1.046.151,1.378,1.378,0,0,1,.592.381,1.34,1.34,0,0,1,.265.58,4.8,4.8,0,0,1,.043.786v1.136a12.057,12.057,0,0,0,.054,1.5,1.9,1.9,0,0,0,.215.6h-.89A1.806,1.806,0,0,1,54.564-.62Zm-.071-1.9A6.251,6.251,0,0,1,53.1-2.2a3.219,3.219,0,0,0-.743.17.741.741,0,0,0-.336.277.727.727,0,0,0-.118.4.726.726,0,0,0,.258.568,1.11,1.11,0,0,0,.755.227,1.757,1.757,0,0,0,.876-.215,1.326,1.326,0,0,0,.563-.589,2.058,2.058,0,0,0,.137-.852ZM57.15,0V-5.027h.767v.715a1.807,1.807,0,0,1,1.6-.828,2.1,2.1,0,0,1,.835.163,1.314,1.314,0,0,1,.57.428,1.644,1.644,0,0,1,.265.63,4.879,4.879,0,0,1,.047.828V0h-.852V-3.058a2.3,2.3,0,0,0-.1-.779.819.819,0,0,0-.353-.412,1.122,1.122,0,0,0-.594-.154,1.38,1.38,0,0,0-.94.346A1.7,1.7,0,0,0,58-2.745V0ZM66.3-.62a3.172,3.172,0,0,1-.911.568,2.633,2.633,0,0,1-.94.166,1.827,1.827,0,0,1-1.273-.4,1.336,1.336,0,0,1-.445-1.034A1.375,1.375,0,0,1,62.9-2a1.391,1.391,0,0,1,.44-.49,2.07,2.07,0,0,1,.613-.279,6.088,6.088,0,0,1,.757-.128,7.787,7.787,0,0,0,1.519-.293q0-.175,0-.222a.941.941,0,0,0-.241-.734,1.426,1.426,0,0,0-.97-.289,1.5,1.5,0,0,0-.887.211,1.287,1.287,0,0,0-.424.745l-.833-.114a2.064,2.064,0,0,1,.374-.864A1.639,1.639,0,0,1,64-4.963a3.357,3.357,0,0,1,1.141-.177,3.019,3.019,0,0,1,1.046.151,1.378,1.378,0,0,1,.592.381,1.34,1.34,0,0,1,.265.58,4.8,4.8,0,0,1,.043.786v1.136a12.058,12.058,0,0,0,.054,1.5,1.9,1.9,0,0,0,.215.6h-.89A1.806,1.806,0,0,1,66.3-.62Zm-.071-1.9a6.25,6.25,0,0,1-1.392.322,3.219,3.219,0,0,0-.743.17.741.741,0,0,0-.336.277.727.727,0,0,0-.118.4.726.726,0,0,0,.258.568,1.11,1.11,0,0,0,.755.227,1.757,1.757,0,0,0,.876-.215,1.326,1.326,0,0,0,.563-.589,2.058,2.058,0,0,0,.137-.852Zm2.5,2.939.828.123a.789.789,0,0,0,.289.559,1.418,1.418,0,0,0,.866.237,1.521,1.521,0,0,0,.913-.237,1.165,1.165,0,0,0,.435-.663,5.441,5.441,0,0,0,.062-1.093A1.752,1.752,0,0,1,70.728,0a1.9,1.9,0,0,1-1.6-.748,2.88,2.88,0,0,1-.568-1.794,3.339,3.339,0,0,1,.26-1.328,2.083,2.083,0,0,1,.755-.94,2.038,2.038,0,0,1,1.162-.331,1.8,1.8,0,0,1,1.467.719v-.606h.786V-.682A4.121,4.121,0,0,1,72.746.982a1.748,1.748,0,0,1-.757.774,2.625,2.625,0,0,1-1.276.284,2.4,2.4,0,0,1-1.453-.4A1.368,1.368,0,0,1,68.726.417Zm.705-3.02a2.181,2.181,0,0,0,.393,1.444,1.247,1.247,0,0,0,.984.454,1.259,1.259,0,0,0,.984-.452,2.11,2.11,0,0,0,.4-1.418,2.061,2.061,0,0,0-.409-1.392,1.266,1.266,0,0,0-.987-.469,1.23,1.23,0,0,0-.966.461A2.049,2.049,0,0,0,69.431-2.6Zm8.758.984.88.109a2.148,2.148,0,0,1-.771,1.2,2.319,2.319,0,0,1-1.439.426A2.3,2.3,0,0,1,75.11-.566a2.654,2.654,0,0,1-.646-1.905,2.778,2.778,0,0,1,.653-1.969,2.211,2.211,0,0,1,1.694-.7,2.149,2.149,0,0,1,1.647.686A2.727,2.727,0,0,1,79.1-2.523q0,.076,0,.227H75.344a1.932,1.932,0,0,0,.469,1.268,1.4,1.4,0,0,0,1.051.44,1.3,1.3,0,0,0,.8-.246A1.634,1.634,0,0,0,78.189-1.619ZM75.392-3H78.2a1.7,1.7,0,0,0-.322-.951,1.306,1.306,0,0,0-1.055-.492,1.353,1.353,0,0,0-.987.393A1.555,1.555,0,0,0,75.392-3Zm5.222,3V-5.027h.762v.705a1.792,1.792,0,0,1,.63-.594A1.769,1.769,0,0,1,82.9-5.14a1.654,1.654,0,0,1,.916.232,1.241,1.241,0,0,1,.5.648,1.8,1.8,0,0,1,1.552-.88,1.53,1.53,0,0,1,1.15.414,1.77,1.77,0,0,1,.4,1.276V0h-.847V-3.166a2.331,2.331,0,0,0-.083-.736.713.713,0,0,0-.3-.362.938.938,0,0,0-.511-.137,1.19,1.19,0,0,0-.88.353,1.553,1.553,0,0,0-.35,1.129V0H83.6V-3.266a1.437,1.437,0,0,0-.208-.852.789.789,0,0,0-.682-.284,1.238,1.238,0,0,0-.665.189,1.074,1.074,0,0,0-.443.554,3.117,3.117,0,0,0-.137,1.051V0ZM92.6-1.619l.88.109a2.148,2.148,0,0,1-.771,1.2,2.319,2.319,0,0,1-1.439.426,2.3,2.3,0,0,1-1.749-.679,2.654,2.654,0,0,1-.646-1.905,2.778,2.778,0,0,1,.653-1.969,2.211,2.211,0,0,1,1.694-.7,2.149,2.149,0,0,1,1.647.686,2.727,2.727,0,0,1,.639,1.931q0,.076,0,.227H89.76a1.932,1.932,0,0,0,.469,1.268,1.4,1.4,0,0,0,1.051.44,1.3,1.3,0,0,0,.8-.246A1.634,1.634,0,0,0,92.6-1.619ZM89.807-3h2.807a1.7,1.7,0,0,0-.322-.951,1.306,1.306,0,0,0-1.055-.492,1.353,1.353,0,0,0-.987.393A1.555,1.555,0,0,0,89.807-3ZM95.03,0V-5.027H95.8v.715a1.807,1.807,0,0,1,1.6-.828,2.1,2.1,0,0,1,.835.163,1.314,1.314,0,0,1,.57.428,1.644,1.644,0,0,1,.265.63,4.878,4.878,0,0,1,.047.828V0h-.852V-3.058a2.3,2.3,0,0,0-.1-.779.819.819,0,0,0-.353-.412,1.122,1.122,0,0,0-.594-.154,1.38,1.38,0,0,0-.94.346,1.7,1.7,0,0,0-.4,1.311V0Zm7.726-.762.123.753a3.16,3.16,0,0,1-.644.076,1.457,1.457,0,0,1-.719-.147.822.822,0,0,1-.36-.386,3.05,3.05,0,0,1-.1-1.006V-4.364h-.625v-.663h.625V-6.271l.847-.511v1.756h.857v.663H101.9v2.939a1.485,1.485,0,0,0,.045.469.355.355,0,0,0,.147.166.567.567,0,0,0,.291.062A2.772,2.772,0,0,0,102.756-.762Zm4.325-2.617a3.771,3.771,0,0,1,.928-2.7,3.154,3.154,0,0,1,2.395-.977,3.323,3.323,0,0,1,1.732.459,3,3,0,0,1,1.176,1.28,4.158,4.158,0,0,1,.4,1.862,4.089,4.089,0,0,1-.426,1.889A2.908,2.908,0,0,1,112.084-.31,3.448,3.448,0,0,1,110.4.118a3.281,3.281,0,0,1-1.751-.473,3.046,3.046,0,0,1-1.169-1.292A3.916,3.916,0,0,1,107.081-3.379Zm.947.014a2.78,2.78,0,0,0,.674,1.976,2.219,2.219,0,0,0,1.692.722A2.215,2.215,0,0,0,112.1-1.4a2.947,2.947,0,0,0,.67-2.068,3.555,3.555,0,0,0-.286-1.479,2.2,2.2,0,0,0-.838-.98,2.271,2.271,0,0,0-1.238-.348,2.348,2.348,0,0,0-1.678.67A2.991,2.991,0,0,0,108.028-3.365ZM115.479,0V-4.364h-.753v-.663h.753v-.535a2.342,2.342,0,0,1,.09-.753A1.089,1.089,0,0,1,116-6.851a1.561,1.561,0,0,1,.869-.206,4.17,4.17,0,0,1,.8.085l-.128.743a2.859,2.859,0,0,0-.5-.047.747.747,0,0,0-.549.166.9.9,0,0,0-.161.62v.464h.98v.663h-.98V0ZM118.3,0V-4.364h-.753v-.663h.753v-.535a2.342,2.342,0,0,1,.09-.753,1.089,1.089,0,0,1,.433-.537,1.561,1.561,0,0,1,.869-.206,4.17,4.17,0,0,1,.8.085l-.128.743a2.859,2.859,0,0,0-.5-.047.747.747,0,0,0-.549.166.9.9,0,0,0-.161.62v.464h.98v.663h-.98V0Zm2.979-5.959v-.98h.852v.98Zm0,5.959V-5.027h.852V0Zm5.9-1.841.838.109a2.173,2.173,0,0,1-.7,1.356,2.048,2.048,0,0,1-1.389.49,2.158,2.158,0,0,1-1.659-.674,2.737,2.737,0,0,1-.627-1.933,3.5,3.5,0,0,1,.27-1.425,1.881,1.881,0,0,1,.821-.916,2.437,2.437,0,0,1,1.2-.305,2.086,2.086,0,0,1,1.339.414,1.9,1.9,0,0,1,.667,1.176l-.828.128a1.375,1.375,0,0,0-.419-.762,1.084,1.084,0,0,0-.727-.256,1.322,1.322,0,0,0-1.046.461,2.191,2.191,0,0,0-.4,1.46,2.265,2.265,0,0,0,.388,1.472,1.263,1.263,0,0,0,1.013.459,1.194,1.194,0,0,0,.838-.308A1.527,1.527,0,0,0,127.181-1.841Zm5.492.222.88.109a2.148,2.148,0,0,1-.771,1.2,2.319,2.319,0,0,1-1.439.426,2.3,2.3,0,0,1-1.749-.679,2.654,2.654,0,0,1-.646-1.905A2.777,2.777,0,0,1,129.6-4.44a2.211,2.211,0,0,1,1.694-.7,2.149,2.149,0,0,1,1.647.686,2.727,2.727,0,0,1,.639,1.931q0,.076,0,.227h-3.749a1.932,1.932,0,0,0,.469,1.268,1.4,1.4,0,0,0,1.051.44,1.3,1.3,0,0,0,.8-.246A1.634,1.634,0,0,0,132.673-1.619ZM129.876-3h2.807a1.7,1.7,0,0,0-.322-.951,1.306,1.306,0,0,0-1.055-.492,1.353,1.353,0,0,0-.987.393A1.555,1.555,0,0,0,129.876-3Zm5.445,3V-.97h.97V0a1.722,1.722,0,0,1-.189.864,1.234,1.234,0,0,1-.6.509l-.237-.364a.809.809,0,0,0,.4-.348A1.483,1.483,0,0,0,135.8,0Zm6.114,0V-6.939h.852V0Zm2.638,0V-5.027h.767v.762a2.079,2.079,0,0,1,.542-.705.946.946,0,0,1,.547-.17,1.662,1.662,0,0,1,.876.275l-.293.79a1.219,1.219,0,0,0-.625-.185.811.811,0,0,0-.5.168.91.91,0,0,0-.317.466,3.318,3.318,0,0,0-.142.994V0Zm3.7,0V-5.027h.767v.762a2.079,2.079,0,0,1,.542-.705.946.946,0,0,1,.547-.17,1.662,1.662,0,0,1,.876.275l-.293.79a1.219,1.219,0,0,0-.625-.185.811.811,0,0,0-.5.168.91.91,0,0,0-.317.466,3.318,3.318,0,0,0-.142.994V0Zm3.717-5.959v-.98h.852v.98Zm0,5.959V-5.027h.852V0Zm2.468.417.828.123a.789.789,0,0,0,.289.559,1.418,1.418,0,0,0,.866.237,1.521,1.521,0,0,0,.913-.237,1.165,1.165,0,0,0,.435-.663,5.442,5.442,0,0,0,.062-1.093A1.752,1.752,0,0,1,155.963,0a1.9,1.9,0,0,1-1.6-.748,2.88,2.88,0,0,1-.568-1.794,3.339,3.339,0,0,1,.26-1.328,2.083,2.083,0,0,1,.755-.94,2.038,2.038,0,0,1,1.162-.331,1.8,1.8,0,0,1,1.467.719v-.606h.786V-.682a4.121,4.121,0,0,1-.239,1.664,1.748,1.748,0,0,1-.757.774,2.625,2.625,0,0,1-1.276.284,2.4,2.4,0,0,1-1.453-.4A1.368,1.368,0,0,1,153.961.417Zm.705-3.02a2.181,2.181,0,0,0,.393,1.444,1.247,1.247,0,0,0,.984.454,1.259,1.259,0,0,0,.984-.452,2.11,2.11,0,0,0,.4-1.418,2.061,2.061,0,0,0-.409-1.392,1.266,1.266,0,0,0-.987-.469,1.23,1.23,0,0,0-.966.461A2.049,2.049,0,0,0,154.666-2.6Zm8.6,1.983a3.172,3.172,0,0,1-.911.568,2.633,2.633,0,0,1-.94.166,1.828,1.828,0,0,1-1.273-.4,1.336,1.336,0,0,1-.445-1.034A1.375,1.375,0,0,1,159.863-2a1.391,1.391,0,0,1,.44-.49,2.07,2.07,0,0,1,.613-.279,6.087,6.087,0,0,1,.757-.128,7.787,7.787,0,0,0,1.519-.293q0-.175,0-.222a.941.941,0,0,0-.241-.734,1.426,1.426,0,0,0-.97-.289,1.5,1.5,0,0,0-.887.211,1.287,1.287,0,0,0-.424.745l-.833-.114a2.064,2.064,0,0,1,.374-.864,1.639,1.639,0,0,1,.753-.506,3.357,3.357,0,0,1,1.141-.177,3.019,3.019,0,0,1,1.046.151,1.378,1.378,0,0,1,.592.381,1.34,1.34,0,0,1,.265.58,4.8,4.8,0,0,1,.043.786v1.136a12.058,12.058,0,0,0,.054,1.5,1.9,1.9,0,0,0,.215.6h-.89A1.806,1.806,0,0,1,163.263-.62Zm-.071-1.9A6.251,6.251,0,0,1,161.8-2.2a3.218,3.218,0,0,0-.743.17.741.741,0,0,0-.336.277.727.727,0,0,0-.118.4.726.726,0,0,0,.258.568,1.11,1.11,0,0,0,.755.227,1.757,1.757,0,0,0,.876-.215,1.326,1.326,0,0,0,.563-.589,2.058,2.058,0,0,0,.137-.852Zm4.517,1.761.123.753a3.16,3.16,0,0,1-.644.076,1.457,1.457,0,0,1-.719-.147.822.822,0,0,1-.36-.386,3.051,3.051,0,0,1-.1-1.006V-4.364h-.625v-.663h.625V-6.271l.847-.511v1.756h.857v.663h-.857v2.939a1.485,1.485,0,0,0,.045.469.355.355,0,0,0,.147.166.567.567,0,0,0,.291.062A2.771,2.771,0,0,0,167.709-.762Zm1.322-5.2v-.98h.852v.98Zm0,5.959V-5.027h.852V0Zm2.307-2.513a2.591,2.591,0,0,1,.776-2.068A2.339,2.339,0,0,1,173.7-5.14a2.255,2.255,0,0,1,1.694.679,2.584,2.584,0,0,1,.658,1.877,3.325,3.325,0,0,1-.291,1.526,2.061,2.061,0,0,1-.847.864A2.467,2.467,0,0,1,173.7.114a2.26,2.26,0,0,1-1.706-.677A2.7,2.7,0,0,1,171.339-2.513Zm.876,0a2.141,2.141,0,0,0,.421,1.446,1.35,1.35,0,0,0,1.06.48,1.343,1.343,0,0,0,1.055-.483,2.192,2.192,0,0,0,.421-1.472,2.077,2.077,0,0,0-.424-1.413,1.347,1.347,0,0,0-1.053-.48,1.353,1.353,0,0,0-1.06.478A2.131,2.131,0,0,0,172.214-2.513ZM177.522,0V-5.027h.767v.715a1.807,1.807,0,0,1,1.6-.828,2.1,2.1,0,0,1,.835.163,1.314,1.314,0,0,1,.57.428,1.644,1.644,0,0,1,.265.63,4.878,4.878,0,0,1,.047.828V0h-.852V-3.058a2.3,2.3,0,0,0-.1-.779.819.819,0,0,0-.353-.412,1.122,1.122,0,0,0-.594-.154,1.38,1.38,0,0,0-.94.346,1.7,1.7,0,0,0-.4,1.311V0Zm7.323,0,2.665-6.939h.989L191.338,0h-1.046l-.809-2.1h-2.9L185.819,0Zm2-2.849H189.2l-.724-1.922q-.331-.876-.492-1.439a8.848,8.848,0,0,1-.374,1.325ZM192.292.417l.828.123a.789.789,0,0,0,.289.559,1.418,1.418,0,0,0,.866.237,1.521,1.521,0,0,0,.913-.237,1.165,1.165,0,0,0,.435-.663,5.442,5.442,0,0,0,.062-1.093A1.752,1.752,0,0,1,194.294,0a1.9,1.9,0,0,1-1.6-.748,2.88,2.88,0,0,1-.568-1.794,3.339,3.339,0,0,1,.26-1.328,2.083,2.083,0,0,1,.755-.94A2.038,2.038,0,0,1,194.3-5.14a1.8,1.8,0,0,1,1.467.719v-.606h.786V-.682a4.121,4.121,0,0,1-.239,1.664,1.748,1.748,0,0,1-.757.774,2.625,2.625,0,0,1-1.276.284,2.4,2.4,0,0,1-1.453-.4A1.368,1.368,0,0,1,192.292.417ZM193-2.6a2.181,2.181,0,0,0,.393,1.444,1.247,1.247,0,0,0,.984.454,1.259,1.259,0,0,0,.984-.452,2.11,2.11,0,0,0,.4-1.418,2.061,2.061,0,0,0-.409-1.392,1.266,1.266,0,0,0-.987-.469,1.23,1.23,0,0,0-.966.461A2.049,2.049,0,0,0,193-2.6Zm8.758.984.88.109a2.148,2.148,0,0,1-.771,1.2,2.319,2.319,0,0,1-1.439.426,2.3,2.3,0,0,1-1.749-.679,2.654,2.654,0,0,1-.646-1.905,2.777,2.777,0,0,1,.653-1.969,2.211,2.211,0,0,1,1.694-.7,2.149,2.149,0,0,1,1.647.686,2.727,2.727,0,0,1,.639,1.931q0,.076,0,.227H198.91a1.932,1.932,0,0,0,.469,1.268,1.4,1.4,0,0,0,1.051.44,1.3,1.3,0,0,0,.8-.246A1.634,1.634,0,0,0,201.755-1.619ZM198.958-3h2.807a1.7,1.7,0,0,0-.322-.951,1.306,1.306,0,0,0-1.055-.492,1.353,1.353,0,0,0-.987.393A1.555,1.555,0,0,0,198.958-3Zm5.222,3V-5.027h.767v.715a1.807,1.807,0,0,1,1.6-.828,2.1,2.1,0,0,1,.835.163,1.314,1.314,0,0,1,.57.428,1.644,1.644,0,0,1,.265.63,4.878,4.878,0,0,1,.047.828V0h-.852V-3.058a2.3,2.3,0,0,0-.1-.779.819.819,0,0,0-.353-.412,1.122,1.122,0,0,0-.594-.154,1.38,1.38,0,0,0-.94.346,1.7,1.7,0,0,0-.4,1.311V0Zm9.146-1.841.838.109a2.173,2.173,0,0,1-.7,1.356,2.048,2.048,0,0,1-1.389.49,2.158,2.158,0,0,1-1.659-.674,2.737,2.737,0,0,1-.627-1.933,3.5,3.5,0,0,1,.27-1.425,1.881,1.881,0,0,1,.821-.916,2.436,2.436,0,0,1,1.2-.305,2.086,2.086,0,0,1,1.339.414,1.9,1.9,0,0,1,.667,1.176l-.828.128a1.375,1.375,0,0,0-.419-.762,1.084,1.084,0,0,0-.727-.256,1.322,1.322,0,0,0-1.046.461,2.191,2.191,0,0,0-.4,1.46,2.265,2.265,0,0,0,.388,1.472,1.263,1.263,0,0,0,1.013.459,1.194,1.194,0,0,0,.838-.308A1.527,1.527,0,0,0,213.326-1.841Zm2,3.777-.095-.8a1.9,1.9,0,0,0,.488.076.936.936,0,0,0,.454-.095.774.774,0,0,0,.279-.265,4.181,4.181,0,0,0,.26-.634q.024-.071.076-.208l-1.907-5.036h.918l1.046,2.911q.2.554.364,1.164a11.465,11.465,0,0,1,.35-1.145l1.074-2.93h.852L217.578.085a10.033,10.033,0,0,1-.478,1.141,1.683,1.683,0,0,1-.521.618,1.23,1.23,0,0,1-.7.2A1.706,1.706,0,0,1,215.33,1.936ZM219.485,0V-.97h.97V0a1.722,1.722,0,0,1-.189.864,1.234,1.234,0,0,1-.6.509l-.237-.364a.809.809,0,0,0,.4-.348,1.483,1.483,0,0,0,.142-.66Zm11.193-2.433.918.232a3.091,3.091,0,0,1-1.039,1.725,2.863,2.863,0,0,1-1.834.594A3.3,3.3,0,0,1,226.9-.338a2.852,2.852,0,0,1-1.07-1.323,4.72,4.72,0,0,1-.367-1.86,4.089,4.089,0,0,1,.414-1.891,2.838,2.838,0,0,1,1.179-1.226,3.444,3.444,0,0,1,1.683-.419,2.845,2.845,0,0,1,1.751.53,2.753,2.753,0,0,1,.989,1.491l-.9.213a2.145,2.145,0,0,0-.7-1.1,1.867,1.867,0,0,0-1.155-.346,2.243,2.243,0,0,0-1.337.383,2.025,2.025,0,0,0-.755,1.029,4.144,4.144,0,0,0-.218,1.332,4.234,4.234,0,0,0,.258,1.545,1.922,1.922,0,0,0,.8.987,2.25,2.25,0,0,0,1.179.327,1.975,1.975,0,0,0,1.306-.445A2.277,2.277,0,0,0,230.678-2.433Zm2.1-.08a2.591,2.591,0,0,1,.776-2.068,2.339,2.339,0,0,1,1.581-.559,2.255,2.255,0,0,1,1.694.679,2.584,2.584,0,0,1,.658,1.877,3.325,3.325,0,0,1-.291,1.526,2.061,2.061,0,0,1-.847.864,2.467,2.467,0,0,1-1.214.308,2.26,2.26,0,0,1-1.706-.677A2.7,2.7,0,0,1,232.776-2.513Zm.876,0a2.141,2.141,0,0,0,.421,1.446,1.35,1.35,0,0,0,1.06.48,1.343,1.343,0,0,0,1.055-.483,2.192,2.192,0,0,0,.421-1.472,2.077,2.077,0,0,0-.424-1.413,1.347,1.347,0,0,0-1.053-.48,1.353,1.353,0,0,0-1.06.478A2.131,2.131,0,0,0,233.652-2.513ZM242.254,0V-.738a1.84,1.84,0,0,1-1.6.852,2.033,2.033,0,0,1-.831-.17,1.368,1.368,0,0,1-.573-.428,1.605,1.605,0,0,1-.263-.632,4.326,4.326,0,0,1-.052-.8V-5.027h.852v2.788a4.968,4.968,0,0,0,.052.9.888.888,0,0,0,.341.528,1.056,1.056,0,0,0,.644.192,1.4,1.4,0,0,0,.719-.2,1.092,1.092,0,0,0,.476-.535,2.684,2.684,0,0,0,.14-.982V-5.027h.852V0Zm2.572,0V-5.027h.767v.715a1.807,1.807,0,0,1,1.6-.828,2.1,2.1,0,0,1,.835.163,1.314,1.314,0,0,1,.57.428,1.644,1.644,0,0,1,.265.63,4.878,4.878,0,0,1,.047.828V0h-.852V-3.058a2.3,2.3,0,0,0-.1-.779.819.819,0,0,0-.353-.412,1.122,1.122,0,0,0-.594-.154,1.38,1.38,0,0,0-.94.346,1.7,1.7,0,0,0-.4,1.311V0Zm9.146-1.841.838.109a2.173,2.173,0,0,1-.7,1.356,2.048,2.048,0,0,1-1.389.49,2.158,2.158,0,0,1-1.659-.674,2.737,2.737,0,0,1-.627-1.933,3.5,3.5,0,0,1,.27-1.425,1.881,1.881,0,0,1,.821-.916,2.436,2.436,0,0,1,1.2-.305,2.086,2.086,0,0,1,1.339.414,1.9,1.9,0,0,1,.667,1.176l-.828.128a1.375,1.375,0,0,0-.419-.762,1.084,1.084,0,0,0-.727-.256,1.322,1.322,0,0,0-1.046.461,2.191,2.191,0,0,0-.4,1.46,2.265,2.265,0,0,0,.388,1.472,1.263,1.263,0,0,0,1.013.459,1.194,1.194,0,0,0,.838-.308A1.527,1.527,0,0,0,253.971-1.841Zm2.046-4.118v-.98h.852v.98Zm0,5.959V-5.027h.852V0Zm2.6,0V-6.939h.852V0Zm5.508-2.513a2.591,2.591,0,0,1,.776-2.068,2.339,2.339,0,0,1,1.581-.559,2.255,2.255,0,0,1,1.694.679,2.584,2.584,0,0,1,.658,1.877,3.325,3.325,0,0,1-.291,1.526,2.061,2.061,0,0,1-.847.864,2.467,2.467,0,0,1-1.214.308,2.259,2.259,0,0,1-1.706-.677A2.7,2.7,0,0,1,264.131-2.513Zm.876,0a2.141,2.141,0,0,0,.421,1.446,1.35,1.35,0,0,0,1.06.48,1.343,1.343,0,0,0,1.056-.483,2.192,2.192,0,0,0,.421-1.472,2.077,2.077,0,0,0-.424-1.413,1.347,1.347,0,0,0-1.053-.48,1.353,1.353,0,0,0-1.06.478A2.131,2.131,0,0,0,265.007-2.513ZM270.518,0V-4.364h-.753v-.663h.753v-.535a2.341,2.341,0,0,1,.09-.753,1.089,1.089,0,0,1,.433-.537,1.561,1.561,0,0,1,.869-.206,4.17,4.17,0,0,1,.8.085l-.128.743a2.859,2.859,0,0,0-.5-.047.747.747,0,0,0-.549.166.9.9,0,0,0-.161.62v.464h.98v.663h-.98V0Zm4.431,0,2.665-6.939h.989L281.443,0H280.4l-.809-2.1h-2.9L275.924,0Zm2-2.849H279.3l-.724-1.922q-.331-.876-.492-1.439a8.846,8.846,0,0,1-.374,1.325ZM282.4.417l.828.123a.789.789,0,0,0,.289.559,1.418,1.418,0,0,0,.866.237,1.521,1.521,0,0,0,.914-.237,1.165,1.165,0,0,0,.435-.663,5.441,5.441,0,0,0,.062-1.093A1.752,1.752,0,0,1,284.4,0a1.9,1.9,0,0,1-1.6-.748,2.88,2.88,0,0,1-.568-1.794,3.339,3.339,0,0,1,.26-1.328,2.083,2.083,0,0,1,.755-.94A2.038,2.038,0,0,1,284.4-5.14a1.8,1.8,0,0,1,1.467.719v-.606h.786V-.682a4.121,4.121,0,0,1-.239,1.664,1.748,1.748,0,0,1-.757.774,2.625,2.625,0,0,1-1.276.284,2.4,2.4,0,0,1-1.453-.4A1.368,1.368,0,0,1,282.4.417ZM283.1-2.6a2.181,2.181,0,0,0,.393,1.444,1.247,1.247,0,0,0,.984.454,1.259,1.259,0,0,0,.984-.452,2.11,2.11,0,0,0,.4-1.418,2.061,2.061,0,0,0-.409-1.392,1.266,1.266,0,0,0-.987-.469,1.23,1.23,0,0,0-.966.461A2.049,2.049,0,0,0,283.1-2.6ZM288.409,0V-5.027h.767v.762a2.079,2.079,0,0,1,.542-.705.946.946,0,0,1,.547-.17,1.662,1.662,0,0,1,.876.275l-.293.79a1.219,1.219,0,0,0-.625-.185.811.811,0,0,0-.5.168.91.91,0,0,0-.317.466,3.318,3.318,0,0,0-.142.994V0Zm3.717-5.959v-.98h.852v.98Zm0,5.959V-5.027h.852V0Zm5.9-1.841.838.109a2.173,2.173,0,0,1-.7,1.356,2.048,2.048,0,0,1-1.389.49,2.158,2.158,0,0,1-1.659-.674,2.737,2.737,0,0,1-.627-1.933,3.5,3.5,0,0,1,.27-1.425,1.881,1.881,0,0,1,.821-.916,2.437,2.437,0,0,1,1.2-.305,2.086,2.086,0,0,1,1.339.414,1.9,1.9,0,0,1,.667,1.176l-.828.128a1.375,1.375,0,0,0-.419-.762,1.084,1.084,0,0,0-.727-.256,1.322,1.322,0,0,0-1.046.461,2.191,2.191,0,0,0-.4,1.46,2.265,2.265,0,0,0,.388,1.472,1.263,1.263,0,0,0,1.013.459,1.194,1.194,0,0,0,.838-.308A1.527,1.527,0,0,0,298.03-1.841ZM303.366,0V-.738a1.84,1.84,0,0,1-1.6.852,2.033,2.033,0,0,1-.831-.17,1.368,1.368,0,0,1-.573-.428,1.605,1.605,0,0,1-.263-.632,4.327,4.327,0,0,1-.052-.8V-5.027h.852v2.788a4.969,4.969,0,0,0,.052.9.889.889,0,0,0,.341.528,1.056,1.056,0,0,0,.644.192,1.4,1.4,0,0,0,.719-.2,1.092,1.092,0,0,0,.476-.535,2.684,2.684,0,0,0,.14-.982V-5.027h.852V0Zm2.553,0V-6.939h.852V0Zm4.508-.762.123.753a3.16,3.16,0,0,1-.644.076,1.457,1.457,0,0,1-.719-.147.822.822,0,0,1-.36-.386,3.05,3.05,0,0,1-.1-1.006V-4.364H308.1v-.663h.625V-6.271l.847-.511v1.756h.857v.663h-.857v2.939a1.484,1.484,0,0,0,.045.469.355.355,0,0,0,.147.166.567.567,0,0,0,.291.062A2.772,2.772,0,0,0,310.426-.762ZM315.038,0V-.738a1.84,1.84,0,0,1-1.6.852,2.033,2.033,0,0,1-.831-.17,1.368,1.368,0,0,1-.573-.428,1.605,1.605,0,0,1-.263-.632,4.327,4.327,0,0,1-.052-.8V-5.027h.852v2.788a4.969,4.969,0,0,0,.052.9.889.889,0,0,0,.341.528,1.056,1.056,0,0,0,.644.192,1.4,1.4,0,0,0,.719-.2,1.092,1.092,0,0,0,.476-.535,2.684,2.684,0,0,0,.14-.982V-5.027h.852V0ZM317.6,0V-5.027h.767v.762a2.079,2.079,0,0,1,.542-.705.946.946,0,0,1,.547-.17,1.662,1.662,0,0,1,.876.275l-.293.79a1.219,1.219,0,0,0-.625-.185.811.811,0,0,0-.5.168.91.91,0,0,0-.317.466,3.318,3.318,0,0,0-.142.994V0Zm7.153-1.619.88.109a2.148,2.148,0,0,1-.772,1.2,2.319,2.319,0,0,1-1.439.426,2.3,2.3,0,0,1-1.749-.679,2.654,2.654,0,0,1-.646-1.905,2.777,2.777,0,0,1,.653-1.969,2.211,2.211,0,0,1,1.694-.7,2.149,2.149,0,0,1,1.647.686,2.727,2.727,0,0,1,.639,1.931q0,.076,0,.227h-3.749a1.932,1.932,0,0,0,.469,1.268,1.4,1.4,0,0,0,1.051.44,1.3,1.3,0,0,0,.8-.246A1.634,1.634,0,0,0,324.754-1.619ZM321.957-3h2.807a1.7,1.7,0,0,0-.322-.951,1.306,1.306,0,0,0-1.055-.492,1.353,1.353,0,0,0-.987.393A1.555,1.555,0,0,0,321.957-3Zm8.528,3V-6.939H335.5v.819h-4.1v2.125h3.839v.814H331.4V-.819h4.26V0Zm6.254,0,1.836-2.613-1.7-2.414h1.065l.771,1.179q.218.336.35.563.208-.312.383-.554l.847-1.188h1.018L339.574-2.66,341.444,0H340.4l-1.032-1.562-.275-.421L337.771,0Zm9.331-1.619.88.109a2.148,2.148,0,0,1-.772,1.2,2.319,2.319,0,0,1-1.439.426,2.3,2.3,0,0,1-1.749-.679,2.654,2.654,0,0,1-.646-1.905A2.777,2.777,0,0,1,343-4.44a2.211,2.211,0,0,1,1.694-.7,2.149,2.149,0,0,1,1.647.686,2.727,2.727,0,0,1,.639,1.931q0,.076,0,.227h-3.749a1.932,1.932,0,0,0,.469,1.268,1.4,1.4,0,0,0,1.051.44,1.3,1.3,0,0,0,.8-.246A1.634,1.634,0,0,0,346.07-1.619ZM343.272-3h2.807a1.7,1.7,0,0,0-.322-.951A1.306,1.306,0,0,0,344.7-4.44a1.353,1.353,0,0,0-.987.393A1.555,1.555,0,0,0,343.272-3Zm8.5,1.155.838.109a2.173,2.173,0,0,1-.7,1.356,2.048,2.048,0,0,1-1.389.49,2.158,2.158,0,0,1-1.659-.674,2.737,2.737,0,0,1-.627-1.933,3.5,3.5,0,0,1,.27-1.425,1.881,1.881,0,0,1,.821-.916,2.437,2.437,0,0,1,1.2-.305,2.086,2.086,0,0,1,1.339.414,1.9,1.9,0,0,1,.667,1.176l-.828.128a1.375,1.375,0,0,0-.419-.762,1.084,1.084,0,0,0-.727-.256,1.322,1.322,0,0,0-1.046.461,2.191,2.191,0,0,0-.4,1.46,2.265,2.265,0,0,0,.388,1.472,1.263,1.263,0,0,0,1.013.459,1.194,1.194,0,0,0,.838-.308A1.527,1.527,0,0,0,351.775-1.841ZM357.111,0V-.738a1.84,1.84,0,0,1-1.6.852,2.033,2.033,0,0,1-.831-.17,1.368,1.368,0,0,1-.573-.428,1.605,1.605,0,0,1-.263-.632,4.327,4.327,0,0,1-.052-.8V-5.027h.852v2.788a4.969,4.969,0,0,0,.052.9.889.889,0,0,0,.341.528,1.056,1.056,0,0,0,.644.192,1.4,1.4,0,0,0,.719-.2,1.092,1.092,0,0,0,.476-.535,2.684,2.684,0,0,0,.14-.982V-5.027h.852V0Zm4.432-.762.123.753a3.16,3.16,0,0,1-.644.076A1.457,1.457,0,0,1,360.3-.08a.822.822,0,0,1-.36-.386,3.05,3.05,0,0,1-.1-1.006V-4.364h-.625v-.663h.625V-6.271l.847-.511v1.756h.857v.663h-.857v2.939a1.484,1.484,0,0,0,.045.469.355.355,0,0,0,.147.166.567.567,0,0,0,.291.062A2.772,2.772,0,0,0,361.543-.762Zm1.322-5.2v-.98h.852v.98Zm0,5.959V-5.027h.852V0Zm4.02,0-1.912-5.027h.9l1.079,3.01q.175.488.322,1.013.114-.4.317-.956l1.117-3.067h.876L367.68,0Zm7.366-1.619.88.109a2.148,2.148,0,0,1-.772,1.2,2.319,2.319,0,0,1-1.439.426,2.3,2.3,0,0,1-1.749-.679,2.654,2.654,0,0,1-.646-1.905,2.777,2.777,0,0,1,.653-1.969,2.211,2.211,0,0,1,1.694-.7,2.149,2.149,0,0,1,1.647.686,2.727,2.727,0,0,1,.639,1.931q0,.076,0,.227h-3.749a1.932,1.932,0,0,0,.469,1.268,1.4,1.4,0,0,0,1.051.44,1.3,1.3,0,0,0,.8-.246A1.634,1.634,0,0,0,374.252-1.619ZM371.454-3h2.807a1.7,1.7,0,0,0-.322-.951,1.306,1.306,0,0,0-1.055-.492,1.353,1.353,0,0,0-.987.393A1.555,1.555,0,0,0,371.454-3Zm10.1,3V-2.939l-2.674-4H380l1.368,2.092q.379.587.705,1.174.312-.544.757-1.226l1.344-2.04h1.07l-2.769,4V0Zm7.113,0V-.738a1.84,1.84,0,0,1-1.6.852,2.033,2.033,0,0,1-.831-.17,1.368,1.368,0,0,1-.573-.428,1.605,1.605,0,0,1-.263-.632,4.327,4.327,0,0,1-.052-.8V-5.027h.852v2.788a4.969,4.969,0,0,0,.052.9.889.889,0,0,0,.341.528,1.056,1.056,0,0,0,.644.192,1.4,1.4,0,0,0,.719-.2,1.092,1.092,0,0,0,.476-.535,2.684,2.684,0,0,0,.14-.982V-5.027h.852V0Zm5.852-.62a3.172,3.172,0,0,1-.911.568,2.633,2.633,0,0,1-.94.166,1.827,1.827,0,0,1-1.273-.4,1.336,1.336,0,0,1-.445-1.034A1.375,1.375,0,0,1,391.123-2a1.391,1.391,0,0,1,.44-.49,2.07,2.07,0,0,1,.613-.279,6.088,6.088,0,0,1,.757-.128,7.787,7.787,0,0,0,1.519-.293q0-.175,0-.222a.941.941,0,0,0-.241-.734,1.426,1.426,0,0,0-.97-.289,1.5,1.5,0,0,0-.887.211,1.287,1.287,0,0,0-.424.745l-.833-.114a2.064,2.064,0,0,1,.374-.864,1.639,1.639,0,0,1,.753-.506,3.357,3.357,0,0,1,1.141-.177,3.019,3.019,0,0,1,1.046.151,1.378,1.378,0,0,1,.592.381,1.34,1.34,0,0,1,.265.58,4.8,4.8,0,0,1,.043.786v1.136a12.059,12.059,0,0,0,.054,1.5,1.9,1.9,0,0,0,.215.6h-.89A1.806,1.806,0,0,1,394.523-.62Zm-.071-1.9a6.251,6.251,0,0,1-1.392.322,3.219,3.219,0,0,0-.743.17.741.741,0,0,0-.336.277.727.727,0,0,0-.118.4.726.726,0,0,0,.258.568,1.11,1.11,0,0,0,.755.227,1.757,1.757,0,0,0,.876-.215,1.326,1.326,0,0,0,.563-.589,2.058,2.058,0,0,0,.137-.852ZM397.109,0V-5.027h.767v.715a1.807,1.807,0,0,1,1.6-.828,2.1,2.1,0,0,1,.835.163,1.314,1.314,0,0,1,.57.428,1.644,1.644,0,0,1,.265.63,4.878,4.878,0,0,1,.047.828V0h-.852V-3.058a2.3,2.3,0,0,0-.1-.779.819.819,0,0,0-.353-.412A1.122,1.122,0,0,0,399.3-4.4a1.38,1.38,0,0,0-.94.346,1.7,1.7,0,0,0-.4,1.311V0Z" transform="translate(54.211 46.25)" fill="#808183"/>
      </g>
    </g>
  </g>
</svg>
