<svg xmlns="http://www.w3.org/2000/svg" width="246.991" height="72.411" viewBox="0 0 246.991 72.411">
  <g id="logo-platform" transform="translate(0.003)">
    <g id="Group_457" data-name="Group 457">
      <g id="Group_456" data-name="Group 456">
        <path id="Path_485" data-name="Path 485" d="M67.11,25.66A25.232,25.232,0,0,1,44.59,35.69s-14.31-.17-21.83-15.56c0,0-4.45-10.09-12.31-9.12,0,0-8.09,1.77-7.41,11.51,0,0,1.31,10.09,16.42,16.53,0,0,33.97,12.88,47.65-13.39Z" fill="#fff" stroke="#fff" stroke-linecap="round" stroke-linejoin="round" stroke-width="6"/>
        <path id="Path_486" data-name="Path 486" d="M41.57,40.65S26.69,38.6,19,21.55c0,0-4.73-8.61-10.72-5.3,0,0-5.6,3.48-1.88,10.32,0,0,10.2,17.66,35.17,14.07Z" fill="#fff" stroke="#fff" stroke-linecap="round" stroke-linejoin="round" stroke-width="6"/>
        <path id="Path_487" data-name="Path 487" d="M33.14,40.14A33.712,33.712,0,0,1,19.52,25.49s-4.56-8.55-11-4.39c0,0-4.33,3.19,1.77,9.41a40.151,40.151,0,0,0,22.86,9.63Z" fill="#fff" stroke="#fff" stroke-linecap="round" stroke-linejoin="round" stroke-width="6"/>
        <path id="Path_488" data-name="Path 488" d="M39.63,30.27S29.88,28.05,27.77,6.79a3.509,3.509,0,0,0-3.76-3.25s-3.65.51-2.85,6.78c0,0,1.94,14.65,18.47,19.95Z" fill="#fff" stroke="#fff" stroke-linecap="round" stroke-linejoin="round" stroke-width="6"/>
        <path id="Path_489" data-name="Path 489" d="M51.78,33.98s-7.13-14.31,7.64-21.83c0,0,5.41-3.08,5.59-5.87,0,0,5.87,21.15-10.55,25.93a20.515,20.515,0,0,1,3.58-11.34s-6.21,3.76-6.26,13.11Z" fill="#fff" stroke="#fff" stroke-linecap="round" stroke-linejoin="round" stroke-width="6"/>
        <path id="Path_490" data-name="Path 490" d="M53.81,11.19a3.655,3.655,0,1,1-3.65-3.66A3.66,3.66,0,0,1,53.81,11.19Z" fill="#fff" stroke="#fff" stroke-linecap="round" stroke-linejoin="round" stroke-width="6"/>
        <path id="Path_491" data-name="Path 491" d="M46.5,18.65a40.7,40.7,0,0,1,.47,8.78,31.145,31.145,0,0,0,.3-4.51c-.05-6.05-2.34-9.5-4.4-11.38A16.414,16.414,0,0,1,46.5,18.65Z" fill="#fff" stroke="#fff" stroke-linecap="round" stroke-linejoin="round" stroke-width="6"/>
        <path id="Path_492" data-name="Path 492" d="M46.18,24.18a19.512,19.512,0,0,0-4.09-13.29A9.043,9.043,0,0,0,39.63,9.5C32.93,6.51,30.94,3,30.94,3,28.29,23.61,41.2,27.88,41.2,27.88a30.562,30.562,0,0,1,4.65,2.13c.53-8.55-9.91-13.49-9.91-13.49a17.619,17.619,0,0,1,9.86,8.15,14.788,14.788,0,0,0-1.98-5.81,1.612,1.612,0,0,1-1.48-.11,4.129,4.129,0,0,1-.91-.96,1.438,1.438,0,0,1,1.46,0,3.762,3.762,0,0,1,.97.98l.08-.04c-.06-.09-.12-.17-.17-.26-.16-.27-.32-.54-.46-.83a1.625,1.625,0,0,1-.04-1.09,1.2,1.2,0,0,1,.15-.36c.18.19.37.37.54.56a1.836,1.836,0,0,1,.55,1.13,1.954,1.954,0,0,1-.31,1.05,19.643,19.643,0,0,1,1.98,5.25ZM40.14,13.03l.02-.11.02-.05a3.031,3.031,0,0,1,1.31,1.15,1.717,1.717,0,0,1-.04,1.45c-.26-.25-.5-.47-.72-.71a3.281,3.281,0,0,1-.44-.56,1.855,1.855,0,0,1-.16-1.17Zm-1.92-1.44c1.46.59,1.89,1.27,1.56,2.41a5.1,5.1,0,0,1-.42-.31,11.459,11.459,0,0,1-.87-.83,1.533,1.533,0,0,1-.27-.89c-.01-.12,0-.24,0-.38Zm-.26,1.15a5.167,5.167,0,0,1-1.43-.98,1.782,1.782,0,0,1-.39-1.23c1.44.39,2.01.97,1.82,2.2Zm-1.97-1.06c-1.08-.39-2.03-.87-2.02-1.97C35.34,9.84,36.25,10.73,35.99,11.68Zm-4.37-1.12c-.06-.06-.12-.11-.18-.17a1.967,1.967,0,0,1,2.78.73,1.948,1.948,0,0,1-1.36.17,2.946,2.946,0,0,1-1.23-.73Zm2.52,1.91c-.31-.11-.6-.24-.9-.35-.1-.04-.1-.08,0-.15a6.578,6.578,0,0,1,.61-.42.916.916,0,0,1,.56-.11,4.029,4.029,0,0,1,1.49.49,1.689,1.689,0,0,1-1.75.55Zm2.11.91a4.7,4.7,0,0,1-1.14-.58,1.577,1.577,0,0,1,1.59-.44,5.038,5.038,0,0,1,1.15.6,5.7,5.7,0,0,1-.58.33,1.41,1.41,0,0,1-1.02.09Zm1.82,1.09a4.543,4.543,0,0,1-1.11-.73,1.55,1.55,0,0,1,1.47-.32,4.334,4.334,0,0,1,1.19.76A1.769,1.769,0,0,1,38.07,14.47Zm1.57,1.22c-.33-.24-.61-.51-.92-.77l-.02-.04a1.548,1.548,0,0,1,1.38-.19,4.048,4.048,0,0,1,1.16.9l.02.04a1.6,1.6,0,0,1-1.62.07Zm1.4,1.49a3.82,3.82,0,0,1-.84-.96,1.26,1.26,0,0,1,1.36,0c.42.28.48.64.89,1.02v.02a1.4,1.4,0,0,1-1.41-.08Zm1.91-.07c-.15-.18-.3-.33-.43-.5a8.229,8.229,0,0,1-.53-.78,1.654,1.654,0,0,1-.14-1.08,1.273,1.273,0,0,1,.12-.38c.2.17.4.33.59.51a1.821,1.821,0,0,1,.64,1.07,1.978,1.978,0,0,1-.26,1.16Z" fill="#fff" stroke="#fff" stroke-linecap="round" stroke-linejoin="round" stroke-width="6"/>
        <path id="Path_493" data-name="Path 493" d="M30.58,24.85s-8.19-6.03-8.62-15.52c0,0,.05-3.15,2.95-2.69a3.3,3.3,0,0,1,1.71,3.38s.48,9.49,3.96,14.66" fill="#fff" stroke="#fff" stroke-linecap="round" stroke-linejoin="round" stroke-width="6"/>
        <path id="Path_494" data-name="Path 494" d="M28.46,22.41a19.76,19.76,0,0,1-5.77-11.47S22.6,8.81,24.1,8.81c0,0,1.5.34,1.2,2.37,0,0-1.16,7.03,3.16,11.22Z" fill="#fff" stroke="#fff" stroke-linecap="round" stroke-linejoin="round" stroke-width="6"/>
      </g>
      <path id="Path_495" data-name="Path 495" d="M96.29,28.6a1.932,1.932,0,0,1,.25,1.03,1.165,1.165,0,0,1-.5.91A1.042,1.042,0,0,1,94.51,30c-.97-2.04-2.89-3.92-5.79-5.66V39.15c-.03.63-.03,1.38,0,2.23a1.3,1.3,0,0,1-.29.83,1.393,1.393,0,0,1-.83.21,1.473,1.473,0,0,1-.74-.17,9.3,9.3,0,0,1-.25-3.06V21.46q-3.675,9.015-8.8,13.64c-.33.22-.58.23-.74.04-.16-.25-.11-.51.17-.79q5.085-5.325,8.35-15.75H78.44a.6.6,0,0,1-.41-.21,5.161,5.161,0,0,1-.37-.7q-.12-.21.12-.21h8.84V9.63c-2.45.47-5.96.91-8.22,1.08-.5.03-.76-.1-.79-.37-.03-.33.21-.51.7-.54,5.81-.96,12.09-2.98,15.07-4.88.36-.3.62-.4.79-.29.74.52,1.42.99,2.02,1.4.47.3.62.62.45.95q-.255.45-.99.33c-.5-.25-3.3.66-6.93,1.82v8.35h3.27a1.878,1.878,0,0,0,1.03-.33c.58-.55,1.17-1.09,1.78-1.61a.476.476,0,0,1,.7-.04c.74.55,1.5,1.17,2.27,1.86.39.33.52.63.41.91a.51.51,0,0,1-.54.33H88.71v4.7c3.88,1.3,6.41,3.06,7.56,5.29Zm5.13-19.62c.94.17,1.9.3,2.89.41.74.14,1.1.41,1.07.83q-.045.585-1.32.99c-.47.16-.7.41-.7.74V31.83a4.082,4.082,0,0,1-.33,1.94,1.217,1.217,0,0,1-.83.16,1,1,0,0,1-.7-.25,4.142,4.142,0,0,1-.25-2.02V11.26a14.323,14.323,0,0,0-.21-1.98c-.08-.22.04-.32.37-.29Zm7.51,33.39a1.626,1.626,0,0,0-.79-1.12,15.384,15.384,0,0,0-3.51-1.12c-.39-.06-.57-.26-.54-.62.06-.3.29-.44.7-.41,3.28.3,5.26.32,5.95.04.3-.16.47-.59.5-1.28V7.58a30.781,30.781,0,0,0-.17-3.14c-.06-.38.06-.56.33-.54.91.17,1.87.33,2.89.5q.87.12.87.87c0,.44-.41.76-1.24.95-.39.08-.58.45-.58,1.12V38.5a3.726,3.726,0,0,1-1.07,2.89,6.735,6.735,0,0,1-2.6,1.32c-.47.05-.72-.06-.74-.33Z" fill="#fff" stroke="#fff" stroke-linecap="round" stroke-linejoin="round" stroke-width="6"/>
      <path id="Path_496" data-name="Path 496" d="M201.03,31.33c.39-.42.86-.89,1.4-1.4a.375.375,0,0,1,.47,0,13.177,13.177,0,0,1,2.03,1.86c.25.25.34.48.25.68s-.31.31-.68.34H165.81a.6.6,0,0,1-.42-.21,6.167,6.167,0,0,1-.38-.72c-.08-.14-.04-.21.13-.21h3.9l-.93-22.69c-.11-.73-.23-1.37-.34-1.9-.03-.25.1-.32.38-.21.65.28,1.24.56,1.78.85a19.11,19.11,0,0,0,3.94-3.18c.25-.42.48-.58.68-.47.9.31,1.71.59,2.41.85.53.2.76.48.68.85a.68.68,0,0,1-.76.55,2.89,2.89,0,0,0-1.52.3,29.237,29.237,0,0,1-5.12,2.2l.25,6.1h1.78a10.314,10.314,0,0,0,1.99-1.52c.14-.14.27-.15.38-.04a11.724,11.724,0,0,1,1.82,1.69,1.029,1.029,0,0,1,.25.72c-.06.17-.27.27-.64.3h-5.54l.25,6.31h1.31a10.314,10.314,0,0,0,1.99-1.52c.14-.14.27-.15.38-.04a11.29,11.29,0,0,1,1.82,1.69,1.029,1.029,0,0,1,.25.72q-.09.255-.63.3h-5.08l.38,8.17h6.73V8.34a23.392,23.392,0,0,0-.17-2.63c-.03-.28.09-.37.34-.25a22.2,22.2,0,0,1,2.33,1.31h8.51a4.458,4.458,0,0,0,1.82-1.31.5.5,0,0,1,.59-.04,6.193,6.193,0,0,1,2.07,1.86.718.718,0,0,1-.21,1.14,4.826,4.826,0,0,0-.89.42c-.26.11-.38.48-.38,1.1V31.66h6.6l.21-8.34h-4.32a.6.6,0,0,1-.42-.21,6.167,6.167,0,0,1-.38-.72c-.08-.14-.04-.21.13-.21h5.04l.21-6.82h-4.57a.6.6,0,0,1-.42-.21,6.167,6.167,0,0,1-.38-.72c-.08-.14-.04-.21.13-.21h5.29l.21-6.48q.045-.51-.51-.51h-4.49l-.21-1.14h4.53a12.866,12.866,0,0,0,1.61-1.31.39.39,0,0,1,.51-.04,9,9,0,0,1,2.33,1.74c.56.79.2,1.37-1.1,1.74-.34.06-.52.31-.55.76l-.76,22.69a2.575,2.575,0,0,1,.42-.34Zm-22.99,2.45c.82.38,1.54.74,2.16,1.05.51.26.7.59.59,1.01a.939.939,0,0,1-.97.53,1.748,1.748,0,0,0-1.61.57,26.809,26.809,0,0,1-11.98,5.9c-.34.06-.52-.05-.55-.33a.484.484,0,0,1,.34-.62,27.316,27.316,0,0,0,11.26-7.67c.25-.42.51-.56.76-.43Zm2.03-2.11h9.69V8.17c0-.17-.18-.25-.55-.25h-9.14V31.67Zm4.11-19.98c.06-.06.72-.63,1.99-1.74a.375.375,0,0,1,.47,0,13.177,13.177,0,0,1,2.03,1.86c.25.25.34.48.25.68s-.31.31-.68.34h-6.35a.6.6,0,0,1-.42-.21,6.167,6.167,0,0,1-.38-.72c-.08-.14-.04-.21.13-.21h2.96Zm-.51,13.56v1.69a1.025,1.025,0,0,1-.25.76.848.848,0,0,1-.68.21,2.147,2.147,0,0,1-.85-.21,1,1,0,0,1-.21-.72V18.26a18.6,18.6,0,0,0-.17-2.37c-.06-.28.06-.37.34-.25.56.23,1.2.51,1.9.85h1.48a7.029,7.029,0,0,0,1.44-.89.42.42,0,0,1,.51-.08,12.179,12.179,0,0,1,1.78,1.23.747.747,0,0,1,.04,1.06,2.528,2.528,0,0,1-.72.42,2.406,2.406,0,0,0-.17,1.23v5.46c-.03,1.38-.14,2.16-.34,2.33a1.377,1.377,0,0,1-.8.21,1.244,1.244,0,0,1-.68-.17,1.809,1.809,0,0,1-.17-.97V25.26h-2.46Zm0-.36h2.46V18.84q0-.42-.51-.42h-1.95V24.9Zm14.67,12.74q4.755,2.055,5.4,4.14a1.285,1.285,0,0,1-.39,1.18,1.314,1.314,0,0,1-1.03.36,1.974,1.974,0,0,1-1.03-.55,27.866,27.866,0,0,0-10.94-6.65c-.36-.15-.52-.36-.49-.64a.552.552,0,0,1,.74-.23,42.452,42.452,0,0,1,7.75,2.37Z" fill="#fff" stroke="#fff" stroke-linecap="round" stroke-linejoin="round" stroke-width="6"/>
      <path id="Path_497" data-name="Path 497" d="M136.57,14.8H123.66l.21.71h8.86l.1.13c.24,2.06-.85,6.8-.85,6.8l.11-.31c-1.4,6.21-3.46,12.22-9.14,17.7-.66.45-.9.89-.7,1.31.11.24.32.28.62.11a42.367,42.367,0,0,0,7.01-7.03c5.3-7.18,6.66-17.29,6.91-19.42h-.2Z" fill="#fff" stroke="#fff" stroke-linecap="round" stroke-linejoin="round" stroke-width="6"/>
      <path id="Path_498" data-name="Path 498" d="M141.85,10.06V4.41l-2.18-.34c-.31-.03-.32.15-.26.54a26.68,26.68,0,0,1,.31,3.14V44.76c0-.14.52-.31.82-.5a3.105,3.105,0,0,0,1.31-2.89V10.06Z" fill="#fff" stroke="#fff" stroke-linecap="round" stroke-linejoin="round" stroke-width="6"/>
      <path id="Path_499" data-name="Path 499" d="M144.41,12.67h4.28s.8,22.02,11.5,28.38c0,0,.29.96-1.12.55,0,0-11.58-7.66-14.65-28.93Z" fill="#fff" stroke="#fff" stroke-linecap="round" stroke-linejoin="round" stroke-width="6"/>
      <path id="Path_500" data-name="Path 500" d="M157.94,12.69a2.43,2.43,0,1,1-2.43-2.43A2.433,2.433,0,0,1,157.94,12.69Z" fill="#fff" stroke="#fff" stroke-linecap="round" stroke-linejoin="round" stroke-width="6"/>
      <path id="Path_501" data-name="Path 501" d="M239.08,8.42h-5.76V5.36c-.71-.08-1.32-.17-2.06-.29-.31-.02-.74.04-.71.18a3.07,3.07,0,0,1-.07,1.14V8.41h-7.09V5.33a11.313,11.313,0,0,0-1.71-.26c-.31-.02-.56.04-.53.18.09.66.12,1.04.12,1.14V8.41h-8.51V18.78c0,.32-.06.54.12.66a1.421,1.421,0,0,0,.89.22,1.452,1.452,0,0,0,.84-.18.971.971,0,0,0,.28-.73v-.4h24.82v.88c0,.37.32.56.81.59.62.02,1.31-.03,1.31-.14V8.43h-2.75Zm-17.81,9.22h-6.38V14.09h6.38Zm0-4.25h-6.38V9.84h6.38Zm9.22,4.25H223.4V14.09h7.09Zm0-4.25H223.4V9.84h7.09Zm9.22,4.25h-6.38V14.09h6.38Zm0-4.25h-6.38V9.84h6.36c.31,0,.02-.2.02.02Z" fill="#fff" stroke="#fff" stroke-linecap="round" stroke-linejoin="round" stroke-width="6"/>
      <path id="Path_502" data-name="Path 502" d="M235.51,24.73H216.5c-.16,0-.21.24-.12.37a6.083,6.083,0,0,0,.37.77.565.565,0,0,0,.41.28h25.38V24.73h-7.03Z" fill="#fff" stroke="#fff" stroke-linecap="round" stroke-linejoin="round" stroke-width="6"/>
      <path id="Path_503" data-name="Path 503" d="M231.66,28.98H212.65c-.16,0-.21.14-.12.28a6.8,6.8,0,0,0,.37.82c.08.11.22.32.41.32h30.65V28.98Z" fill="#fff" stroke="#fff" stroke-linecap="round" stroke-linejoin="round" stroke-width="6"/>
      <path id="Path_504" data-name="Path 504" d="M228.24,21.18H211.15c-.17,0-.21.08-.12.22a7.262,7.262,0,0,0,.37.85c.08.11.22.35.41.35h32.14V21.18H228.23Z" fill="#fff" stroke="#fff" stroke-linecap="round" stroke-linejoin="round" stroke-width="6"/>
      <path id="Path_505" data-name="Path 505" d="M224.07,33.49s-.91.4.54.67c0,0,10.97,1.2,13.8,6.87H221.99V30.39h-3.54V42.44h24.44c-.82-1.42-6-9.35-18.81-8.96Z" fill="#fff" stroke="#fff" stroke-linecap="round" stroke-linejoin="round" stroke-width="6"/>
      <path id="Path_506" data-name="Path 506" d="M242.66,33.8a2.16,2.16,0,1,1-2.16-2.16A2.164,2.164,0,0,1,242.66,33.8Z" fill="#fff" stroke="#fff" stroke-linecap="round" stroke-linejoin="round" stroke-width="6"/>
      <path id="Path_507" data-name="Path 507" d="M213.27,21.89s-3.85,3.46-2.51,9.82c0,0,1.5,8.09-1.92,10.6,0,0-.27.52,1.12-.02,0,0,5.56-2.45,3.32-12.24,0,0-1.55-6.04,1.34-8.17h-1.34Z" fill="#fff" stroke="#fff" stroke-linecap="round" stroke-linejoin="round" stroke-width="6"/>
      <path id="Path_508" data-name="Path 508" d="M240.75,67.57V63.06h-6.9l-.34.05v4.46h7.24Zm-7.24,1.25-.13.24a1.423,1.423,0,0,1-1.03.06l-.13-.23V62.2l-.02-.2.11-.03c.32.17.7.38,1.14.62l.39.02h6.69l.8-.78a.206.206,0,0,1,.33,0l.78.8c.55.56.46.94-.29,1.14l-.11.15v4.96a.408.408,0,0,1-.23.33,1.2,1.2,0,0,1-.83.06.326.326,0,0,1-.23-.31V68h-7.24v.81Zm-1.79-7.86c-.16.02-.25.13-.26.33-.01.33-.14.5-.37.54-.24.02-.4-.13-.47-.46-.12-.54-.24-1.1-.37-1.66-.03-.12.05-.17.25-.16.82.09,1.7.15,2.62.18.24-.35.46-.7.67-1.06a24.856,24.856,0,0,0,1.74-4.75l.15-.08c.5.16.99.31,1.48.46.43.13.63.33.59.59q-.075.36-.78.36a.258.258,0,0,0-.26.18,13.674,13.674,0,0,1-2.95,4.31,34.91,34.91,0,0,0,8.06-.73,5.264,5.264,0,0,0-1.38-1.92l-.03-.2.21-.05a7.79,7.79,0,0,1,1.98,1.61c1.04,1.16,1.5,2.05,1.37,2.67a.531.531,0,0,1-.37.42.627.627,0,0,1-.55-.07,7.876,7.876,0,0,1-1.06-2.1,49.086,49.086,0,0,1-10.24,1.59Zm-18.24,1.97-.96.13-.18-.06c-.04-.16-.1-.35-.16-.55-.01-.05.05-.08.18-.06l1.12.11h5.6V55.58h-4.95l-.96.13-.18-.06c-.04-.16-.1-.35-.16-.55-.01-.05.05-.08.18-.07l1.12.11h9.59l.99-1.12h.24l1.4,1.04c.16.12.22.23.18.34a.365.365,0,0,1-.34.18h-5.83V62.5h4.2l.99-1.12h.24l1.4,1.04c.16.12.22.23.18.34a.365.365,0,0,1-.34.18h-6.67v5.97q0,.18-.24.33a1.049,1.049,0,0,1-.83.05c-.15-.05-.22-.14-.21-.24v-6.1h-5.6Zm8.67-6.12.21-.07a6.745,6.745,0,0,1,1.84,1.32c.99,1,1.45,1.79,1.38,2.38a.623.623,0,0,1-.36.46l-.18.03c-.37-.01-.73-.42-1.09-1.24A7.628,7.628,0,0,0,222.19,57l-.05-.2Zm-6.09-.28.15-.07q.615.225,1.17.39c.35.13.49.3.42.5s-.25.27-.55.23l-.2.08a10.76,10.76,0,0,1-3.68,4l-.26-.02.07-.24a9.972,9.972,0,0,0,2.78-4.43,1.632,1.632,0,0,0,.1-.46ZM203.5,67.22a.218.218,0,0,1,.24-.21,10.674,10.674,0,0,1,3.01.42c.94.3,1.5.67,1.68,1.09a.623.623,0,0,1-.1.5.579.579,0,0,1-.47.23,1.4,1.4,0,0,1-.67-.28,11.022,11.022,0,0,0-3.45-1.51q-.24-.045-.24-.24Zm-3.11-.52c.3.17.64.36,1.01.55.25.14.33.31.23.52s-.27.24-.5.13l-.29.03a10,10,0,0,1-4.41,1.3c-.16-.01-.24-.05-.24-.13-.01-.14.08-.21.28-.21a7.33,7.33,0,0,0,3.71-2.07l.23-.13Zm5.53-4.28V61.1H199.8l-.47.07v1.25Zm0,1.76V62.86h-6.59v1.32Zm0,1.69V64.62h-6.59v1.25Zm-6.59.86-.13.24a1.4,1.4,0,0,1-1.02.06l-.13-.23V60.24l-.02-.2.11-.03c.33.17.71.38,1.14.62l.52.02h5.91l.8-.78c.12-.11.23-.11.32,0l.78.8c.55.56.46.94-.29,1.14l-.11.15V66.6a.408.408,0,0,1-.23.33,1.2,1.2,0,0,1-.83.06.326.326,0,0,1-.23-.31v-.37h-6.59v.42Zm.46-6.48c-.13.02-.2-.02-.21-.11,0-.13.05-.2.16-.21a5.831,5.831,0,0,0,3.99-3.64l.16-.08c.34.16.7.33,1.09.49.33.14.46.33.39.55-.08.14-.27.21-.57.2a7.741,7.741,0,0,0,4.95,1.48c.13,0,.2.04.21.11l-.13.21a1.434,1.434,0,0,0-.83.98l-.21.1a7.432,7.432,0,0,1-4.44-2.52,6.73,6.73,0,0,1-4.56,2.46Zm.23-2.42-.21-.05.07-.21a5.31,5.31,0,0,0,1.98-3.76q.03-.2.18-.15c.45.13.88.26,1.3.39.41.11.6.28.55.5s-.28.35-.7.36c-.08.01-.25.23-.52.67h5.09l.8-.77.24.02.99,1.07c.23.26.27.49.13.7s-.36.24-.7.13a.488.488,0,0,0-.47.11c-.51.38-.97.7-1.37.96l-.26.02v-.24a9.61,9.61,0,0,0,.8-1.56h-5.19l-.42.05a5.8,5.8,0,0,1-2.29,1.76Zm-.78.11.21.02-.03.21a8.172,8.172,0,0,1-1.64,1.3q-.72.435-1.32.75c-.09.04-.12.14-.11.28a.49.49,0,0,1-.24.57c-.24.06-.43-.07-.57-.41a11.537,11.537,0,0,1-.55-1.27c-.04-.13-.01-.2.1-.21.32-.05.65-.12.98-.2a9.385,9.385,0,0,0,3.19-1.04Zm-2.75-2.29h.93l.96-1.07h.24l1.3.99c.16.12.22.23.18.34a.365.365,0,0,1-.34.18h-3.27l-.96.13-.18-.06c-.04-.16-.1-.35-.16-.55-.01-.05.05-.08.18-.07l1.12.11Zm-5.73,12.17V55.24H179.89l-.23.03V67.82h11.1Zm-11.1,1.09a.341.341,0,0,1-.18.29,1.375,1.375,0,0,1-.94,0,.305.305,0,0,1-.16-.29V54.08c0-.15.06-.18.2-.08.31.21.72.47,1.22.8h10.92l.76-.77.25.02.85.85a.665.665,0,0,1,.21.47c-.02.18-.22.33-.59.42a.248.248,0,0,0-.15.28V68.81a.337.337,0,0,1-.16.31,1.226,1.226,0,0,1-.99.03l-.13-.24v-.65h-11.1v.65Zm8.43-2.78V61.82h-5.34l-.41.05v4.26h5.74Zm-5.74.86-.13.24a1.4,1.4,0,0,1-1.02.06l-.13-.23V61.02l-.02-.2.11-.03q.435.225.99.54l.6.03h5.29l.59-.59h.28l.76.65a.585.585,0,0,1,.25.46c-.01.17-.17.3-.47.37l-.07.2v4.56a.316.316,0,0,1-.18.31,1.383,1.383,0,0,1-.91.08.271.271,0,0,1-.2-.28v-.57h-5.74v.42Zm3.86-2.23V63.18h-1.5l-.34.05v1.53Zm-1.84.7-.11.21a1.131,1.131,0,0,1-.91.06l-.13-.2V62.32l-.02-.18.1-.02a11.265,11.265,0,0,1,1.11.59l.31.02h1.45l.52-.5h.26l.68.59a.489.489,0,0,1,.23.41c-.01.16-.15.28-.42.34l-.06.18v1.68a.323.323,0,0,1-.16.28,1.147,1.147,0,0,1-.81.06.207.207,0,0,1-.18-.24V65.2h-1.84v.26Zm2.69-7.14V56.81h-3.25l-.41.05v1.46Zm-2.41.44H183.4v.23l-.13.24a1.4,1.4,0,0,1-1.02.06l-.13-.23V56.02l-.02-.2.11-.03q.435.225.99.54l.6.03h3.21l.59-.59h.28l.77.65a.574.574,0,0,1,.24.46c-.01.17-.17.3-.47.37l-.07.2v1.5a.316.316,0,0,1-.18.31,1.383,1.383,0,0,1-.91.08.271.271,0,0,1-.2-.28v-.31h-1.12v1.19h2.33l.7-.99.23.02.83.99.11.28-.23.15h-8.45l-1.06.13-.15-.03c-.05-.2-.1-.39-.15-.59-.01-.05.05-.08.18-.06l1.17.11h3.19V58.76Zm-14.01,4.1v.31a5.577,5.577,0,0,1-.26,1.74,3.127,3.127,0,0,1-2.06,1.89c-.15.04-.25.03-.29-.05l.1-.26a4.032,4.032,0,0,0,1.22-3.32V61.62c.01-.15.08-.19.21-.11.34.21.72.45,1.16.72h1.12l.36-.59.29-.05,1.01.75a.492.492,0,0,1,.23.44c-.01.22-.18.37-.52.47l-.08.16v.94a3.005,3.005,0,0,0,.06.67.329.329,0,0,0,.34.23,1.2,1.2,0,0,0,.55-.11.671.671,0,0,0,.32-.46c.08-.29.15-.58.23-.85q.045-.225.21-.24c.13.03.2.1.2.21.05.89.17,1.36.34,1.4a.541.541,0,0,1,.31.52.526.526,0,0,1-.24.5,3.721,3.721,0,0,1-1.82.31,1.7,1.7,0,0,1-1.46-.5,2.563,2.563,0,0,1-.33-1.43V62.66h-.9l-.29.05v.15Zm-4.51,2.54a8.388,8.388,0,0,0,.85-2.26l-.1-.08h-1.3l-.44.07a8.9,8.9,0,0,0,.99,2.28Zm-3.17.42h-.24l.05-.24a12.226,12.226,0,0,0,1.76-5l.13-.11c.48.14.94.27,1.4.37.31.09.45.26.41.52-.04.2-.25.29-.6.28l-.18.1c-.12.28-.24.57-.37.86l.28.02h1.38l.67-.85.21.02,1.11.88a.5.5,0,0,1,.2.49c-.03.21-.28.33-.73.37-.13.03-.2.09-.21.16a9.282,9.282,0,0,1-1.3,2.57l-.02.02a5.687,5.687,0,0,0,2.82,1.24,24.428,24.428,0,0,0,5.57-.2c.15-.02.23.02.24.13l-.15.28a1.372,1.372,0,0,0-.77,1.24l-.16.18c-1.12.01-2.1,0-2.95-.03-2.66-.18-4.43-.87-5.31-2.05a8.51,8.51,0,0,1-3.86,2.05l-.18-.1.1-.21a8.546,8.546,0,0,0,3.37-2.59,6.5,6.5,0,0,1-.91-2.46,7.26,7.26,0,0,1-1.74,2.07Zm1.55-6.48-.67.15-.15-.07a2.052,2.052,0,0,1-.18-.41l.1-.13.88.02,2.52-.1V57.74l-.02-.31.13-.11c.43.09.87.16,1.3.23.34.05.5.22.5.49-.01.25-.17.4-.47.44l-.16.18v.08l1.76-.08.8-.91c.13-.14.25-.16.36-.05l.96.94.05.26-.15.13-3.78.16a.86.86,0,0,0,.37.65,1.708,1.708,0,0,0,.64.18c2.05.19,3.35.13,3.91-.16a3.072,3.072,0,0,0,.47-1.01c.03-.13.1-.19.2-.18.12,0,.18.07.2.21.09.68.2,1.03.34,1.04a.45.45,0,0,1,.32.49c0,.26-.24.48-.73.62a15.281,15.281,0,0,1-3.29.23c-1.71-.01-2.76-.17-3.12-.47a1.6,1.6,0,0,1-.59-1.35v-.2l-2.51.1Zm-1.14-2.59h3.82V53.89l.1-.08c.43.08.88.15,1.35.23.42.08.63.23.63.47-.01.3-.22.48-.62.52l-.16.16v.07h2.08l1.07-1.11a.216.216,0,0,1,.34,0l1.46,1.06a.358.358,0,0,1,.16.33c-.03.1-.13.15-.29.16h-4.83v1.06h4.64l.78-.8.24.02,1.04,1.06c.23.25.29.48.18.68s-.36.24-.72.16a.448.448,0,0,0-.44.15,9.5,9.5,0,0,1-1.11.81c-.13.06-.22.08-.26.03l-.03-.24a8.084,8.084,0,0,0,.49-1.43h-9.94l-.36.05.02.08v1.99c-.01,1.33-.07,2.59-.16,3.76-.32,2.85-1.04,4.82-2.15,5.89-.13.09-.23.09-.31.02a10.666,10.666,0,0,1,.44-1.25,28.835,28.835,0,0,0,.89-8.41V57.34c-.01-.39-.02-.8-.02-1.24.01-.15.08-.19.21-.11.35.22.77.48,1.27.78h.16Zm-9.45,1.69h2.36V55.56h-2.36Zm-1.29-2.88h-2.02l-.36.05v2.83h2.38V55.56Zm1.29,6.01h2.36V58.88h-2.36Zm-1.29-2.69h-2.38v2.69h2.38Zm0,6.31h-2.08l-.96.13-.18-.07c-.04-.16-.1-.35-.16-.55-.01-.05.05-.08.18-.06l1.12.11h2.08V62h-2.38v.78a.341.341,0,0,1-.18.29,1.376,1.376,0,0,1-.94,0,.313.313,0,0,1-.17-.29V54.46c0-.15.07-.18.2-.08.29.18.66.42,1.09.72l.36.02h5.61l.76-.77.25.02.85.85a.665.665,0,0,1,.21.47c-.02.18-.22.33-.59.42a.248.248,0,0,0-.15.28v6.23a.337.337,0,0,1-.16.31,1.226,1.226,0,0,1-.99.03l-.13-.24V62h-2.36v2.75h.88l.99-1.12h.25l1.4,1.04c.16.12.22.23.18.34a.365.365,0,0,1-.34.18h-3.35V68h1.79l.99-1.12h.24l1.4,1.04c.16.12.22.23.18.34a.365.365,0,0,1-.34.18h-9.52l-.96.13-.18-.07c-.04-.16-.1-.35-.16-.55-.01-.05.05-.08.18-.06l1.12.11h3.97V65.19Zm-7.42-4.3h-.59l-1.06.13-.15-.03c-.05-.2-.1-.39-.15-.59-.01-.05.05-.08.18-.07l1.17.11h.59V56.32h-.72l-1.06.13-.15-.03c-.05-.2-.1-.39-.15-.59-.01-.05.05-.08.18-.06l1.17.11h2.31l.7-.99.23.02.83.99.11.28-.23.15h-1.95v4.12h.11l.7-.99.23.02.83.99.11.28-.23.15h-1.76v3.92a14.2,14.2,0,0,0,1.92-.94h.21l-.03.23a18.114,18.114,0,0,1-3.64,2.46c-.39.14-.58.31-.57.5a.464.464,0,0,1-.23.57c-.25.08-.45-.05-.59-.37-.2-.41-.4-.84-.6-1.27-.04-.13-.01-.2.1-.21.77-.15,1.49-.33,2.15-.52V60.91Zm-14.59,2.49h5.22v-1.9h-4.95l-.28.05v1.86Zm6.13,4.56V65.97h-5.86l-.28.05v1.92h6.13ZM130.62,69l-.13.24a1.456,1.456,0,0,1-1.02.07l-.13-.23V60.63l-.02-.2.11-.03c.33.17.71.38,1.14.62l.33.02h4.9l.59-.59h.28l.77.65a.574.574,0,0,1,.24.46c-.01.17-.17.3-.47.37l-.06.2v2.02a.316.316,0,0,1-.18.31,1.379,1.379,0,0,1-.91.08.271.271,0,0,1-.2-.28v-.44h-5.22v1.69l.28.02h5.81l.59-.59h.28l.77.65a.574.574,0,0,1,.24.46c-.01.17-.17.3-.47.37l-.07.2v2.34a.316.316,0,0,1-.18.31,1.379,1.379,0,0,1-.91.08.271.271,0,0,1-.2-.28v-.7h-6.13v.62Zm-2.95-7.54a.964.964,0,0,1-.75.24.693.693,0,0,1-.44-.26.637.637,0,0,1-.08-.49c.02-.18.2-.4.52-.63a3.079,3.079,0,0,0,.99-1.59l.11-.15.15.16c.01.15.02.31.03.47l.86.06h4.09v-1.5l.1-.08c.43.08.88.15,1.35.23.42.08.63.23.63.47-.01.3-.22.48-.62.52l-.16.16v.2h4.31l.78-.8h.24l1.04,1.06c.23.25.29.48.18.68-.13.2-.36.25-.7.18a.48.48,0,0,0-.46.15c-.46.4-.87.74-1.24,1.01-.13.06-.22.08-.26.03l-.03-.24a8.876,8.876,0,0,0,.62-1.63h-9.88l-.86.1a2.908,2.908,0,0,1-.54,1.64Zm7.99-5.13a5.308,5.308,0,0,1-1.89,1.29l-.21-.05.08-.21a4.932,4.932,0,0,0,1.71-3.37q.03-.2.18-.15c.45.13.88.26,1.3.39.41.11.6.28.55.5s-.3.35-.7.36a5.677,5.677,0,0,0-.65.8h1.95l1.04-1.06h.32l1.37,1.01a.358.358,0,0,1,.16.33c-.03.1-.13.15-.29.16h-3.04a4.582,4.582,0,0,1,.54.54c.46.63.6,1.14.44,1.53a.594.594,0,0,1-.44.34.6.6,0,0,1-.49-.16.864.864,0,0,1-.26-.49,4.247,4.247,0,0,0-.24-1.76h-1.43Zm-6.51,0a6.421,6.421,0,0,1-2.86,2.13l-.21-.05.08-.21a6.707,6.707,0,0,0,2.69-4.25q.03-.2.18-.15c.45.16.87.33,1.27.49.41.13.59.31.52.54-.05.22-.29.32-.72.31-.09.01-.29.26-.62.75h1.35l1.04-1.06h.32l1.37,1.01a.358.358,0,0,1,.16.33c-.03.1-.13.15-.29.16h-2.98a4.582,4.582,0,0,1,.54.54c.46.63.6,1.14.44,1.53a.594.594,0,0,1-.44.34.6.6,0,0,1-.49-.16.864.864,0,0,1-.26-.49,4.247,4.247,0,0,0-.24-1.76h-.85ZM118.46,62.4V60.82h-3.97l-.47.06v1.51h4.44Zm3.32,5.4V63.76l-.02.05c-.12.19-.33.22-.63.11l-.23.02a11.921,11.921,0,0,1-1.59.81l.07.02q1.365.885,1.41,1.56a.618.618,0,0,1-.21.46.535.535,0,0,1-.52.1,1.34,1.34,0,0,1-.57-.42,13.647,13.647,0,0,0-2.67-2.21v2.86q0,.18-.24.33a1.049,1.049,0,0,1-.83.05c-.15-.05-.22-.14-.21-.24V64.14l-.03.05a8.265,8.265,0,0,1-4,2.36c-.12.03-.2.01-.23-.07l.1-.2a6.365,6.365,0,0,0,3.61-3.43h-.96v.36l-.13.24a1.456,1.456,0,0,1-1.02.07l-.13-.23v-3.3l-.02-.2.11-.03c.33.17.71.38,1.14.62l.52.02h3.92l.59-.59h.28l.76.65a.585.585,0,0,1,.25.46c-.01.17-.17.3-.47.37l-.07.2v1.63a.316.316,0,0,1-.18.31,1.383,1.383,0,0,1-.91.08.271.271,0,0,1-.2-.28v-.37h-1.64v.77l.1.03a12.4,12.4,0,0,1,1.82.8,6.885,6.885,0,0,0,1.55-1.69l.18-.05q.4.24.96.54a.706.706,0,0,1,.36.37V55.18H111.25l-.42.05v12.6H121.8Zm-10.97,1.16a.341.341,0,0,1-.18.29,1.375,1.375,0,0,1-.94,0,.313.313,0,0,1-.17-.29V54c0-.15.07-.18.2-.08.3.2.71.46,1.2.78l.31.02h10.5l.76-.76.25.02.85.85a.665.665,0,0,1,.21.47c-.02.18-.22.33-.59.42a.248.248,0,0,0-.15.28V68.87a.337.337,0,0,1-.16.31,1.226,1.226,0,0,1-.99.03l-.13-.24v-.72H110.81v.72Zm4.77-11.65h-2.13l-.96.13-.18-.07c-.04-.16-.1-.35-.16-.55-.01-.05.05-.08.18-.07l1.12.11h2.13v-1.3l.1-.08c.43.08.88.15,1.35.23.42.08.64.23.64.47-.01.3-.22.48-.62.52l-.16.16h1.01l.93-1.01h.23l1.22.93c.16.12.22.23.18.34a.365.365,0,0,1-.34.18H116.9v1.45h1.86l.93-1.01h.23l1.22.93c.16.12.22.23.18.34a.365.365,0,0,1-.34.18h-8.41l-.96.13-.18-.07c-.04-.16-.1-.35-.16-.55-.01-.05.05-.08.18-.06l1.12.11h3.04V57.3Zm-12.63,9.5a1.326,1.326,0,0,0,.16.72c.25.26.83.33,1.74.2.39-.12.72-.67.99-1.64.04-.15.12-.22.23-.21.13.01.2.1.2.26.01.9.1,1.38.28,1.45a.521.521,0,0,1,.34.54.753.753,0,0,1-.5.68,6.826,6.826,0,0,1-2.31.26c-1.12-.02-1.8-.18-2.03-.49a2.208,2.208,0,0,1-.37-1.4V54.29l-.02-.31.13-.11c.43.09.87.16,1.3.23.34.05.5.22.5.49-.01.25-.17.4-.47.44l-.16.18v4.48a8.191,8.191,0,0,0,1.73-2.95l.16-.05c.38.19.75.36,1.11.54.32.15.43.33.36.54s-.27.26-.57.16l-.2.05a8.073,8.073,0,0,1-2.59,2.29v1.17a5.784,5.784,0,0,1,1.56.8c1.11.74,1.66,1.4,1.66,1.99a.6.6,0,0,1-.26.5.661.661,0,0,1-.55.05c-.32-.1-.49-.24-.49-.44a15.457,15.457,0,0,0-1.92-2.41v4.9ZM99.26,56.1V53.82l.1-.06q.645.075,1.35.15c.38.04.57.2.57.46s-.2.43-.59.5l-.15.18v1.06a38.857,38.857,0,0,1-.62,8.41c-.75,2.54-2.12,4.07-4.12,4.61-.13.03-.22.01-.26-.07a.231.231,0,0,1,.11-.28,6.66,6.66,0,0,0,1.41-1.14,9.677,9.677,0,0,0,2-5.14c-.62.54-1.19,1.04-1.72,1.5a.421.421,0,0,0-.08.33c.05.28-.02.45-.23.49s-.36-.07-.46-.31c-.16-.4-.33-.8-.5-1.2-.05-.14-.02-.22.11-.23a13.983,13.983,0,0,0,2.96-1.29c.07-.99.1-2.88.1-5.68Zm-2.18,1.2h.21a3.924,3.924,0,0,1,.94.93,2.073,2.073,0,0,1,.54,1.79.647.647,0,0,1-.46.36.7.7,0,0,1-.54-.18.964.964,0,0,1-.26-.5,5.42,5.42,0,0,0-.46-2.18l.02-.21ZM94.67,68.82a.35.35,0,0,1-.2.36,1.2,1.2,0,0,1-.91.03.316.316,0,0,1-.18-.29V61.53a9.018,9.018,0,0,1-1.81,3.65c-.12.1-.22.11-.29.05-.09-.08-.08-.2.02-.36a19.022,19.022,0,0,0,1.97-6.66h-.46l-1.06.13-.15-.03c-.05-.2-.1-.39-.15-.59-.01-.05.05-.08.18-.06l1.17.11h.57V53.88l.11-.08c.39.1.81.18,1.27.26.42.08.64.25.64.52,0,.29-.2.48-.59.55l-.15.18v2.46h.26l.7-.99.23.02.83.99.11.28-.23.15h-1.9v1.06a4.525,4.525,0,0,1,.98.62q1.155.945,1.11,1.68a.648.648,0,0,1-.31.46.722.722,0,0,1-.54-.02,1.16,1.16,0,0,1-.37-.39c-.5-1.04-.79-1.61-.86-1.71v8.92Zm-9.21-3.11v-1.9H80.25l-.78.1-.15.03v1.77h6.14Zm0,2.15V66.15H79.32v1.71Zm-6.14.94q0,.18-.24.33a1.049,1.049,0,0,1-.83.05c-.15-.05-.22-.14-.21-.24V64.29a22.715,22.715,0,0,1-3.43.5c-.14-.01-.22-.05-.23-.13l.18-.18a22.127,22.127,0,0,0,7.57-2.75H75.57l-.96.13-.18-.06c-.04-.16-.1-.35-.16-.55-.01-.05.05-.08.18-.06l1.12.11h4.74V59.66H77.33l-.96.13-.18-.06c-.04-.16-.1-.35-.16-.55-.01-.05.05-.08.18-.06l1.12.11h2.98v-1.5l.1-.08c.43.08.88.15,1.35.23.42.08.63.23.63.47-.01.3-.22.48-.62.52l-.16.16v.2h.55l.93-1.01h.23l1.22.93c.16.12.22.23.18.34a.365.365,0,0,1-.34.18H81.61v1.64h1.2a13.544,13.544,0,0,0,3.4-3.09l.2-.05c.36.24.72.46,1.09.67.33.21.43.43.33.67-.11.22-.35.26-.72.11l-.23.05a24.277,24.277,0,0,1-2.1,1.64h1.81l.99-1.12h.24l1.4,1.04c.16.12.22.23.18.34a.365.365,0,0,1-.34.18H84.11a3.192,3.192,0,0,1-.42.26,20.582,20.582,0,0,1-2.68,1.38h4.25l.8-.78a.206.206,0,0,1,.33,0l.78.8c.55.56.46.94-.29,1.14l-.11.15v4.12a.408.408,0,0,1-.23.33,1.2,1.2,0,0,1-.83.06.326.326,0,0,1-.23-.31v-.57H79.34v.5Zm-.11-11.75V55.02H77l-.28.05v1.99h2.49Zm3.84,0V55.02H80.5v2.03Zm3.84,0V55.02H84.34v2.03Zm-10.17.99-.13.24a1.481,1.481,0,0,1-1.03.07l-.13-.23V54.17l-.02-.2.11-.03c.33.17.71.38,1.14.62l.33.02h9.84l.59-.59h.28l.77.65a.574.574,0,0,1,.24.46c-.01.17-.17.3-.47.37l-.07.2v2.02a.316.316,0,0,1-.18.31,1.379,1.379,0,0,1-.91.08.271.271,0,0,1-.2-.28v-.31H76.71v.55Zm-6.77-4.05.11-.07c.43.08.85.14,1.25.18.45.08.67.23.67.47-.01.26-.2.43-.57.5a.168.168,0,0,0-.16.2v12.6a1.185,1.185,0,0,1-.41.75,2.374,2.374,0,0,1-1.45.52c0-.57-.47-1.04-1.41-1.4a.232.232,0,0,1-.18-.26c.03-.11.12-.15.26-.11a11.052,11.052,0,0,0,1.48.24c.18-.01.3-.05.34-.13l.06-.26V53.99Zm-3.77,1.06.11-.08c.39.1.81.18,1.27.26.42.08.63.25.63.52,0,.29-.2.48-.59.55l-.15.18v8.43a.35.35,0,0,1-.2.36,1.2,1.2,0,0,1-.91.03.316.316,0,0,1-.18-.29V55.05ZM61.69,68.87q0,.18-.24.33a1.049,1.049,0,0,1-.83.05c-.15-.05-.22-.14-.21-.24v-7a8.9,8.9,0,0,1-3.11,3.91l-.26-.02.05-.26a13.454,13.454,0,0,0,3.04-6.51H58.32l-.96.13-.18-.06c-.04-.16-.1-.35-.16-.55-.01-.05.05-.08.18-.07l1.12.11H60.4V56c-.89.12-1.8.2-2.72.24-.17,0-.27-.05-.28-.16q0-.2.24-.21a15.871,15.871,0,0,0,5.5-1.95c.18-.05.29-.08.33-.06q.45.375.96.78a.412.412,0,0,1,.15.59c-.12.17-.36.19-.72.05a22.124,22.124,0,0,0-2.18.5v2.91h.55l.99-1.12h.25l1.4,1.04c.16.12.22.23.18.34a.365.365,0,0,1-.34.18H61.68v1.22a8.5,8.5,0,0,1,1.29.81c1.07.85,1.59,1.56,1.56,2.15a.552.552,0,0,1-.31.49.659.659,0,0,1-.55.02,1.171,1.171,0,0,1-.41-.39,16.2,16.2,0,0,0-1.58-2.44v7.89ZM52.35,57.09l.16-.05c.37.22.72.42,1.06.62q.465.27.33.57c-.09.2-.29.24-.59.13l-.2.03a10.164,10.164,0,0,1-3.34,2.62,10.189,10.189,0,0,0,5.06,5.27.222.222,0,0,1,.15.28c-.02.09-.11.13-.28.13a1.328,1.328,0,0,0-1.3.63l-.26.03a8.766,8.766,0,0,1-1.38-1.25,17.164,17.164,0,0,1-3.74-7.66v9.5a1.185,1.185,0,0,1-.41.75,2.438,2.438,0,0,1-1.45.52c-.07-.54-.54-.95-1.42-1.22a.215.215,0,0,1-.2-.24c.02-.1.1-.14.24-.13a11.91,11.91,0,0,0,1.46.13.462.462,0,0,0,.39-.16l.07-.29V53.94l.11-.06c.43.08.85.14,1.25.18.45.08.67.23.67.47-.01.26-.2.43-.57.5a.168.168,0,0,0-.16.2v.29a23.169,23.169,0,0,0,1.58,5.11,7.405,7.405,0,0,0,2.75-3.53ZM41.66,58.95h2.65l.72-.7h.23l.81.72a.407.407,0,0,1,.18.44c-.05.19-.23.28-.54.29l-.11.1a10.831,10.831,0,0,1-5.37,7.58L40,67.33l.07-.23a12.414,12.414,0,0,0,2.99-3.47,9.862,9.862,0,0,0,1.33-4.25H41.66l-.89.13c-.14.04-.22.04-.23,0q-.075-.315-.15-.6l.16-.07,1.11.1ZM30.65,61.03h4.44V55.74H30.65Zm-1.29-5.29H25.19l-.36.05v5.24h4.52V55.74Zm0,11.28V61.47H24.84v5.55Zm5.73,0V61.47H30.65v5.55ZM24.84,68.37a.341.341,0,0,1-.18.29,1.375,1.375,0,0,1-.94,0,.315.315,0,0,1-.16-.29V54.65c0-.15.07-.18.2-.08.29.18.66.42,1.09.72l.36.02h9.85l.76-.77.25.02.85.85a.665.665,0,0,1,.21.47c-.02.18-.22.33-.59.42a.248.248,0,0,0-.15.28v11.7a.337.337,0,0,1-.16.31,1.226,1.226,0,0,1-.99.03l-.13-.24v-.91H24.86v.91Zm-6.7-3.87.2-.02c.25.24.54.49.86.76.28.26.36.49.23.68-.15.17-.38.16-.68-.03l-.23-.02a7.6,7.6,0,0,1-2.47.86,9.683,9.683,0,0,0,4.25,1.09c.14,0,.22.05.23.16,0,.09-.07.15-.2.18a1.535,1.535,0,0,0-1.07,1.04c-.03.1-.11.13-.24.1a7.1,7.1,0,0,1-4.62-2.78,4.911,4.911,0,0,1-1.17-2.26H11.28v2.88c.69-.15,1.42-.34,2.18-.57.16-.06.28-.04.34.06a.228.228,0,0,1-.1.29,14.272,14.272,0,0,1-3.39,1.32c-1.05.28-1.57.49-1.56.62.03.3-.05.48-.26.52A.432.432,0,0,1,8,69.07c-.18-.46-.36-.91-.54-1.37-.04-.13,0-.2.13-.2.84-.02,1.63-.07,2.39-.15V64.24H7.8q-.36,3.795-2.32,5.08c-.14.06-.24.06-.31-.02-.07-.12,0-.27.2-.44q1.2-1.98,1.2-6.3V60.14c.01-.15.08-.19.21-.11.36.22.79.48,1.28.78h9.47l1.04-1.06h.33l1.37,1.01a.358.358,0,0,1,.16.33c-.03.1-.13.15-.29.16H16.69l1.29.98c.16.12.22.23.18.34a.365.365,0,0,1-.34.18H10.25l-.96.13-.18-.07c-.04-.16-.1-.35-.16-.55-.01-.05.05-.08.18-.06l1.12.11h5.22l.94-1.06H7.86v1.32c0,.42-.02.84-.05,1.24h9.75l1.07-1.11a.216.216,0,0,1,.34,0l1.46,1.06a.358.358,0,0,1,.16.33c-.03.1-.13.15-.29.16H13.74a6.712,6.712,0,0,0,1.73,2.12,9.713,9.713,0,0,0,2.65-1.89ZM10.6,55.68H9.18l-.41.05v1.53h1.82V55.68Zm0,2.02H8.78v1.58H10.6Zm4.36-.44H16.8V55.68H14.96Zm-1.3-1.58H11.9v1.58h1.76Zm1.3,3.6H16.8V57.7H14.96Zm-1.3-1.58H11.9v1.58h1.76Zm2.93-2.46.8-.78c.12-.11.23-.11.32,0l.78.8c.55.56.46.94-.29,1.14l-.11.15v3.34a.408.408,0,0,1-.23.33,1.262,1.262,0,0,1-.83.07.336.336,0,0,1-.23-.31v-.24H8.78v.23l-.13.24a1.456,1.456,0,0,1-1.02.07l-.13-.23V54.86l-.02-.2.11-.03c.33.17.71.38,1.14.62l.45.02H10.6V53.84l.1-.08c.43.08.88.15,1.35.23.42.08.64.23.64.47-.01.3-.22.48-.62.52l-.16.16v.13h1.76V53.84l.1-.08c.43.08.88.15,1.35.23.42.08.64.23.64.47-.01.3-.22.48-.62.52l-.16.16v.13h1.63Z" fill="#fff" stroke="#fff" stroke-linecap="round" stroke-linejoin="round" stroke-width="6"/>
    </g>
    <g id="Group_459" data-name="Group 459">
      <g id="Group_458" data-name="Group 458">
        <path id="Path_509" data-name="Path 509" d="M67.11,25.66A25.232,25.232,0,0,1,44.59,35.69s-14.31-.17-21.83-15.56c0,0-4.45-10.09-12.31-9.12,0,0-8.09,1.77-7.41,11.51,0,0,1.31,10.09,16.42,16.53,0,0,33.97,12.88,47.65-13.39Z" fill="#2484b5"/>
        <path id="Path_510" data-name="Path 510" d="M41.57,40.65S26.69,38.6,19,21.55c0,0-4.73-8.61-10.72-5.3,0,0-5.6,3.48-1.88,10.32,0,0,10.2,17.66,35.17,14.07Z" fill="#57b7d8"/>
        <path id="Path_511" data-name="Path 511" d="M33.14,40.14A33.712,33.712,0,0,1,19.52,25.49s-4.56-8.55-11-4.39c0,0-4.33,3.19,1.77,9.41a40.151,40.151,0,0,0,22.86,9.63Z" fill="#74bfdc"/>
        <path id="Path_512" data-name="Path 512" d="M39.63,30.27S29.88,28.05,27.77,6.79a3.509,3.509,0,0,0-3.76-3.25s-3.65.51-2.85,6.78c0,0,1.94,14.65,18.47,19.95Z" fill="#2484b5"/>
        <path id="Path_513" data-name="Path 513" d="M51.78,33.98s-7.13-14.31,7.64-21.83c0,0,5.41-3.08,5.59-5.87,0,0,5.87,21.15-10.55,25.93a20.515,20.515,0,0,1,3.58-11.34s-6.21,3.76-6.26,13.11Z" fill="#367537"/>
        <path id="Path_514" data-name="Path 514" d="M53.81,11.19a3.655,3.655,0,1,1-3.65-3.66A3.66,3.66,0,0,1,53.81,11.19Z" fill="#89b535"/>
        <path id="Path_515" data-name="Path 515" d="M46.5,18.65a40.7,40.7,0,0,1,.47,8.78,31.145,31.145,0,0,0,.3-4.51c-.05-6.05-2.34-9.5-4.4-11.38A16.414,16.414,0,0,1,46.5,18.65Z" fill="#89b535"/>
        <path id="Path_516" data-name="Path 516" d="M46.18,24.18a19.512,19.512,0,0,0-4.09-13.29A9.043,9.043,0,0,0,39.63,9.5C32.93,6.51,30.94,3,30.94,3,28.29,23.61,41.2,27.88,41.2,27.88a30.562,30.562,0,0,1,4.65,2.13c.53-8.55-9.91-13.49-9.91-13.49a17.619,17.619,0,0,1,9.86,8.15,14.788,14.788,0,0,0-1.98-5.81,1.612,1.612,0,0,1-1.48-.11,4.129,4.129,0,0,1-.91-.96,1.438,1.438,0,0,1,1.46,0,3.762,3.762,0,0,1,.97.98l.08-.04c-.06-.09-.12-.17-.17-.26-.16-.27-.32-.54-.46-.83a1.625,1.625,0,0,1-.04-1.09,1.2,1.2,0,0,1,.15-.36c.18.19.37.37.54.56a1.836,1.836,0,0,1,.55,1.13,1.954,1.954,0,0,1-.31,1.05,19.643,19.643,0,0,1,1.98,5.25ZM40.14,13.03l.02-.11.02-.05a3.031,3.031,0,0,1,1.31,1.15,1.717,1.717,0,0,1-.04,1.45c-.26-.25-.5-.47-.72-.71a3.281,3.281,0,0,1-.44-.56,1.855,1.855,0,0,1-.16-1.17Zm-1.92-1.44c1.46.59,1.89,1.27,1.56,2.41a5.1,5.1,0,0,1-.42-.31,11.459,11.459,0,0,1-.87-.83,1.533,1.533,0,0,1-.27-.89c-.01-.12,0-.24,0-.38Zm-.26,1.15a5.167,5.167,0,0,1-1.43-.98,1.782,1.782,0,0,1-.39-1.23c1.44.39,2.01.97,1.82,2.2Zm-1.97-1.06c-1.08-.39-2.03-.87-2.02-1.97C35.34,9.84,36.25,10.73,35.99,11.68Zm-4.37-1.12c-.06-.06-.12-.11-.18-.17a1.967,1.967,0,0,1,2.78.73,1.948,1.948,0,0,1-1.36.17,2.946,2.946,0,0,1-1.23-.73Zm2.52,1.91c-.31-.11-.6-.24-.9-.35-.1-.04-.1-.08,0-.15a6.578,6.578,0,0,1,.61-.42.916.916,0,0,1,.56-.11,4.029,4.029,0,0,1,1.49.49,1.689,1.689,0,0,1-1.75.55Zm2.11.91a4.7,4.7,0,0,1-1.14-.58,1.577,1.577,0,0,1,1.59-.44,5.038,5.038,0,0,1,1.15.6,5.7,5.7,0,0,1-.58.33,1.41,1.41,0,0,1-1.02.09Zm1.82,1.09a4.543,4.543,0,0,1-1.11-.73,1.55,1.55,0,0,1,1.47-.32,4.334,4.334,0,0,1,1.19.76A1.769,1.769,0,0,1,38.07,14.47Zm1.57,1.22c-.33-.24-.61-.51-.92-.77l-.02-.04a1.548,1.548,0,0,1,1.38-.19,4.048,4.048,0,0,1,1.16.9l.02.04a1.6,1.6,0,0,1-1.62.07Zm1.4,1.49a3.82,3.82,0,0,1-.84-.96,1.26,1.26,0,0,1,1.36,0c.42.28.48.64.89,1.02v.02a1.4,1.4,0,0,1-1.41-.08Zm1.91-.07c-.15-.18-.3-.33-.43-.5a8.229,8.229,0,0,1-.53-.78,1.654,1.654,0,0,1-.14-1.08,1.273,1.273,0,0,1,.12-.38c.2.17.4.33.59.51a1.821,1.821,0,0,1,.64,1.07,1.978,1.978,0,0,1-.26,1.16Z" fill="#89b535"/>
        <path id="Path_517" data-name="Path 517" d="M30.58,24.85s-8.19-6.03-8.62-15.52c0,0,.05-3.15,2.95-2.69a3.3,3.3,0,0,1,1.71,3.38s.48,9.49,3.96,14.66" fill="#57b7d8"/>
        <path id="Path_518" data-name="Path 518" d="M28.46,22.41a19.76,19.76,0,0,1-5.77-11.47S22.6,8.81,24.1,8.81c0,0,1.5.34,1.2,2.37,0,0-1.16,7.03,3.16,11.22Z" fill="#74bfdc"/>
      </g>
      <path id="Path_519" data-name="Path 519" d="M96.29,28.6a1.932,1.932,0,0,1,.25,1.03,1.165,1.165,0,0,1-.5.91A1.042,1.042,0,0,1,94.51,30c-.97-2.04-2.89-3.92-5.79-5.66V39.15c-.03.63-.03,1.38,0,2.23a1.3,1.3,0,0,1-.29.83,1.393,1.393,0,0,1-.83.21,1.473,1.473,0,0,1-.74-.17,9.3,9.3,0,0,1-.25-3.06V21.46q-3.675,9.015-8.8,13.64c-.33.22-.58.23-.74.04-.16-.25-.11-.51.17-.79q5.085-5.325,8.35-15.75H78.44a.6.6,0,0,1-.41-.21,5.161,5.161,0,0,1-.37-.7q-.12-.21.12-.21h8.84V9.63c-2.45.47-5.96.91-8.22,1.08-.5.03-.76-.1-.79-.37-.03-.33.21-.51.7-.54,5.81-.96,12.09-2.98,15.07-4.88.36-.3.62-.4.79-.29.74.52,1.42.99,2.02,1.4.47.3.62.62.45.95q-.255.45-.99.33c-.5-.25-3.3.66-6.93,1.82v8.35h3.27a1.878,1.878,0,0,0,1.03-.33c.58-.55,1.17-1.09,1.78-1.61a.476.476,0,0,1,.7-.04c.74.55,1.5,1.17,2.27,1.86.39.33.52.63.41.91a.51.51,0,0,1-.54.33H88.71v4.7c3.88,1.3,6.41,3.06,7.56,5.29Zm5.13-19.62c.94.17,1.9.3,2.89.41.74.14,1.1.41,1.07.83q-.045.585-1.32.99c-.47.16-.7.41-.7.74V31.83a4.082,4.082,0,0,1-.33,1.94,1.217,1.217,0,0,1-.83.16,1,1,0,0,1-.7-.25,4.142,4.142,0,0,1-.25-2.02V11.26a14.323,14.323,0,0,0-.21-1.98c-.08-.22.04-.32.37-.29Zm7.51,33.39a1.626,1.626,0,0,0-.79-1.12,15.384,15.384,0,0,0-3.51-1.12c-.39-.06-.57-.26-.54-.62.06-.3.29-.44.7-.41,3.28.3,5.26.32,5.95.04.3-.16.47-.59.5-1.28V7.58a30.781,30.781,0,0,0-.17-3.14c-.06-.38.06-.56.33-.54.91.17,1.87.33,2.89.5q.87.12.87.87c0,.44-.41.76-1.24.95-.39.08-.58.45-.58,1.12V38.5a3.726,3.726,0,0,1-1.07,2.89,6.735,6.735,0,0,1-2.6,1.32c-.47.05-.72-.06-.74-.33Z" fill="#2484b5"/>
      <path id="Path_520" data-name="Path 520" d="M201.03,31.33c.39-.42.86-.89,1.4-1.4a.375.375,0,0,1,.47,0,13.177,13.177,0,0,1,2.03,1.86c.25.25.34.48.25.68s-.31.31-.68.34H165.81a.6.6,0,0,1-.42-.21,6.167,6.167,0,0,1-.38-.72c-.08-.14-.04-.21.13-.21h3.9l-.93-22.69c-.11-.73-.23-1.37-.34-1.9-.03-.25.1-.32.38-.21.65.28,1.24.56,1.78.85a19.11,19.11,0,0,0,3.94-3.18c.25-.42.48-.58.68-.47.9.31,1.71.59,2.41.85.53.2.76.48.68.85a.68.68,0,0,1-.76.55,2.89,2.89,0,0,0-1.52.3,29.237,29.237,0,0,1-5.12,2.2l.25,6.1h1.78a10.314,10.314,0,0,0,1.99-1.52c.14-.14.27-.15.38-.04a11.724,11.724,0,0,1,1.82,1.69,1.029,1.029,0,0,1,.25.72c-.06.17-.27.27-.64.3h-5.54l.25,6.31h1.31a10.314,10.314,0,0,0,1.99-1.52c.14-.14.27-.15.38-.04a11.29,11.29,0,0,1,1.82,1.69,1.029,1.029,0,0,1,.25.72q-.09.255-.63.3h-5.08l.38,8.17h6.73V8.34a23.392,23.392,0,0,0-.17-2.63c-.03-.28.09-.37.34-.25a22.2,22.2,0,0,1,2.33,1.31h8.51a4.458,4.458,0,0,0,1.82-1.31.5.5,0,0,1,.59-.04,6.193,6.193,0,0,1,2.07,1.86.718.718,0,0,1-.21,1.14,4.826,4.826,0,0,0-.89.42c-.26.11-.38.48-.38,1.1V31.66h6.6l.21-8.34h-4.32a.6.6,0,0,1-.42-.21,6.167,6.167,0,0,1-.38-.72c-.08-.14-.04-.21.13-.21h5.04l.21-6.82h-4.57a.6.6,0,0,1-.42-.21,6.167,6.167,0,0,1-.38-.72c-.08-.14-.04-.21.13-.21h5.29l.21-6.48q.045-.51-.51-.51h-4.49l-.21-1.14h4.53a12.866,12.866,0,0,0,1.61-1.31.39.39,0,0,1,.51-.04,9,9,0,0,1,2.33,1.74c.56.79.2,1.37-1.1,1.74-.34.06-.52.31-.55.76l-.76,22.69a2.575,2.575,0,0,1,.42-.34Zm-22.99,2.45c.82.38,1.54.74,2.16,1.05.51.26.7.59.59,1.01a.939.939,0,0,1-.97.53,1.748,1.748,0,0,0-1.61.57,26.809,26.809,0,0,1-11.98,5.9c-.34.06-.52-.05-.55-.33a.484.484,0,0,1,.34-.62,27.316,27.316,0,0,0,11.26-7.67c.25-.42.51-.56.76-.43Zm2.03-2.11h9.69V8.17c0-.17-.18-.25-.55-.25h-9.14V31.67Zm4.11-19.98c.06-.06.72-.63,1.99-1.74a.375.375,0,0,1,.47,0,13.177,13.177,0,0,1,2.03,1.86c.25.25.34.48.25.68s-.31.31-.68.34h-6.35a.6.6,0,0,1-.42-.21,6.167,6.167,0,0,1-.38-.72c-.08-.14-.04-.21.13-.21h2.96Zm-.51,13.56v1.69a1.025,1.025,0,0,1-.25.76.848.848,0,0,1-.68.21,2.147,2.147,0,0,1-.85-.21,1,1,0,0,1-.21-.72V18.26a18.6,18.6,0,0,0-.17-2.37c-.06-.28.06-.37.34-.25.56.23,1.2.51,1.9.85h1.48a7.029,7.029,0,0,0,1.44-.89.42.42,0,0,1,.51-.08,12.179,12.179,0,0,1,1.78,1.23.747.747,0,0,1,.04,1.06,2.528,2.528,0,0,1-.72.42,2.406,2.406,0,0,0-.17,1.23v5.46c-.03,1.38-.14,2.16-.34,2.33a1.377,1.377,0,0,1-.8.21,1.244,1.244,0,0,1-.68-.17,1.809,1.809,0,0,1-.17-.97V25.26h-2.46Zm0-.36h2.46V18.84q0-.42-.51-.42h-1.95V24.9Zm14.67,12.74q4.755,2.055,5.4,4.14a1.285,1.285,0,0,1-.39,1.18,1.314,1.314,0,0,1-1.03.36,1.974,1.974,0,0,1-1.03-.55,27.866,27.866,0,0,0-10.94-6.65c-.36-.15-.52-.36-.49-.64a.552.552,0,0,1,.74-.23,42.452,42.452,0,0,1,7.75,2.37Z" fill="#367537"/>
      <path id="Path_521" data-name="Path 521" d="M136.57,14.8H123.66l.21.71h8.86l.1.13c.24,2.06-.85,6.8-.85,6.8l.11-.31c-1.4,6.21-3.46,12.22-9.14,17.7-.66.45-.9.89-.7,1.31.11.24.32.28.62.11a42.367,42.367,0,0,0,7.01-7.03c5.3-7.18,6.66-17.29,6.91-19.42h-.2Z" fill="#57b7d8"/>
      <path id="Path_522" data-name="Path 522" d="M141.85,10.06V4.41l-2.18-.34c-.31-.03-.32.15-.26.54a26.68,26.68,0,0,1,.31,3.14V44.76c0-.14.52-.31.82-.5a3.105,3.105,0,0,0,1.31-2.89V10.06Z" fill="#57b7d8"/>
      <path id="Path_523" data-name="Path 523" d="M144.41,12.67h4.28s.8,22.02,11.5,28.38c0,0,.29.96-1.12.55,0,0-11.58-7.66-14.65-28.93Z" fill="#57b7d8"/>
      <path id="Path_524" data-name="Path 524" d="M157.94,12.69a2.43,2.43,0,1,1-2.43-2.43A2.433,2.433,0,0,1,157.94,12.69Z" fill="#57b7d8"/>
      <path id="Path_525" data-name="Path 525" d="M239.08,8.42h-5.76V5.36c-.71-.08-1.32-.17-2.06-.29-.31-.02-.74.04-.71.18a3.07,3.07,0,0,1-.07,1.14V8.41h-7.09V5.33a11.313,11.313,0,0,0-1.71-.26c-.31-.02-.56.04-.53.18.09.66.12,1.04.12,1.14V8.41h-8.51V18.78c0,.32-.06.54.12.66a1.421,1.421,0,0,0,.89.22,1.452,1.452,0,0,0,.84-.18.971.971,0,0,0,.28-.73v-.4h24.82v.88c0,.37.32.56.81.59.62.02,1.31-.03,1.31-.14V8.43h-2.75Zm-17.81,9.22h-6.38V14.09h6.38Zm0-4.25h-6.38V9.84h6.38Zm9.22,4.25H223.4V14.09h7.09Zm0-4.25H223.4V9.84h7.09Zm9.22,4.25h-6.38V14.09h6.38Zm0-4.25h-6.38V9.84h6.36c.31,0,.02-.2.02.02Z" fill="#89b535"/>
      <path id="Path_526" data-name="Path 526" d="M235.51,24.73H216.5c-.16,0-.21.24-.12.37a6.083,6.083,0,0,0,.37.77.565.565,0,0,0,.41.28h25.38V24.73h-7.03Z" fill="#89b535"/>
      <path id="Path_527" data-name="Path 527" d="M231.66,28.98H212.65c-.16,0-.21.14-.12.28a6.8,6.8,0,0,0,.37.82c.08.11.22.32.41.32h30.65V28.98Z" fill="#89b535"/>
      <path id="Path_528" data-name="Path 528" d="M228.24,21.18H211.15c-.17,0-.21.08-.12.22a7.262,7.262,0,0,0,.37.85c.08.11.22.35.41.35h32.14V21.18H228.23Z" fill="#89b535"/>
      <path id="Path_529" data-name="Path 529" d="M224.07,33.49s-.91.4.54.67c0,0,10.97,1.2,13.8,6.87H221.99V30.39h-3.54V42.44h24.44c-.82-1.42-6-9.35-18.81-8.96Z" fill="#89b535"/>
      <path id="Path_530" data-name="Path 530" d="M242.66,33.8a2.16,2.16,0,1,1-2.16-2.16A2.164,2.164,0,0,1,242.66,33.8Z" fill="#89b535"/>
      <path id="Path_531" data-name="Path 531" d="M213.27,21.89s-3.85,3.46-2.51,9.82c0,0,1.5,8.09-1.92,10.6,0,0-.27.52,1.12-.02,0,0,5.56-2.45,3.32-12.24,0,0-1.55-6.04,1.34-8.17h-1.34Z" fill="#89b535"/>
      <path id="Path_532" data-name="Path 532" d="M240.75,67.57V63.06h-6.9l-.34.05v4.46h7.24Zm-7.24,1.25-.13.24a1.423,1.423,0,0,1-1.03.06l-.13-.23V62.2l-.02-.2.11-.03c.32.17.7.38,1.14.62l.39.02h6.69l.8-.78a.206.206,0,0,1,.33,0l.78.8c.55.56.46.94-.29,1.14l-.11.15v4.96a.408.408,0,0,1-.23.33,1.2,1.2,0,0,1-.83.06.326.326,0,0,1-.23-.31V68h-7.24v.81Zm-1.79-7.86c-.16.02-.25.13-.26.33-.01.33-.14.5-.37.54-.24.02-.4-.13-.47-.46-.12-.54-.24-1.1-.37-1.66-.03-.12.05-.17.25-.16.82.09,1.7.15,2.62.18.24-.35.46-.7.67-1.06a24.856,24.856,0,0,0,1.74-4.75l.15-.08c.5.16.99.31,1.48.46.43.13.63.33.59.59q-.075.36-.78.36a.258.258,0,0,0-.26.18,13.674,13.674,0,0,1-2.95,4.31,34.91,34.91,0,0,0,8.06-.73,5.264,5.264,0,0,0-1.38-1.92l-.03-.2.21-.05a7.79,7.79,0,0,1,1.98,1.61c1.04,1.16,1.5,2.05,1.37,2.67a.531.531,0,0,1-.37.42.627.627,0,0,1-.55-.07,7.876,7.876,0,0,1-1.06-2.1,49.086,49.086,0,0,1-10.24,1.59Zm-18.24,1.97-.96.13-.18-.06c-.04-.16-.1-.35-.16-.55-.01-.05.05-.08.18-.06l1.12.11h5.6V55.58h-4.95l-.96.13-.18-.06c-.04-.16-.1-.35-.16-.55-.01-.05.05-.08.18-.07l1.12.11h9.59l.99-1.12h.24l1.4,1.04c.16.12.22.23.18.34a.365.365,0,0,1-.34.18h-5.83V62.5h4.2l.99-1.12h.24l1.4,1.04c.16.12.22.23.18.34a.365.365,0,0,1-.34.18h-6.67v5.97q0,.18-.24.33a1.049,1.049,0,0,1-.83.05c-.15-.05-.22-.14-.21-.24v-6.1h-5.6Zm8.67-6.12.21-.07a6.745,6.745,0,0,1,1.84,1.32c.99,1,1.45,1.79,1.38,2.38a.623.623,0,0,1-.36.46l-.18.03c-.37-.01-.73-.42-1.09-1.24A7.628,7.628,0,0,0,222.19,57l-.05-.2Zm-6.09-.28.15-.07q.615.225,1.17.39c.35.13.49.3.42.5s-.25.27-.55.23l-.2.08a10.76,10.76,0,0,1-3.68,4l-.26-.02.07-.24a9.972,9.972,0,0,0,2.78-4.43,1.632,1.632,0,0,0,.1-.46ZM203.5,67.22a.218.218,0,0,1,.24-.21,10.674,10.674,0,0,1,3.01.42c.94.3,1.5.67,1.68,1.09a.623.623,0,0,1-.1.5.579.579,0,0,1-.47.23,1.4,1.4,0,0,1-.67-.28,11.022,11.022,0,0,0-3.45-1.51q-.24-.045-.24-.24Zm-3.11-.52c.3.17.64.36,1.01.55.25.14.33.31.23.52s-.27.24-.5.13l-.29.03a10,10,0,0,1-4.41,1.3c-.16-.01-.24-.05-.24-.13-.01-.14.08-.21.28-.21a7.33,7.33,0,0,0,3.71-2.07l.23-.13Zm5.53-4.28V61.1H199.8l-.47.07v1.25Zm0,1.76V62.86h-6.59v1.32Zm0,1.69V64.62h-6.59v1.25Zm-6.59.86-.13.24a1.4,1.4,0,0,1-1.02.06l-.13-.23V60.24l-.02-.2.11-.03c.33.17.71.38,1.14.62l.52.02h5.91l.8-.78c.12-.11.23-.11.32,0l.78.8c.55.56.46.94-.29,1.14l-.11.15V66.6a.408.408,0,0,1-.23.33,1.2,1.2,0,0,1-.83.06.326.326,0,0,1-.23-.31v-.37h-6.59v.42Zm.46-6.48c-.13.02-.2-.02-.21-.11,0-.13.05-.2.16-.21a5.831,5.831,0,0,0,3.99-3.64l.16-.08c.34.16.7.33,1.09.49.33.14.46.33.39.55-.08.14-.27.21-.57.2a7.741,7.741,0,0,0,4.95,1.48c.13,0,.2.04.21.11l-.13.21a1.434,1.434,0,0,0-.83.98l-.21.1a7.432,7.432,0,0,1-4.44-2.52,6.73,6.73,0,0,1-4.56,2.46Zm.23-2.42-.21-.05.07-.21a5.31,5.31,0,0,0,1.98-3.76q.03-.2.18-.15c.45.13.88.26,1.3.39.41.11.6.28.55.5s-.28.35-.7.36c-.08.01-.25.23-.52.67h5.09l.8-.77.24.02.99,1.07c.23.26.27.49.13.7s-.36.24-.7.13a.488.488,0,0,0-.47.11c-.51.38-.97.7-1.37.96l-.26.02v-.24a9.61,9.61,0,0,0,.8-1.56h-5.19l-.42.05a5.8,5.8,0,0,1-2.29,1.76Zm-.78.11.21.02-.03.21a8.172,8.172,0,0,1-1.64,1.3q-.72.435-1.32.75c-.09.04-.12.14-.11.28a.49.49,0,0,1-.24.57c-.24.06-.43-.07-.57-.41a11.537,11.537,0,0,1-.55-1.27c-.04-.13-.01-.2.1-.21.32-.05.65-.12.98-.2a9.385,9.385,0,0,0,3.19-1.04Zm-2.75-2.29h.93l.96-1.07h.24l1.3.99c.16.12.22.23.18.34a.365.365,0,0,1-.34.18h-3.27l-.96.13-.18-.06c-.04-.16-.1-.35-.16-.55-.01-.05.05-.08.18-.07l1.12.11Zm-5.73,12.17V55.24H179.89l-.23.03V67.82h11.1Zm-11.1,1.09a.341.341,0,0,1-.18.29,1.375,1.375,0,0,1-.94,0,.305.305,0,0,1-.16-.29V54.08c0-.15.06-.18.2-.08.31.21.72.47,1.22.8h10.92l.76-.77.25.02.85.85a.665.665,0,0,1,.21.47c-.02.18-.22.33-.59.42a.248.248,0,0,0-.15.28V68.81a.337.337,0,0,1-.16.31,1.226,1.226,0,0,1-.99.03l-.13-.24v-.65h-11.1v.65Zm8.43-2.78V61.82h-5.34l-.41.05v4.26h5.74Zm-5.74.86-.13.24a1.4,1.4,0,0,1-1.02.06l-.13-.23V61.02l-.02-.2.11-.03q.435.225.99.54l.6.03h5.29l.59-.59h.28l.76.65a.585.585,0,0,1,.25.46c-.01.17-.17.3-.47.37l-.07.2v4.56a.316.316,0,0,1-.18.31,1.383,1.383,0,0,1-.91.08.271.271,0,0,1-.2-.28v-.57h-5.74v.42Zm3.86-2.23V63.18h-1.5l-.34.05v1.53Zm-1.84.7-.11.21a1.131,1.131,0,0,1-.91.06l-.13-.2V62.32l-.02-.18.1-.02a11.265,11.265,0,0,1,1.11.59l.31.02h1.45l.52-.5h.26l.68.59a.489.489,0,0,1,.23.41c-.01.16-.15.28-.42.34l-.06.18v1.68a.323.323,0,0,1-.16.28,1.147,1.147,0,0,1-.81.06.207.207,0,0,1-.18-.24V65.2h-1.84v.26Zm2.69-7.14V56.81h-3.25l-.41.05v1.46Zm-2.41.44H183.4v.23l-.13.24a1.4,1.4,0,0,1-1.02.06l-.13-.23V56.02l-.02-.2.11-.03q.435.225.99.54l.6.03h3.21l.59-.59h.28l.77.65a.574.574,0,0,1,.24.46c-.01.17-.17.3-.47.37l-.07.2v1.5a.316.316,0,0,1-.18.31,1.383,1.383,0,0,1-.91.08.271.271,0,0,1-.2-.28v-.31h-1.12v1.19h2.33l.7-.99.23.02.83.99.11.28-.23.15h-8.45l-1.06.13-.15-.03c-.05-.2-.1-.39-.15-.59-.01-.05.05-.08.18-.06l1.17.11h3.19V58.76Zm-14.01,4.1v.31a5.577,5.577,0,0,1-.26,1.74,3.127,3.127,0,0,1-2.06,1.89c-.15.04-.25.03-.29-.05l.1-.26a4.032,4.032,0,0,0,1.22-3.32V61.62c.01-.15.08-.19.21-.11.34.21.72.45,1.16.72h1.12l.36-.59.29-.05,1.01.75a.492.492,0,0,1,.23.44c-.01.22-.18.37-.52.47l-.08.16v.94a3.005,3.005,0,0,0,.06.67.329.329,0,0,0,.34.23,1.2,1.2,0,0,0,.55-.11.671.671,0,0,0,.32-.46c.08-.29.15-.58.23-.85q.045-.225.21-.24c.13.03.2.1.2.21.05.89.17,1.36.34,1.4a.541.541,0,0,1,.31.52.526.526,0,0,1-.24.5,3.721,3.721,0,0,1-1.82.31,1.7,1.7,0,0,1-1.46-.5,2.563,2.563,0,0,1-.33-1.43V62.66h-.9l-.29.05v.15Zm-4.51,2.54a8.388,8.388,0,0,0,.85-2.26l-.1-.08h-1.3l-.44.07a8.9,8.9,0,0,0,.99,2.28Zm-3.17.42h-.24l.05-.24a12.226,12.226,0,0,0,1.76-5l.13-.11c.48.14.94.27,1.4.37.31.09.45.26.41.52-.04.2-.25.29-.6.28l-.18.1c-.12.28-.24.57-.37.86l.28.02h1.38l.67-.85.21.02,1.11.88a.5.5,0,0,1,.2.49c-.03.21-.28.33-.73.37-.13.03-.2.09-.21.16a9.282,9.282,0,0,1-1.3,2.57l-.02.02a5.687,5.687,0,0,0,2.82,1.24,24.428,24.428,0,0,0,5.57-.2c.15-.02.23.02.24.13l-.15.28a1.372,1.372,0,0,0-.77,1.24l-.16.18c-1.12.01-2.1,0-2.95-.03-2.66-.18-4.43-.87-5.31-2.05a8.51,8.51,0,0,1-3.86,2.05l-.18-.1.1-.21a8.546,8.546,0,0,0,3.37-2.59,6.5,6.5,0,0,1-.91-2.46,7.26,7.26,0,0,1-1.74,2.07Zm1.55-6.48-.67.15-.15-.07a2.052,2.052,0,0,1-.18-.41l.1-.13.88.02,2.52-.1V57.74l-.02-.31.13-.11c.43.09.87.16,1.3.23.34.05.5.22.5.49-.01.25-.17.4-.47.44l-.16.18v.08l1.76-.08.8-.91c.13-.14.25-.16.36-.05l.96.94.05.26-.15.13-3.78.16a.86.86,0,0,0,.37.65,1.708,1.708,0,0,0,.64.18c2.05.19,3.35.13,3.91-.16a3.072,3.072,0,0,0,.47-1.01c.03-.13.1-.19.2-.18.12,0,.18.07.2.21.09.68.2,1.03.34,1.04a.45.45,0,0,1,.32.49c0,.26-.24.48-.73.62a15.281,15.281,0,0,1-3.29.23c-1.71-.01-2.76-.17-3.12-.47a1.6,1.6,0,0,1-.59-1.35v-.2l-2.51.1Zm-1.14-2.59h3.82V53.89l.1-.08c.43.08.88.15,1.35.23.42.08.63.23.63.47-.01.3-.22.48-.62.52l-.16.16v.07h2.08l1.07-1.11a.216.216,0,0,1,.34,0l1.46,1.06a.358.358,0,0,1,.16.33c-.03.1-.13.15-.29.16h-4.83v1.06h4.64l.78-.8.24.02,1.04,1.06c.23.25.29.48.18.68s-.36.24-.72.16a.448.448,0,0,0-.44.15,9.5,9.5,0,0,1-1.11.81c-.13.06-.22.08-.26.03l-.03-.24a8.084,8.084,0,0,0,.49-1.43h-9.94l-.36.05.02.08v1.99c-.01,1.33-.07,2.59-.16,3.76-.32,2.85-1.04,4.82-2.15,5.89-.13.09-.23.09-.31.02a10.666,10.666,0,0,1,.44-1.25,28.835,28.835,0,0,0,.89-8.41V57.34c-.01-.39-.02-.8-.02-1.24.01-.15.08-.19.21-.11.35.22.77.48,1.27.78h.16Zm-9.45,1.69h2.36V55.56h-2.36Zm-1.29-2.88h-2.02l-.36.05v2.83h2.38V55.56Zm1.29,6.01h2.36V58.88h-2.36Zm-1.29-2.69h-2.38v2.69h2.38Zm0,6.31h-2.08l-.96.13-.18-.07c-.04-.16-.1-.35-.16-.55-.01-.05.05-.08.18-.06l1.12.11h2.08V62h-2.38v.78a.341.341,0,0,1-.18.29,1.376,1.376,0,0,1-.94,0,.313.313,0,0,1-.17-.29V54.46c0-.15.07-.18.2-.08.29.18.66.42,1.09.72l.36.02h5.61l.76-.77.25.02.85.85a.665.665,0,0,1,.21.47c-.02.18-.22.33-.59.42a.248.248,0,0,0-.15.28v6.23a.337.337,0,0,1-.16.31,1.226,1.226,0,0,1-.99.03l-.13-.24V62h-2.36v2.75h.88l.99-1.12h.25l1.4,1.04c.16.12.22.23.18.34a.365.365,0,0,1-.34.18h-3.35V68h1.79l.99-1.12h.24l1.4,1.04c.16.12.22.23.18.34a.365.365,0,0,1-.34.18h-9.52l-.96.13-.18-.07c-.04-.16-.1-.35-.16-.55-.01-.05.05-.08.18-.06l1.12.11h3.97V65.19Zm-7.42-4.3h-.59l-1.06.13-.15-.03c-.05-.2-.1-.39-.15-.59-.01-.05.05-.08.18-.07l1.17.11h.59V56.32h-.72l-1.06.13-.15-.03c-.05-.2-.1-.39-.15-.59-.01-.05.05-.08.18-.06l1.17.11h2.31l.7-.99.23.02.83.99.11.28-.23.15h-1.95v4.12h.11l.7-.99.23.02.83.99.11.28-.23.15h-1.76v3.92a14.2,14.2,0,0,0,1.92-.94h.21l-.03.23a18.114,18.114,0,0,1-3.64,2.46c-.39.14-.58.31-.57.5a.464.464,0,0,1-.23.57c-.25.08-.45-.05-.59-.37-.2-.41-.4-.84-.6-1.27-.04-.13-.01-.2.1-.21.77-.15,1.49-.33,2.15-.52V60.91Zm-14.59,2.49h5.22v-1.9h-4.95l-.28.05v1.86Zm6.13,4.56V65.97h-5.86l-.28.05v1.92h6.13ZM130.62,69l-.13.24a1.456,1.456,0,0,1-1.02.07l-.13-.23V60.63l-.02-.2.11-.03c.33.17.71.38,1.14.62l.33.02h4.9l.59-.59h.28l.77.65a.574.574,0,0,1,.24.46c-.01.17-.17.3-.47.37l-.06.2v2.02a.316.316,0,0,1-.18.31,1.379,1.379,0,0,1-.91.08.271.271,0,0,1-.2-.28v-.44h-5.22v1.69l.28.02h5.81l.59-.59h.28l.77.65a.574.574,0,0,1,.24.46c-.01.17-.17.3-.47.37l-.07.2v2.34a.316.316,0,0,1-.18.31,1.379,1.379,0,0,1-.91.08.271.271,0,0,1-.2-.28v-.7h-6.13v.62Zm-2.95-7.54a.964.964,0,0,1-.75.24.693.693,0,0,1-.44-.26.637.637,0,0,1-.08-.49c.02-.18.2-.4.52-.63a3.079,3.079,0,0,0,.99-1.59l.11-.15.15.16c.01.15.02.31.03.47l.86.06h4.09v-1.5l.1-.08c.43.08.88.15,1.35.23.42.08.63.23.63.47-.01.3-.22.48-.62.52l-.16.16v.2h4.31l.78-.8h.24l1.04,1.06c.23.25.29.48.18.68-.13.2-.36.25-.7.18a.48.48,0,0,0-.46.15c-.46.4-.87.74-1.24,1.01-.13.06-.22.08-.26.03l-.03-.24a8.876,8.876,0,0,0,.62-1.63h-9.88l-.86.1a2.908,2.908,0,0,1-.54,1.64Zm7.99-5.13a5.308,5.308,0,0,1-1.89,1.29l-.21-.05.08-.21a4.932,4.932,0,0,0,1.71-3.37q.03-.2.18-.15c.45.13.88.26,1.3.39.41.11.6.28.55.5s-.3.35-.7.36a5.677,5.677,0,0,0-.65.8h1.95l1.04-1.06h.32l1.37,1.01a.358.358,0,0,1,.16.33c-.03.1-.13.15-.29.16h-3.04a4.582,4.582,0,0,1,.54.54c.46.63.6,1.14.44,1.53a.594.594,0,0,1-.44.34.6.6,0,0,1-.49-.16.864.864,0,0,1-.26-.49,4.247,4.247,0,0,0-.24-1.76h-1.43Zm-6.51,0a6.421,6.421,0,0,1-2.86,2.13l-.21-.05.08-.21a6.707,6.707,0,0,0,2.69-4.25q.03-.2.18-.15c.45.16.87.33,1.27.49.41.13.59.31.52.54-.05.22-.29.32-.72.31-.09.01-.29.26-.62.75h1.35l1.04-1.06h.32l1.37,1.01a.358.358,0,0,1,.16.33c-.03.1-.13.15-.29.16h-2.98a4.582,4.582,0,0,1,.54.54c.46.63.6,1.14.44,1.53a.594.594,0,0,1-.44.34.6.6,0,0,1-.49-.16.864.864,0,0,1-.26-.49,4.247,4.247,0,0,0-.24-1.76h-.85ZM118.46,62.4V60.82h-3.97l-.47.06v1.51h4.44Zm3.32,5.4V63.76l-.02.05c-.12.19-.33.22-.63.11l-.23.02a11.921,11.921,0,0,1-1.59.81l.07.02q1.365.885,1.41,1.56a.618.618,0,0,1-.21.46.535.535,0,0,1-.52.1,1.34,1.34,0,0,1-.57-.42,13.647,13.647,0,0,0-2.67-2.21v2.86q0,.18-.24.33a1.049,1.049,0,0,1-.83.05c-.15-.05-.22-.14-.21-.24V64.14l-.03.05a8.265,8.265,0,0,1-4,2.36c-.12.03-.2.01-.23-.07l.1-.2a6.365,6.365,0,0,0,3.61-3.43h-.96v.36l-.13.24a1.456,1.456,0,0,1-1.02.07l-.13-.23v-3.3l-.02-.2.11-.03c.33.17.71.38,1.14.62l.52.02h3.92l.59-.59h.28l.76.65a.585.585,0,0,1,.25.46c-.01.17-.17.3-.47.37l-.07.2v1.63a.316.316,0,0,1-.18.31,1.383,1.383,0,0,1-.91.08.271.271,0,0,1-.2-.28v-.37h-1.64v.77l.1.03a12.4,12.4,0,0,1,1.82.8,6.885,6.885,0,0,0,1.55-1.69l.18-.05q.4.24.96.54a.706.706,0,0,1,.36.37V55.18H111.25l-.42.05v12.6H121.8Zm-10.97,1.16a.341.341,0,0,1-.18.29,1.375,1.375,0,0,1-.94,0,.313.313,0,0,1-.17-.29V54c0-.15.07-.18.2-.08.3.2.71.46,1.2.78l.31.02h10.5l.76-.76.25.02.85.85a.665.665,0,0,1,.21.47c-.02.18-.22.33-.59.42a.248.248,0,0,0-.15.28V68.87a.337.337,0,0,1-.16.31,1.226,1.226,0,0,1-.99.03l-.13-.24v-.72H110.81v.72Zm4.77-11.65h-2.13l-.96.13-.18-.07c-.04-.16-.1-.35-.16-.55-.01-.05.05-.08.18-.07l1.12.11h2.13v-1.3l.1-.08c.43.08.88.15,1.35.23.42.08.64.23.64.47-.01.3-.22.48-.62.52l-.16.16h1.01l.93-1.01h.23l1.22.93c.16.12.22.23.18.34a.365.365,0,0,1-.34.18H116.9v1.45h1.86l.93-1.01h.23l1.22.93c.16.12.22.23.18.34a.365.365,0,0,1-.34.18h-8.41l-.96.13-.18-.07c-.04-.16-.1-.35-.16-.55-.01-.05.05-.08.18-.06l1.12.11h3.04V57.3Zm-12.63,9.5a1.326,1.326,0,0,0,.16.72c.25.26.83.33,1.74.2.39-.12.72-.67.99-1.64.04-.15.12-.22.23-.21.13.01.2.1.2.26.01.9.1,1.38.28,1.45a.521.521,0,0,1,.34.54.753.753,0,0,1-.5.68,6.826,6.826,0,0,1-2.31.26c-1.12-.02-1.8-.18-2.03-.49a2.208,2.208,0,0,1-.37-1.4V54.29l-.02-.31.13-.11c.43.09.87.16,1.3.23.34.05.5.22.5.49-.01.25-.17.4-.47.44l-.16.18v4.48a8.191,8.191,0,0,0,1.73-2.95l.16-.05c.38.19.75.36,1.11.54.32.15.43.33.36.54s-.27.26-.57.16l-.2.05a8.073,8.073,0,0,1-2.59,2.29v1.17a5.784,5.784,0,0,1,1.56.8c1.11.74,1.66,1.4,1.66,1.99a.6.6,0,0,1-.26.5.661.661,0,0,1-.55.05c-.32-.1-.49-.24-.49-.44a15.457,15.457,0,0,0-1.92-2.41v4.9ZM99.26,56.1V53.82l.1-.06q.645.075,1.35.15c.38.04.57.2.57.46s-.2.43-.59.5l-.15.18v1.06a38.857,38.857,0,0,1-.62,8.41c-.75,2.54-2.12,4.07-4.12,4.61-.13.03-.22.01-.26-.07a.231.231,0,0,1,.11-.28,6.66,6.66,0,0,0,1.41-1.14,9.677,9.677,0,0,0,2-5.14c-.62.54-1.19,1.04-1.72,1.5a.421.421,0,0,0-.08.33c.05.28-.02.45-.23.49s-.36-.07-.46-.31c-.16-.4-.33-.8-.5-1.2-.05-.14-.02-.22.11-.23a13.983,13.983,0,0,0,2.96-1.29c.07-.99.1-2.88.1-5.68Zm-2.18,1.2h.21a3.924,3.924,0,0,1,.94.93,2.073,2.073,0,0,1,.54,1.79.647.647,0,0,1-.46.36.7.7,0,0,1-.54-.18.964.964,0,0,1-.26-.5,5.42,5.42,0,0,0-.46-2.18l.02-.21ZM94.67,68.82a.35.35,0,0,1-.2.36,1.2,1.2,0,0,1-.91.03.316.316,0,0,1-.18-.29V61.53a9.018,9.018,0,0,1-1.81,3.65c-.12.1-.22.11-.29.05-.09-.08-.08-.2.02-.36a19.022,19.022,0,0,0,1.97-6.66h-.46l-1.06.13-.15-.03c-.05-.2-.1-.39-.15-.59-.01-.05.05-.08.18-.06l1.17.11h.57V53.88l.11-.08c.39.1.81.18,1.27.26.42.08.64.25.64.52,0,.29-.2.48-.59.55l-.15.18v2.46h.26l.7-.99.23.02.83.99.11.28-.23.15h-1.9v1.06a4.525,4.525,0,0,1,.98.62q1.155.945,1.11,1.68a.648.648,0,0,1-.31.46.722.722,0,0,1-.54-.02,1.16,1.16,0,0,1-.37-.39c-.5-1.04-.79-1.61-.86-1.71v8.92Zm-9.21-3.11v-1.9H80.25l-.78.1-.15.03v1.77h6.14Zm0,2.15V66.15H79.32v1.71Zm-6.14.94q0,.18-.24.33a1.049,1.049,0,0,1-.83.05c-.15-.05-.22-.14-.21-.24V64.29a22.715,22.715,0,0,1-3.43.5c-.14-.01-.22-.05-.23-.13l.18-.18a22.127,22.127,0,0,0,7.57-2.75H75.57l-.96.13-.18-.06c-.04-.16-.1-.35-.16-.55-.01-.05.05-.08.18-.06l1.12.11h4.74V59.66H77.33l-.96.13-.18-.06c-.04-.16-.1-.35-.16-.55-.01-.05.05-.08.18-.06l1.12.11h2.98v-1.5l.1-.08c.43.08.88.15,1.35.23.42.08.63.23.63.47-.01.3-.22.48-.62.52l-.16.16v.2h.55l.93-1.01h.23l1.22.93c.16.12.22.23.18.34a.365.365,0,0,1-.34.18H81.61v1.64h1.2a13.544,13.544,0,0,0,3.4-3.09l.2-.05c.36.24.72.46,1.09.67.33.21.43.43.33.67-.11.22-.35.26-.72.11l-.23.05a24.277,24.277,0,0,1-2.1,1.64h1.81l.99-1.12h.24l1.4,1.04c.16.12.22.23.18.34a.365.365,0,0,1-.34.18H84.11a3.192,3.192,0,0,1-.42.26,20.582,20.582,0,0,1-2.68,1.38h4.25l.8-.78a.206.206,0,0,1,.33,0l.78.8c.55.56.46.94-.29,1.14l-.11.15v4.12a.408.408,0,0,1-.23.33,1.2,1.2,0,0,1-.83.06.326.326,0,0,1-.23-.31v-.57H79.34v.5Zm-.11-11.75V55.02H77l-.28.05v1.99h2.49Zm3.84,0V55.02H80.5v2.03Zm3.84,0V55.02H84.34v2.03Zm-10.17.99-.13.24a1.481,1.481,0,0,1-1.03.07l-.13-.23V54.17l-.02-.2.11-.03c.33.17.71.38,1.14.62l.33.02h9.84l.59-.59h.28l.77.65a.574.574,0,0,1,.24.46c-.01.17-.17.3-.47.37l-.07.2v2.02a.316.316,0,0,1-.18.31,1.379,1.379,0,0,1-.91.08.271.271,0,0,1-.2-.28v-.31H76.71v.55Zm-6.77-4.05.11-.07c.43.08.85.14,1.25.18.45.08.67.23.67.47-.01.26-.2.43-.57.5a.168.168,0,0,0-.16.2v12.6a1.185,1.185,0,0,1-.41.75,2.374,2.374,0,0,1-1.45.52c0-.57-.47-1.04-1.41-1.4a.232.232,0,0,1-.18-.26c.03-.11.12-.15.26-.11a11.052,11.052,0,0,0,1.48.24c.18-.01.3-.05.34-.13l.06-.26V53.99Zm-3.77,1.06.11-.08c.39.1.81.18,1.27.26.42.08.63.25.63.52,0,.29-.2.48-.59.55l-.15.18v8.43a.35.35,0,0,1-.2.36,1.2,1.2,0,0,1-.91.03.316.316,0,0,1-.18-.29V55.05ZM61.69,68.87q0,.18-.24.33a1.049,1.049,0,0,1-.83.05c-.15-.05-.22-.14-.21-.24v-7a8.9,8.9,0,0,1-3.11,3.91l-.26-.02.05-.26a13.454,13.454,0,0,0,3.04-6.51H58.32l-.96.13-.18-.06c-.04-.16-.1-.35-.16-.55-.01-.05.05-.08.18-.07l1.12.11H60.4V56c-.89.12-1.8.2-2.72.24-.17,0-.27-.05-.28-.16q0-.2.24-.21a15.871,15.871,0,0,0,5.5-1.95c.18-.05.29-.08.33-.06q.45.375.96.78a.412.412,0,0,1,.15.59c-.12.17-.36.19-.72.05a22.124,22.124,0,0,0-2.18.5v2.91h.55l.99-1.12h.25l1.4,1.04c.16.12.22.23.18.34a.365.365,0,0,1-.34.18H61.68v1.22a8.5,8.5,0,0,1,1.29.81c1.07.85,1.59,1.56,1.56,2.15a.552.552,0,0,1-.31.49.659.659,0,0,1-.55.02,1.171,1.171,0,0,1-.41-.39,16.2,16.2,0,0,0-1.58-2.44v7.89ZM52.35,57.09l.16-.05c.37.22.72.42,1.06.62q.465.27.33.57c-.09.2-.29.24-.59.13l-.2.03a10.164,10.164,0,0,1-3.34,2.62,10.189,10.189,0,0,0,5.06,5.27.222.222,0,0,1,.15.28c-.02.09-.11.13-.28.13a1.328,1.328,0,0,0-1.3.63l-.26.03a8.766,8.766,0,0,1-1.38-1.25,17.164,17.164,0,0,1-3.74-7.66v9.5a1.185,1.185,0,0,1-.41.75,2.438,2.438,0,0,1-1.45.52c-.07-.54-.54-.95-1.42-1.22a.215.215,0,0,1-.2-.24c.02-.1.1-.14.24-.13a11.91,11.91,0,0,0,1.46.13.462.462,0,0,0,.39-.16l.07-.29V53.94l.11-.06c.43.08.85.14,1.25.18.45.08.67.23.67.47-.01.26-.2.43-.57.5a.168.168,0,0,0-.16.2v.29a23.169,23.169,0,0,0,1.58,5.11,7.405,7.405,0,0,0,2.75-3.53ZM41.66,58.95h2.65l.72-.7h.23l.81.72a.407.407,0,0,1,.18.44c-.05.19-.23.28-.54.29l-.11.1a10.831,10.831,0,0,1-5.37,7.58L40,67.33l.07-.23a12.414,12.414,0,0,0,2.99-3.47,9.862,9.862,0,0,0,1.33-4.25H41.66l-.89.13c-.14.04-.22.04-.23,0q-.075-.315-.15-.6l.16-.07,1.11.1ZM30.65,61.03h4.44V55.74H30.65Zm-1.29-5.29H25.19l-.36.05v5.24h4.52V55.74Zm0,11.28V61.47H24.84v5.55Zm5.73,0V61.47H30.65v5.55ZM24.84,68.37a.341.341,0,0,1-.18.29,1.375,1.375,0,0,1-.94,0,.315.315,0,0,1-.16-.29V54.65c0-.15.07-.18.2-.08.29.18.66.42,1.09.72l.36.02h9.85l.76-.77.25.02.85.85a.665.665,0,0,1,.21.47c-.02.18-.22.33-.59.42a.248.248,0,0,0-.15.28v11.7a.337.337,0,0,1-.16.31,1.226,1.226,0,0,1-.99.03l-.13-.24v-.91H24.86v.91Zm-6.7-3.87.2-.02c.25.24.54.49.86.76.28.26.36.49.23.68-.15.17-.38.16-.68-.03l-.23-.02a7.6,7.6,0,0,1-2.47.86,9.683,9.683,0,0,0,4.25,1.09c.14,0,.22.05.23.16,0,.09-.07.15-.2.18a1.535,1.535,0,0,0-1.07,1.04c-.03.1-.11.13-.24.1a7.1,7.1,0,0,1-4.62-2.78,4.911,4.911,0,0,1-1.17-2.26H11.28v2.88c.69-.15,1.42-.34,2.18-.57.16-.06.28-.04.34.06a.228.228,0,0,1-.1.29,14.272,14.272,0,0,1-3.39,1.32c-1.05.28-1.57.49-1.56.62.03.3-.05.48-.26.52A.432.432,0,0,1,8,69.07c-.18-.46-.36-.91-.54-1.37-.04-.13,0-.2.13-.2.84-.02,1.63-.07,2.39-.15V64.24H7.8q-.36,3.795-2.32,5.08c-.14.06-.24.06-.31-.02-.07-.12,0-.27.2-.44q1.2-1.98,1.2-6.3V60.14c.01-.15.08-.19.21-.11.36.22.79.48,1.28.78h9.47l1.04-1.06h.33l1.37,1.01a.358.358,0,0,1,.16.33c-.03.1-.13.15-.29.16H16.69l1.29.98c.16.12.22.23.18.34a.365.365,0,0,1-.34.18H10.25l-.96.13-.18-.07c-.04-.16-.1-.35-.16-.55-.01-.05.05-.08.18-.06l1.12.11h5.22l.94-1.06H7.86v1.32c0,.42-.02.84-.05,1.24h9.75l1.07-1.11a.216.216,0,0,1,.34,0l1.46,1.06a.358.358,0,0,1,.16.33c-.03.1-.13.15-.29.16H13.74a6.712,6.712,0,0,0,1.73,2.12,9.713,9.713,0,0,0,2.65-1.89ZM10.6,55.68H9.18l-.41.05v1.53h1.82V55.68Zm0,2.02H8.78v1.58H10.6Zm4.36-.44H16.8V55.68H14.96Zm-1.3-1.58H11.9v1.58h1.76Zm1.3,3.6H16.8V57.7H14.96Zm-1.3-1.58H11.9v1.58h1.76Zm2.93-2.46.8-.78c.12-.11.23-.11.32,0l.78.8c.55.56.46.94-.29,1.14l-.11.15v3.34a.408.408,0,0,1-.23.33,1.262,1.262,0,0,1-.83.07.336.336,0,0,1-.23-.31v-.24H8.78v.23l-.13.24a1.456,1.456,0,0,1-1.02.07l-.13-.23V54.86l-.02-.2.11-.03c.33.17.71.38,1.14.62l.45.02H10.6V53.84l.1-.08c.43.08.88.15,1.35.23.42.08.64.23.64.47-.01.3-.22.48-.62.52l-.16.16v.13h1.76V53.84l.1-.08c.43.08.88.15,1.35.23.42.08.64.23.64.47-.01.3-.22.48-.62.52l-.16.16v.13h1.63Z" fill="#191919"/>
    </g>
  </g>
</svg>
