<svg xmlns="http://www.w3.org/2000/svg" xmlns:xlink="http://www.w3.org/1999/xlink" width="246.481" height="73.506" viewBox="0 0 246.481 73.506">
  <defs>
    <clipPath id="clip-path">
      <rect id="Rectangle_344" data-name="Rectangle 344" width="246.481" height="73.506" transform="translate(0 0)" fill="none"/>
    </clipPath>
  </defs>
  <g id="logo-platform" transform="translate(0 0)">
    <g id="Group_125" data-name="Group 125" clip-path="url(#clip-path)">
      <path id="Path_742" data-name="Path 742" d="M18.088,41.2l.1.041a60.27,60.27,0,0,0,19.346,3.332,39.351,39.351,0,0,0,17.05-3.565A31.781,31.781,0,0,0,69.173,26.58a2.681,2.681,0,0,0-2.021-3.9,27.252,27.252,0,0,0,1.236-8.41,37,37,0,0,0-1.119-9.03,2.682,2.682,0,0,0-5.259.518h0a1.054,1.054,0,0,1-.117.253,5.609,5.609,0,0,1-.917,1.1,16.4,16.4,0,0,1-2.124,1.695c-.325.222-.607.4-.8.519-.1.06-.172.105-.22.133l-.051.03-.01.005h0c-.564.29-1.1.593-1.613.9A6.331,6.331,0,0,0,43.835,8.861a2.669,2.669,0,0,0-.428-.422A12.02,12.02,0,0,0,40.348,6.7a21.94,21.94,0,0,1-6.053-3.85,10.744,10.744,0,0,1-1.133-1.219c-.1-.135-.17-.23-.2-.278l-.024-.036h0a2.676,2.676,0,0,0-4.906.722,5.924,5.924,0,0,0-1.631-1,7.088,7.088,0,0,0-2.7-.5,3.119,3.119,0,0,0-.374.026,4.842,4.842,0,0,0-1.093.307,6.2,6.2,0,0,0-2.771,2.257,8.982,8.982,0,0,0-1.41,5.186,15.971,15.971,0,0,0,.133,2c-.257-.184-.508-.371-.782-.542a11.737,11.737,0,0,0-6.209-1.836,11.3,11.3,0,0,0-1.388.086l-.244.041a12.567,12.567,0,0,0-4.836,2.437,12.27,12.27,0,0,0-3.274,4.035A14.281,14.281,0,0,0,0,21.06q0,.65.048,1.336l.016.156a17.789,17.789,0,0,0,2.971,6.991C5.525,33.295,10.1,37.8,18.088,41.2M44.321,32.69h0s-.194,0-.56-.038a19.97,19.97,0,0,1-2.892-.52,2.656,2.656,0,0,0,.972-1.294c1.263.564,2.183,1.083,2.346,1.18a2.671,2.671,0,0,0,3.578-.835c.088.342.177.684.268.985.055.181.11.353.165.518-.6.045-1.209.077-1.845.078q-.917,0-1.886-.068Zm4.952-15.479c-.075.132-.137.266-.208.4-.038-.162-.085-.313-.126-.472.117.017.234.034.353.044l-.019.03m8.5-7.712h0Z" fill="#fff"/>
      <path id="Path_743" data-name="Path 743" d="M113.7,43.116h0v0Z" fill="#fff"/>
      <path id="Path_744" data-name="Path 744" d="M74.716,36.567A3.036,3.036,0,0,0,77.04,37.64a3.262,3.262,0,0,0,1.174-.222,3.956,3.956,0,0,0,.773-.4l.311-.242a30.005,30.005,0,0,0,4.319-4.95v7.052c0,.953.02,1.712.071,2.346a8.011,8.011,0,0,0,.121.923,4.04,4.04,0,0,0,.143.54,3.052,3.052,0,0,0,.444.853,2.666,2.666,0,0,0,.824.729,4.144,4.144,0,0,0,2.072.517,4.619,4.619,0,0,0,1.128-.132,3.7,3.7,0,0,0,1.259-.575,2.494,2.494,0,0,0,.338-.286,3.541,3.541,0,0,0,.833-1.347,4.61,4.61,0,0,0,.235-1.18,2.274,2.274,0,0,0,0-.286c-.013-.4-.02-.772-.02-1.11s.007-.644.019-.913l0-.12v-9.1a6.557,6.557,0,0,1,.678,1.1l.022.046a4.042,4.042,0,0,0,1.222,1.482,3.577,3.577,0,0,0,2.112.686,4.158,4.158,0,0,0,1.678-.37,2.891,2.891,0,0,0,.3-.154A3.587,3.587,0,0,0,98.255,31.4a14.341,14.341,0,0,0,.081,1.673,5.175,5.175,0,0,0,.168.845,3.379,3.379,0,0,0,.219.564,2.968,2.968,0,0,0,.57.8l.142.132a3.677,3.677,0,0,0,1.18.683,3.75,3.75,0,0,0,1.059.2V36.3c.127.01.257.016.392.016a4.161,4.161,0,0,0,1.053-.132,3.554,3.554,0,0,0,1.157-.54,2.778,2.778,0,0,0,.56-.539,3.518,3.518,0,0,0,.552-1.048,6.056,6.056,0,0,0,.257-1.212c.046-.394.071-.8.083-1.257V12.965a5.127,5.127,0,0,0,.6-.376,3.7,3.7,0,0,0,.889-.938,3.263,3.263,0,0,0,.527-1.559l0-.047,0-.184a3.232,3.232,0,0,0-.4-1.566,3.309,3.309,0,0,0-.714-.885,3.856,3.856,0,0,0-1.134-.683,5.492,5.492,0,0,0-1.019-.286l-.2-.03q-1.4-.153-2.719-.389a2.23,2.23,0,0,0-.257-.033c-.094-.007-.2-.012-.31-.012a3.335,3.335,0,0,0-.651.062,2.967,2.967,0,0,0-.679.22,2.8,2.8,0,0,0-.621.391c.006-.079.029-.15.029-.23a3.215,3.215,0,0,0-.2-1.106,3.444,3.444,0,0,0-.736-1.173,4.307,4.307,0,0,0-.758-.631v0Q96.5,2.9,95.4,2.127l-.08-.054a2.979,2.979,0,0,0-1.62-.48,3.255,3.255,0,0,0-1.528.393,4.229,4.229,0,0,0-.613.4,17.532,17.532,0,0,1-2.341,1.186A54.336,54.336,0,0,1,77.6,6.835a3.862,3.862,0,0,0-.6.107,3.508,3.508,0,0,0-.772.308,3.08,3.08,0,0,0-1.614,2.726c0,.117.006.208.012.275l0,.041a3.018,3.018,0,0,0,1.238,2.163,3.248,3.248,0,0,0,1.177.531,3.986,3.986,0,0,0,.911.1l.278-.008.047,0c1.505-.111,3.452-.329,5.337-.6v2.014h-6.16a3.1,3.1,0,0,0-.561.051,2.774,2.774,0,0,0-2.116,3.693c.032.088.065.158.1.229h0a3.239,3.239,0,0,0,.159.305l0,0a7.963,7.963,0,0,0,.4.747l.129.188a3.169,3.169,0,0,0,1.1.914,3.47,3.47,0,0,0,1.086.332,2.817,2.817,0,0,0,.367.025h3.372a33.256,33.256,0,0,1-6.514,11.211l0,0a3.588,3.588,0,0,0-.639.873,3.173,3.173,0,0,0,.176,3.243ZM96.6,28.49Zm1.658-1.61a11.22,11.22,0,0,0-3.5-3.8,19.083,19.083,0,0,0-3.658-1.95v-.161h6.243a3.46,3.46,0,0,0,.919-.127ZM98.1,9.485a11.534,11.534,0,0,1,.157,1.529V14.2c-.476-.4-.951-.778-1.426-1.131h0l-.01-.006-.034-.027,0,0a3.339,3.339,0,0,0-.776-.441,3.146,3.146,0,0,0-1.158-.224,3.114,3.114,0,0,0-1.356.314,3.19,3.19,0,0,0-.756.52l0-.005c-.485.418-.954.854-1.423,1.289h-.216v-3.7c.854-.27,1.634-.512,2.284-.7.548-.16,1.011-.283,1.341-.358.135-.03.238-.05.315-.063a4.359,4.359,0,0,0,.6.051,3.6,3.6,0,0,0,1.647-.384,3.152,3.152,0,0,0,.742-.526l0,.031a2.936,2.936,0,0,0,.075.647" fill="#fff"/>
      <path id="Path_745" data-name="Path 745" d="M108.1,4.392a28.328,28.328,0,0,1,.152,2.869v29.08c-.858-.014-2.034-.083-3.518-.221l-.07,0-.275-.009a3.622,3.622,0,0,0-.888.106,3.144,3.144,0,0,0-2.356,2.513l-.032.241c-.011.118-.014.222-.014.308a3.309,3.309,0,0,0,.192,1.121,3.162,3.162,0,0,0,1.209,1.546,3.342,3.342,0,0,0,1.211.5c.875.209,1.574.4,2.062.554.154.049.278.092.385.132a2.9,2.9,0,0,0,.184.425,2.986,2.986,0,0,0,.694.817,3.1,3.1,0,0,0,1.185.6,3.609,3.609,0,0,0,.929.117,4.5,4.5,0,0,0,.524-.032,3.079,3.079,0,0,0,.392-.075,9.376,9.376,0,0,0,3.632-1.86,5.406,5.406,0,0,0,1.571-2.276,7.975,7.975,0,0,0,.457-2.614V7.943a4.638,4.638,0,0,0,.459-.3,3.538,3.538,0,0,0,.955-1.106,3.326,3.326,0,0,0,.4-1.591,3.631,3.631,0,0,0-.219-1.261,3.427,3.427,0,0,0-1.327-1.668,3.907,3.907,0,0,0-1.578-.588h0q-1.5-.243-2.842-.486l-.214-.03c-.1-.01-.208-.016-.318-.016a3.022,3.022,0,0,0-1.157.227,2.93,2.93,0,0,0-1.67,1.834,3.233,3.233,0,0,0-.148.985,3.415,3.415,0,0,0,.034.449Z" fill="#fff"/>
      <path id="Path_746" data-name="Path 746" d="M162.382,32.937h0a8.463,8.463,0,0,0,.406.766l.134.2a3.154,3.154,0,0,0,1.112.922,3.494,3.494,0,0,0,1.087.333,3.036,3.036,0,0,0,.369.025h6.262a26.558,26.558,0,0,1-7.005,3.881l0,0a3.3,3.3,0,0,0-.7.35A3.126,3.126,0,0,0,163,40.607a3.2,3.2,0,0,0-.333,1.432,3.075,3.075,0,0,0,.037.4h-.01c0,.043.017.1.023.141,0,.025,0,.058.007.081h.006a3.073,3.073,0,0,0,.2.725,3,3,0,0,0,1.258,1.427,3.1,3.1,0,0,0,1.557.41,3.633,3.633,0,0,0,.671-.065h0a29.4,29.4,0,0,0,13.134-6.424l.055,0a3.594,3.594,0,0,0,3.257-1.987,2.718,2.718,0,0,0,.209-.544,3.538,3.538,0,0,0,.118-.9c0-.042-.009-.086-.011-.129h3.674c0,.021,0,.052,0,.071a3.141,3.141,0,0,0,.209,1.132,3.243,3.243,0,0,0,.918,1.295,3.8,3.8,0,0,0,1.012.617l.182.069a25.077,25.077,0,0,1,9.9,6l.072.07a4.7,4.7,0,0,0,2.4,1.222l.242.03c.107.009.214.013.324.013a3.986,3.986,0,0,0,1.491-.287,4.085,4.085,0,0,0,1.25-.8,3.966,3.966,0,0,0,.943-1.329,3.789,3.789,0,0,0,.136-.44,2.558,2.558,0,0,0,.086.3,2.815,2.815,0,0,0,.564.871,2.855,2.855,0,0,0,1.2.746,3.1,3.1,0,0,0,.939.143,4.057,4.057,0,0,0,1-.135,7.65,7.65,0,0,0,.883-.287l.119-.049a8.323,8.323,0,0,0,2.936-2.4,10.832,10.832,0,0,0,1.763-3.218c0-.013.008-.029.012-.043v3.362a2.684,2.684,0,0,0,2.684,2.683h24.444a2.682,2.682,0,0,0,2.323-4.026,17.726,17.726,0,0,0-2.347-3.1,4.766,4.766,0,0,0,2.372-5.261,2.632,2.632,0,0,0,.631-.453,2.7,2.7,0,0,0,.786-1.9V28.663a2.61,2.61,0,0,0-1.464-2.376,2.627,2.627,0,0,0,.046-.46V24.632a2.637,2.637,0,0,0,.632-.453,2.7,2.7,0,0,0,.786-1.9V20.863a2.674,2.674,0,0,0-2.128-2.622V8.1a2.684,2.684,0,0,0-2.683-2.683h-5.826V5.045a2.678,2.678,0,0,0-2.381-2.666c-.647-.074-1.218-.16-1.956-.272l-.194-.023c-.121-.009-.234-.013-.346-.013a4.217,4.217,0,0,0-1.077.133,3.04,3.04,0,0,0-.94.418,2.809,2.809,0,0,0-.755.741,2.773,2.773,0,0,0-.489,1.567,3.151,3.151,0,0,0,.033.387h-.005l0,.022-.015.067,0,.01h-1.8V5.025a2.707,2.707,0,0,0-.214-1.052A2.723,2.723,0,0,0,224,2.493a3.189,3.189,0,0,0-.506-.146c-.191-.039-.33-.059-.481-.08-.433-.059-.943-.114-1.245-.16l-.193-.022c-.109-.009-.22-.014-.336-.014a3.44,3.44,0,0,0-1.236.214,2.862,2.862,0,0,0-1.061.689,2.784,2.784,0,0,0-.794,1.946,2.934,2.934,0,0,0,.033.4h0c.006.038.008.064.013.1h-5.749A2.684,2.684,0,0,0,209.761,8.1V18.385c-.076.029-.151.056-.232.1a2.773,2.773,0,0,0-1.54,2.485,2.866,2.866,0,0,0,.161.94,2.926,2.926,0,0,0,.119.285c.014.033.063.159.134.336.067.156.156.357.288.6a13.4,13.4,0,0,0-1.214,5.63,15.471,15.471,0,0,0,.329,3.12h0v0a21.473,21.473,0,0,1,.281,3.406,11.866,11.866,0,0,1-.343,3.049,4.318,4.318,0,0,1-.412,1.023,1.554,1.554,0,0,1-.4.474,2.7,2.7,0,0,0-.79.921c-.026.05-.055.11-.087.184a2.534,2.534,0,0,0-.064-.257,5.834,5.834,0,0,0-1.048-1.939,10.162,10.162,0,0,0-2.474-2.136,21.666,21.666,0,0,0-2.664-1.43h4.384l.2-.008a3.83,3.83,0,0,0,1.443-.38,3.26,3.26,0,0,0,.838-.6,3.13,3.13,0,0,0,.658-.964l.017-.041A3.1,3.1,0,0,0,207.579,32a3.207,3.207,0,0,0-.4-1.529,3.681,3.681,0,0,0-.562-.766l0,0c-.021-.024-.045-.044-.066-.068s-.033-.039-.05-.056l0,0a15.343,15.343,0,0,0-2.344-2.134l-.1-.07a3.24,3.24,0,0,0-.938-.417L203.7,9.928a4.8,4.8,0,0,0,.593-.388,3.681,3.681,0,0,0,.937-1.1,3.374,3.374,0,0,0,.418-1.623,3.552,3.552,0,0,0-.246-1.286,4.245,4.245,0,0,0-.509-.933,2.566,2.566,0,0,0-.287-.338,11.811,11.811,0,0,0-2.9-2.171v0c-.017-.01-.039-.019-.057-.028s-.042-.025-.064-.036v0a3.129,3.129,0,0,0-1.448-.362,2.951,2.951,0,0,0-2.03.794l-.006-.006c-.3.266-.537.469-.741.642H193.73a2.684,2.684,0,0,0-.705.105c-.221-.152-.445-.3-.679-.433l-.009,0a3.221,3.221,0,0,0-1.58-.42,3.258,3.258,0,0,0-1.893.62l-.3.252c-.262.254-.461.427-.62.557h-7.1c-.637-.382-1.273-.739-1.91-1.046l-.075-.035c-.109-.045-.237-.094-.381-.14a4.575,4.575,0,0,0-.921-.475l-.02-.007c-.722-.26-1.536-.546-2.448-.859h0a2.918,2.918,0,0,0-1-.182,2.978,2.978,0,0,0-1.285.294,3.323,3.323,0,0,0-1.041.79,4.16,4.16,0,0,0-.388.511l-.042.047a9.57,9.57,0,0,1-1.068.935c-.264.206-.57.435-.913.683-.154-.069-.3-.139-.459-.208l-.071-.03a3.22,3.22,0,0,0-1.214-.244,2.876,2.876,0,0,0-1.065.2,2.8,2.8,0,0,0-.875.552,2.845,2.845,0,0,0-.765,1.2,2.98,2.98,0,0,0-.147.932,3.248,3.248,0,0,0,.02.357,2.034,2.034,0,0,0,.041.258c.093.442.191.993.29,1.627l.81,19.735h-1.1a3.149,3.149,0,0,0-.565.051,2.8,2.8,0,0,0-1.411.708,2.756,2.756,0,0,0-.876,2.019,2.809,2.809,0,0,0,.169.962,3.013,3.013,0,0,0,.251.529m61.963,3.621a30.479,30.479,0,0,1,5.08,1.19c.266.088.532.186.8.285h-5.877ZM194.3,17.736h1.619l-.045,1.449H194.3Zm1.38,7.959-.076,2.973h-1.3V25.695ZM174.915,10.382a2.782,2.782,0,0,0-.777-.12,2.924,2.924,0,0,0-1.354.336c-.044.024-.072.048-.113.072l-.013-.323c.747-.3,1.5-.62,2.257-.99Zm0,15.483v2.8H173.43l-.131-2.8ZM196.181,9.608l-.053,1.618H194.3v-.837l.013-.006a3.734,3.734,0,0,0,.889-.775Z" fill="#fff"/>
      <path id="Path_747" data-name="Path 747" d="M119.465,41.918l.016.031,0,.014h0a3.053,3.053,0,0,0,.959,1.181,2.992,2.992,0,0,0,1.759.573,3.133,3.133,0,0,0,.984-.159,3.636,3.636,0,0,0,.668-.3,2.8,2.8,0,0,0,.4-.275,45.02,45.02,0,0,0,7.433-7.475l.012-.016a36.515,36.515,0,0,0,5.03-10.07V44.438a2.668,2.668,0,0,0,4.342,2.093l.08-.038a5.259,5.259,0,0,0,2.555-2.665,6.966,6.966,0,0,0,.516-2.778V24.29a47.655,47.655,0,0,0,6.164,12.071,29.535,29.535,0,0,0,6.876,7.164,2.638,2.638,0,0,0,.73.339,4.878,4.878,0,0,0,1.352.21,3.465,3.465,0,0,0,1.252-.227,3.128,3.128,0,0,0,.964-.593,3.076,3.076,0,0,0,.848-1.3,3.213,3.213,0,0,0,.167-1.028,3.272,3.272,0,0,0-.143-.972,2.694,2.694,0,0,0-1.194-1.523,15.162,15.162,0,0,1-5.312-6.076,44.668,44.668,0,0,1-4.091-13.142c-.219-1.3-.374-2.48-.489-3.5.077.088.141.189.224.271a5.173,5.173,0,1,0-1.17-5.368,2.668,2.668,0,0,0-2.03-.948h-4.148V4.089a2.681,2.681,0,0,0-2.258-2.65c-.73-.117-1.487-.23-2.179-.34l-.194-.024c-.087-.007-.181-.013-.287-.013a3.028,3.028,0,0,0-.988.163,2.849,2.849,0,0,0-1.793,1.858,3.053,3.053,0,0,0-.134.912,3.744,3.744,0,0,0,.052.618,26.748,26.748,0,0,1,.288,2.813v4.4a2.54,2.54,0,0,0-.275-.03h-13.11a2.684,2.684,0,0,0-2.577,3.434l.207.71a2.686,2.686,0,0,0,2.577,1.933H129.7c-.112.839-.267,1.715-.4,2.393-.074.378-.141.7-.189.916-.023.111-.042.2-.055.254l-.018.08a2.458,2.458,0,0,0-.039.3,39.482,39.482,0,0,1-2.634,7.979,26.088,26.088,0,0,1-5.5,7.68,4.8,4.8,0,0,0-.965.943,3.764,3.764,0,0,0-.507.909,3.39,3.39,0,0,0-.225,1.208,3.347,3.347,0,0,0,.307,1.384Z" fill="#fff"/>
      <path id="Path_748" data-name="Path 748" d="M141.675,46.2l0,0,0,0Z" fill="#fff"/>
      <path id="Path_749" data-name="Path 749" d="M245.688,57.192a13.18,13.18,0,0,0-1.673-2.251l-.027-.03a12.81,12.81,0,0,0-3.208-2.585h0l-.014-.007-.015-.009h0a2.9,2.9,0,0,0-1.382-.356,2.777,2.777,0,0,0-.882.156c0-.013,0-.022,0-.035a3.156,3.156,0,0,0-.325-1.394,3.338,3.338,0,0,0-1.2-1.323,4.444,4.444,0,0,0-1.145-.515l-.026-.007c-.6-.172-1.2-.358-1.807-.557l0,.009a2.671,2.671,0,0,0-.9-.158,2.778,2.778,0,0,0-2.692,2.074l-.006,0c-.383,1.35-.75,2.5-1.091,3.428a16.5,16.5,0,0,1-.854,1.991c-.565-.037-1.114-.082-1.64-.137l-.121-.01-.22-.007a3.331,3.331,0,0,0-.621.058,2.992,2.992,0,0,0-.657.207,2.807,2.807,0,0,0-1.666,2.569,2.806,2.806,0,0,0,.082.666h0c.044.189.084.371.126.559l-.8-.6a4.6,4.6,0,0,0-.239-1.245,6.831,6.831,0,0,0-.943-1.746c-.058-.08-.128-.158-.189-.238a3.2,3.2,0,0,0,1-.329,3.067,3.067,0,0,0,1.315-1.343l.091-.2a2.931,2.931,0,0,0,.207-1.078,2.993,2.993,0,0,0-.552-1.718,3.467,3.467,0,0,0-.786-.792l.01.008-1.794-1.335h0a2.821,2.821,0,0,0-1.753-.6,2.891,2.891,0,0,0-1.183.256,3.01,3.01,0,0,0-.737.473l-.253.25-.471.533H205.692l-1.305-.132-.046,0c-.088-.007-.186-.012-.3-.012a2.867,2.867,0,0,0-1.226.257,2.772,2.772,0,0,0-1.079.872,2.457,2.457,0,0,0-.229.369l-.8-.864-.079-.081a2.988,2.988,0,0,0-.807-.573,2.874,2.874,0,0,0-2.291-.089,3,3,0,0,0-.726.407l-.235.2-.244.234h-1.5c-.025-.054-.037-.117-.065-.168a3.266,3.266,0,0,0-1.247-1.262,4.256,4.256,0,0,0-1-.41v0q-.826-.252-1.694-.508v0a2.711,2.711,0,0,0-3.437,1.662l-.073-.056,0,0a2.847,2.847,0,0,0-2.95-.375,3.008,3.008,0,0,0-.738.469l-.256.25-.416.467-1.168-.119-.04,0c-.092-.008-.193-.013-.308-.013a2.858,2.858,0,0,0-1.238.264c-.027.012-.059.031-.087.045a3.5,3.5,0,0,0-.292-.325l.007-.007-1.085-1.086,0,0a2.809,2.809,0,0,0-.564-.464,2.832,2.832,0,0,0-2.8-.106,2.976,2.976,0,0,0-.75.552l.007-.007-.195.195H162.346l-.895-.585v0a2.771,2.771,0,0,0-3.921.72,2.843,2.843,0,0,0-.418,1.011,3.142,3.142,0,0,0-.06.618v2.693a3.122,3.122,0,0,0-.466-.08V53.77a10.568,10.568,0,0,1-3.676-1.005,10.7,10.7,0,0,1-2.182-1.429,3.127,3.127,0,0,0-.2-.72,3.3,3.3,0,0,0-1.019-1.31,4.079,4.079,0,0,0-1.048-.583l-.144-.051c-.44-.142-.876-.3-1.314-.487a2.762,2.762,0,0,0-1.068-.208,2.894,2.894,0,0,0-1.6.487,2.947,2.947,0,0,0-.915.985l-.065.12a10.751,10.751,0,0,1-2.786,3.441,15.71,15.71,0,0,1-4.582,2.543l0,0a3.2,3.2,0,0,0-.344.149V54.081a3.191,3.191,0,0,0,.631-.883,3.272,3.272,0,0,0,.305-1.253l0-.113a3.127,3.127,0,0,0-.4-1.525,3.2,3.2,0,0,0-.7-.85,3.6,3.6,0,0,0-1.071-.63,4.878,4.878,0,0,0-.917-.246l-.175-.024c-.445-.046-.918-.114-1.423-.2a2.7,2.7,0,0,0-1.787.309l-.146.083a2.655,2.655,0,0,0-1.134,1.312c-.045-.009-.093-.025-.137-.033l-.037-.007c-.528-.086-1-.183-1.4-.286a2.666,2.666,0,0,0-1.4.035c-.411-.331-.8-.647-1.166-.947a2.633,2.633,0,0,0-.863-.475,2.724,2.724,0,0,0-.87-.139,3.137,3.137,0,0,0-.462.036,5.466,5.466,0,0,0-.664.153,2.621,2.621,0,0,0-.726.331,17.465,17.465,0,0,1-6.069,2.113,3.146,3.146,0,0,0-.5.118,3,3,0,0,0-.749.371,2.916,2.916,0,0,0-.982,1.15,2.958,2.958,0,0,0-.284,1.273,2.31,2.31,0,0,0,.014.276c.006.059.031.127.041.189-.053-.057-.107-.13-.158-.18a4.22,4.22,0,0,0-.776-.577l-.007,0q-.645-.375-1.342-.785l-.043-.025a2.857,2.857,0,0,0-1.416-.377,2.786,2.786,0,0,0-.93.159,2.817,2.817,0,0,0-1.134.754,2.86,2.86,0,0,0-.513.8l-.076.2c-.035-.137-.063-.288-.1-.428a3.209,3.209,0,0,0,.4-.629,3.285,3.285,0,0,0,.309-1.25l0-.124a3.139,3.139,0,0,0-.4-1.526,3.2,3.2,0,0,0-.7-.851,3.568,3.568,0,0,0-1.076-.631,4.8,4.8,0,0,0-.919-.243l-.158-.022q-.675-.074-1.426-.205L102,48.253a2.866,2.866,0,0,0-.4-.027A2.764,2.764,0,0,0,98.819,51V53.85a2.835,2.835,0,0,0-.608.218,2.957,2.957,0,0,0-.77.555l.019-.019-.137.134H95.132l-1.3-.114h0c-.089-.008-.186-.015-.3-.015a3.049,3.049,0,0,0-.593.058,2.789,2.789,0,0,0-1.8,1.217,2.615,2.615,0,0,0-.221.426v-.669a3.145,3.145,0,0,0,.425-.508,3.084,3.084,0,0,0,.5-1.344,2.5,2.5,0,0,0,.014-.441,3.608,3.608,0,0,0-.311-1.311,3.484,3.484,0,0,0-.749-1.056l.006-.006-1.086-1.085,0,0a2.805,2.805,0,0,0-.559-.46,2.833,2.833,0,0,0-2.8-.109,3.013,3.013,0,0,0-.75.552l-.188.189H74.293c-.294-.194-.57-.374-.816-.528a3,3,0,0,0-.382-.215,2.814,2.814,0,0,0-1.2-.269,2.757,2.757,0,0,0-2.286,1.212,2.842,2.842,0,0,0-.428,1.019,3.071,3.071,0,0,0-.063.63V57.57l-1.638-1.209v-.625a3.049,3.049,0,0,0,.974-2.256,3.4,3.4,0,0,0-.465-1.693,4.742,4.742,0,0,0-.754-.979h0l-1-1.021,0,.005a2.962,2.962,0,0,0-.765-.582,2.912,2.912,0,0,0-1.346-.331,2.828,2.828,0,0,0-.987.189,3.792,3.792,0,0,0-.761-.433,4.647,4.647,0,0,0-.914-.257l-.054-.009q-.872-.139-1.693-.285a2.657,2.657,0,0,0-1.855.365c-.107-.026-.214-.052-.318-.071l-.055-.01c-.582-.092-1.146-.188-1.693-.284a2.688,2.688,0,0,0-2.179.581l-.125.1a2.684,2.684,0,0,0-.66.836l-.218-.118a2.671,2.671,0,0,0-1.99-.217l-.146.041a2.685,2.685,0,0,0-1.95,2.792l.012.148v4.394a2.8,2.8,0,0,0-.5.449,2.845,2.845,0,0,0-.55,1.006,3.111,3.111,0,0,0-.129.689l-.007.2v3.108c0,.63-.022,1.209-.053,1.762V54.892a3.128,3.128,0,0,0,.425-.507,3.087,3.087,0,0,0,.495-1.333,2.715,2.715,0,0,0,.015-.477,3.638,3.638,0,0,0-.31-1.286,3.472,3.472,0,0,0-.75-1.055l.007-.007-1.084-1.085,0,0a2.793,2.793,0,0,0-.563-.463,2.832,2.832,0,0,0-2.79-.112,2.968,2.968,0,0,0-.736.534l-.017.016-.195.195H29.874l-.922-.6h0a3.016,3.016,0,0,0-.413-.234,2.826,2.826,0,0,0-1.2-.266,2.775,2.775,0,0,0-2.714,2.237,3.084,3.084,0,0,0-.062.624v2.155a4.292,4.292,0,0,0-.732-.461q-.688-.333-1.41-.684l0,0c-.037-.019-.071-.037-.113-.056,0-.037.011-.079.012-.115l0-.111A3.312,3.312,0,0,0,22.1,50.6a3.232,3.232,0,0,0-1.259-1.537,3.69,3.69,0,0,0-1.422-.531l-.028,0q-.768-.115-1.545-.27l-.155-.026a2.85,2.85,0,0,0-.4-.028,2.97,2.97,0,0,0-.784.126c-.087-.015-.177-.034-.259-.043l-.052-.006c-.572-.054-1.123-.114-1.648-.18a2.677,2.677,0,0,0-1.838.44l-.125.085a2.676,2.676,0,0,0-1.118,1.727,3.331,3.331,0,0,0-1.318-1.365,4.21,4.21,0,0,0-1.339-.468l-.044-.008c-.531-.086-1-.183-1.4-.285a2.68,2.68,0,0,0-2.235.426l-.144.1a2.683,2.683,0,0,0-1.111,2.175v2.176a2.87,2.87,0,0,0-.87.244,2.737,2.737,0,0,0-1.592,2.487,2.7,2.7,0,0,0,.055.546l.012.059c.057.252.122.508.192.766v.006c.01.036.017.072.028.108l.008,0a2.68,2.68,0,0,0,.385.84,2.764,2.764,0,0,0,1.117.926,17.285,17.285,0,0,1-1.657,4.6h0a3.42,3.42,0,0,0-.276.593A3.086,3.086,0,0,0,1.107,65.3a2.9,2.9,0,0,0,1,2.2h0a2.914,2.914,0,0,0,.852.513,2.855,2.855,0,0,0,.912.181v2.013A3.088,3.088,0,0,0,5.521,72.95a3.259,3.259,0,0,0,.363.161,4.1,4.1,0,0,0,2.934-.039,3,3,0,0,0,.715.09,3.247,3.247,0,0,0,.8-.1l.03-.008a9.2,9.2,0,0,0,4.548-2.791l.005-.006a4.427,4.427,0,0,0,.639,1.158h0a3.647,3.647,0,0,0,1.226.986,5.718,5.718,0,0,0,1.684.516,12.7,12.7,0,0,0,1.749.142h.054a19.382,19.382,0,0,0,2.135-.1,6.612,6.612,0,0,0,1.894-.455l.106-.048a4.43,4.43,0,0,0,.716-.439,3.147,3.147,0,0,0,.972.914,2.387,2.387,0,0,0,.39.191,4.223,4.223,0,0,0,1.549.291,4.838,4.838,0,0,0,1.428-.223,2.543,2.543,0,0,0,.584-.259A3.186,3.186,0,0,0,31,72.017h9.83a2.971,2.971,0,0,0,1.2,1,4.041,4.041,0,0,0,1.638.345A4.58,4.58,0,0,0,45.414,73a2.329,2.329,0,0,0,.37-.186,2.9,2.9,0,0,0,.434-.323,2.9,2.9,0,0,0,1,.744,2.944,2.944,0,0,0,1.194.253,3.144,3.144,0,0,0,1.693-.5c.091-.059.168-.135.256-.2.02.016.035.034.056.05a3.2,3.2,0,0,0,1.95.661,3.421,3.421,0,0,0,.477-.034l.187-.033a3.127,3.127,0,0,0,1.047-.432,3.055,3.055,0,0,0,.9-.916c.156-.046.325-.094.518-.145h0a22.51,22.51,0,0,0,4.017-1.453,12.691,12.691,0,0,0,5.8,2.816v0c.019,0,.043.008.063.012l.053.014v0a3.064,3.064,0,0,0,.646.073,3.01,3.01,0,0,0,.789-.107,2.883,2.883,0,0,0,1.271-.747,2.749,2.749,0,0,0,.553-.828,2.985,2.985,0,0,0,.927-.559,3.16,3.16,0,0,0,1.037,1.02,3.347,3.347,0,0,0,.366.179,4.207,4.207,0,0,0,1.559.3,4.794,4.794,0,0,0,1.436-.227,2.843,2.843,0,0,0,.562-.248,3.176,3.176,0,0,0,1.086-1.057c.023-.037.031-.078.053-.115h8.6a3.065,3.065,0,0,0,1,1.058,3.325,3.325,0,0,0,.353.19,4.032,4.032,0,0,0,1.642.347,4.556,4.556,0,0,0,1.748-.362,3.023,3.023,0,0,0,1.5-1.376,3.078,3.078,0,0,0,.319-.953,2.761,2.761,0,0,0,.722.628,2.883,2.883,0,0,0,1.451.393,3.027,3.027,0,0,0,1.428-.362,16.19,16.19,0,0,0,1.681-1.072c.019.073.028.143.054.218a2.952,2.952,0,0,0,.993,1.365,3.027,3.027,0,0,0,.988.493v0c.06.018.1.035.151.052a2.68,2.68,0,0,0,2.746,1.615,7.6,7.6,0,0,0,1.748-.383,4.574,4.574,0,0,0,1.713-1.056,4.8,4.8,0,0,0,.842-1.107,3.759,3.759,0,0,0,.463-1.624l0-.126v-.705c.035.04.067.083.1.123l.031.035a14.267,14.267,0,0,0,2.186,1.974l.008.006a3.122,3.122,0,0,0,.678.367,2.912,2.912,0,0,0,1.048.2,2.873,2.873,0,0,0,1.523-.44,2.831,2.831,0,0,0,.578-.49,3.081,3.081,0,0,0,1.122-.285,2.923,2.923,0,0,0,.951-.715c.013-.014.021-.034.033-.049a2.842,2.842,0,0,0,.767.117,2.975,2.975,0,0,0,1.477-.4v1.62l0,.026a2.918,2.918,0,0,0,.218,1.108,2.958,2.958,0,0,0,.937,1.22,3.215,3.215,0,0,0,.886.479h0l.012,0,.015.006v0a4,4,0,0,0,1.337.234A4.142,4.142,0,0,0,121.5,73a2.158,2.158,0,0,0,.256-.135,3.436,3.436,0,0,0,1.007-.893,3.083,3.083,0,0,0,.439-.815,3.029,3.029,0,0,0,.175-1.012V66.391c.068,0,.132.02.2.02a3.4,3.4,0,0,0,.412-.049,2.885,2.885,0,0,0,.231.466,3.129,3.129,0,0,0,1.177,1.108,2.248,2.248,0,0,0,.375.168c.029.011.062.015.091.025-.011.123-.014.222-.014.283a3.021,3.021,0,0,0,.14.912,2.975,2.975,0,0,0,.838,1.3,3.009,3.009,0,0,0,.989.586l0,.007c.087.033.158.064.221.092a2.644,2.644,0,0,0,2.84,1.86,7.621,7.621,0,0,0,1.745-.382,4.6,4.6,0,0,0,1.715-1.056h0a4.843,4.843,0,0,0,.838-1.1A3.756,3.756,0,0,0,135.637,69l0-.126v-8.05a3.125,3.125,0,0,0,.615.229,2.98,2.98,0,0,0,.542.07v2.1a3.046,3.046,0,0,0,.4,1.524,3,3,0,0,0,.933.987V70.4a3.027,3.027,0,0,0,.393,1.5,2.984,2.984,0,0,0,1.267,1.193,2.757,2.757,0,0,0,.342.14,4.325,4.325,0,0,0,1.379.224,4.683,4.683,0,0,0,1.828-.381,2.637,2.637,0,0,0,.862-.584c.017-.017.034-.041.052-.06H148.5a3.334,3.334,0,0,0,.365.326,2.705,2.705,0,0,0,.724.393,4.24,4.24,0,0,0,1.426.247,4.613,4.613,0,0,0,1.736-.349,2.739,2.739,0,0,0,.517-.278,3.282,3.282,0,0,0,.893-.915,3.126,3.126,0,0,0,.482-1.369,2.178,2.178,0,0,0,.015-.28V67.295a3.106,3.106,0,0,0,.546-.854,3.2,3.2,0,0,0,.247-1.237c0-.081-.022-.161-.028-.242.046-.066.1-.13.136-.2a3.243,3.243,0,0,0,.428-1.436l0-.17v-2.2a2.821,2.821,0,0,0,.789-.433,2.529,2.529,0,0,0,.267-.271v9.913a3.087,3.087,0,0,0,1.536,2.69,3.209,3.209,0,0,0,.368.18,4.21,4.21,0,0,0,1.554.294,4.884,4.884,0,0,0,1.43-.224,2.524,2.524,0,0,0,.575-.254,3.23,3.23,0,0,0,.9-.836h10.128a3.047,3.047,0,0,0,.817.745,2.8,2.8,0,0,0,.316.167,4.025,4.025,0,0,0,1.648.351,4.556,4.556,0,0,0,1.748-.363,2.991,2.991,0,0,0,.353-.178,3.055,3.055,0,0,0,1.453-2.1h0a2.822,2.822,0,0,0,.466,1.352,2.851,2.851,0,0,0,.763.76,2.974,2.974,0,0,0,.943.417,3.52,3.52,0,0,0,.628.1,3.056,3.056,0,0,0,.358,0,15.656,15.656,0,0,0,6.056-1.642c.033,0,.055.011.088.011a3.061,3.061,0,0,0,1.716-.526,2.93,2.93,0,0,0,.364-.293,3.1,3.1,0,0,0,.314.093v0a11.535,11.535,0,0,1,3.6,1.569l-.016-.011a4.551,4.551,0,0,0,2.085.808l.122.011.2.006a3.341,3.341,0,0,0,1.536-.377,3.627,3.627,0,0,0,1.056-.842,2.527,2.527,0,0,0,.251-.34,3.573,3.573,0,0,0,.553-1.886,3.39,3.39,0,0,0-.108-.852,2.791,2.791,0,0,0-.115-.345,3.991,3.991,0,0,0-.778-1.2,4.866,4.866,0,0,0-.587-.517V62.663a3.1,3.1,0,0,0,.612-.794,2.962,2.962,0,0,0,.138-.363c.04-.02.078-.033.117-.056.064-.035.121-.084.182-.125a2.423,2.423,0,0,0-.058.525,2.673,2.673,0,0,0,.054.546,2.1,2.1,0,0,0,.071.273c.076.244.135.442.169.578l.011,0a2.683,2.683,0,0,0,.307.762,2.806,2.806,0,0,0,1.291,1.118,2.9,2.9,0,0,0,1.579.191v0l1.052-.142h4.312V70.34a2.907,2.907,0,0,0,.218,1.109,2.964,2.964,0,0,0,.937,1.22,3.2,3.2,0,0,0,.883.476v0l.014,0,.016.007v0a3.986,3.986,0,0,0,1.338.235A4.143,4.143,0,0,0,214.351,73a2.574,2.574,0,0,0,.275-.145,3.481,3.481,0,0,0,.991-.886,3.1,3.1,0,0,0,.436-.81,2.981,2.981,0,0,0,.176-1.016V65.175h5.87l.173-.006a3.339,3.339,0,0,0,1.347-.368,3.075,3.075,0,0,0,1.322-1.347l.089-.2a2.832,2.832,0,0,0,.1-.322,3.069,3.069,0,0,0,.862.574c.026.011.053.013.078.024v6.617a3.049,3.049,0,0,0,.4,1.512,2.978,2.978,0,0,0,1.278,1.191,2.5,2.5,0,0,0,.322.132,4.339,4.339,0,0,0,1.386.227,4.682,4.682,0,0,0,1.829-.383,2.752,2.752,0,0,0,.856-.578,3.552,3.552,0,0,0,.441-.565h4.787a2.788,2.788,0,0,0,.23.373,3.192,3.192,0,0,0,1.333,1.04,2.694,2.694,0,0,0,.316.112,4.2,4.2,0,0,0,1.14.159,4.363,4.363,0,0,0,1.7-.353l.224-.107a3.289,3.289,0,0,0,1.133-1,3.185,3.185,0,0,0,.565-1.56l.009-.226V65.163a3.042,3.042,0,0,0,.972-2.254c0-.032-.007-.06-.008-.092a3.3,3.3,0,0,0,.635-.545A3.415,3.415,0,0,0,246.4,60.7V60.7a4.084,4.084,0,0,0,.083-.818,5.462,5.462,0,0,0-.793-2.687m-134.5-1.085h0Zm.445,2.472,0,0Zm21-8.73h0v0Zm-8.144.371a.186.186,0,0,0-.022-.007v0Zm-12.1,8.42a2.757,2.757,0,0,0,.24.515,2.813,2.813,0,0,0,1.281,1.123,2.853,2.853,0,0,0,1.127.233,10.845,10.845,0,0,1-2.173,3.617l0,0c-.037.038-.076.085-.114.128a7.923,7.923,0,0,1-2.494-1.791,11.942,11.942,0,0,1-1.2-1.492,16.89,16.89,0,0,0,1.819-1.6,3.056,3.056,0,0,0,1.069-.4,2.933,2.933,0,0,0,.445-.336M83.908,65.085H83.58V63.339h.328ZM76.133,56h.432v1.411h-.432Zm0,7.342h.431v1.746h-.431Zm7.775-5.931H83.58V56h.328Zm-59.342.821v3.12a7.253,7.253,0,0,0-.558-.623A10.937,10.937,0,0,0,22.625,59.6c.3-.277.588-.564.861-.869a3.025,3.025,0,0,0,.981-.426c.036-.024.064-.055.1-.08m-13.711,14.1.01-.008h0ZM91.316,65.76a2.683,2.683,0,0,0-.393.39V58.6c.018.069.034.146.052.213v0a2.73,2.73,0,0,0,1.836,1.93,2.812,2.812,0,0,0,.847.128,3.119,3.119,0,0,0,.61-.062c.037-.007.06-.016.093-.023l.791-.116a11.329,11.329,0,0,1-.663,1.4,13.314,13.314,0,0,1-3.174,3.684M110.867,69.3h0l.021.01Zm22.656.421.006-.013.006-.008ZM154.1,66.036l-.017.007.009,0,.008,0m26.052-4.068a3.218,3.218,0,0,0,.951.611,3.128,3.128,0,0,0,1.16.234v4.664c0,.016,0,.034,0,.05-.039.007-.072.009-.113.018a3.042,3.042,0,0,0-.749.277,2.911,2.911,0,0,0-1.155,1.112,2.862,2.862,0,0,0-.313.818V61.737c.069.077.134.154.216.231m22.667-5.052c-.011-.046-.007-.093-.019-.138l-.017.005a2.758,2.758,0,0,0-.393-.874l.008-.012c0-.007.011-.013.015-.02l0,0a2.982,2.982,0,0,0,.24-.43,2.551,2.551,0,0,0,.444.248,2.863,2.863,0,0,0,1.135.23,3.1,3.1,0,0,0,.34-.019,10.2,10.2,0,0,1-1.77,2.38,2.845,2.845,0,0,0,.107-.731,3.04,3.04,0,0,0-.06-.433l.025,0c-.009-.062-.039-.134-.053-.2m-2.71-4.9h0l0-.007ZM189.582,71.379Zm43.5-6.038H237v.412h-3.915Zm3.065-9.847c.08-.148.15-.305.227-.455.045-.017.089-.031.136-.05a2.853,2.853,0,0,0,.05.456c-.138.015-.274.035-.413.049" fill="#fff"/>
      <path id="Path_750" data-name="Path 750" d="M85.605,49.877h0l.006-.005Z" fill="#fff"/>
      <path id="Path_751" data-name="Path 751" d="M104.55,71.812l0,0,0,0Z" fill="#fff"/>
      <path id="Path_752" data-name="Path 752" d="M66.793,25.341A25.218,25.218,0,0,1,44.277,35.373S29.971,35.2,22.447,19.812c0,0-4.445-10.089-12.312-9.12,0,0-8.093,1.767-7.41,11.514,0,0,1.312,10.088,16.417,16.53,0,0,33.971,12.882,47.651-13.4" fill="#2484b5"/>
      <path id="Path_753" data-name="Path 753" d="M41.257,40.332S26.38,38.28,18.685,21.237c0,0-4.731-8.607-10.716-5.3,0,0-5.6,3.484-1.881,10.324,0,0,10.2,17.664,35.169,14.073" fill="#57b7d8"/>
      <path id="Path_754" data-name="Path 754" d="M32.82,39.819A33.727,33.727,0,0,1,19.2,25.17s-4.561-8.55-11-4.389c0,0-4.331,3.192,1.768,9.405A40.145,40.145,0,0,0,32.82,39.819" fill="#74bfdc"/>
      <path id="Path_755" data-name="Path 755" d="M39.318,29.958S29.572,27.735,27.462,6.474A3.51,3.51,0,0,0,23.7,3.225s-3.649.513-2.851,6.783c0,0,1.938,14.649,18.468,19.95" fill="#2484b5"/>
      <path id="Path_756" data-name="Path 756" d="M51.459,33.663S44.333,19.356,59.1,11.832c0,0,5.415-3.077,5.586-5.871,0,0,5.87,21.147-10.546,25.935a20.542,20.542,0,0,1,3.585-11.343s-6.206,3.762-6.263,13.11" fill="#367537"/>
      <path id="Path_757" data-name="Path 757" d="M53.5,10.87a3.655,3.655,0,1,1-3.655-3.655A3.655,3.655,0,0,1,53.5,10.87" fill="#89b535"/>
      <path id="Path_758" data-name="Path 758" d="M46.187,18.33a40.461,40.461,0,0,1,.473,8.781,30.855,30.855,0,0,0,.3-4.506c-.047-6.051-2.342-9.5-4.4-11.383a16.39,16.39,0,0,1,3.633,7.108" fill="#89b535"/>
      <path id="Path_759" data-name="Path 759" d="M45.866,23.865a19.554,19.554,0,0,0-4.087-13.293,9.092,9.092,0,0,0-2.46-1.39c-6.7-2.993-8.692-6.5-8.692-6.5-2.651,20.6,10.259,24.88,10.259,24.88a29.675,29.675,0,0,1,4.65,2.134c.53-8.546-9.908-13.491-9.908-13.491a17.572,17.572,0,0,1,9.856,8.153,14.766,14.766,0,0,0-1.976-5.806,1.615,1.615,0,0,1-1.477-.106,4.4,4.4,0,0,1-.913-.959,1.451,1.451,0,0,1,1.463,0,3.814,3.814,0,0,1,.971.976l.081-.045c-.062-.085-.122-.169-.174-.255-.164-.272-.324-.545-.46-.828a1.6,1.6,0,0,1-.04-1.089,1.268,1.268,0,0,1,.148-.364c.182.186.375.366.542.56a1.836,1.836,0,0,1,.546,1.129,1.909,1.909,0,0,1-.312,1.049,19.8,19.8,0,0,1,1.983,5.247M39.828,12.717l.018-.112.018-.046a3.118,3.118,0,0,1,1.314,1.148,1.711,1.711,0,0,1-.04,1.452c-.256-.251-.5-.472-.715-.707a2.924,2.924,0,0,1-.438-.561,1.831,1.831,0,0,1-.157-1.174M37.9,11.273c1.456.589,1.886,1.271,1.559,2.407a5.034,5.034,0,0,1-.42-.308,10.454,10.454,0,0,1-.874-.83,1.494,1.494,0,0,1-.266-.886,3.269,3.269,0,0,1,0-.383m-.256,1.152a5.085,5.085,0,0,1-1.426-.975,1.814,1.814,0,0,1-.392-1.229c1.438.392,2.01.969,1.818,2.2m-1.972-1.058C34.6,10.975,33.646,10.5,33.661,9.4c1.367.13,2.283,1.019,2.016,1.966m-4.366-1.122c-.062-.055-.12-.114-.18-.171a1.965,1.965,0,0,1,2.777.734,1.928,1.928,0,0,1-1.363.17,2.941,2.941,0,0,1-1.234-.733m2.515,1.911c-.311-.105-.6-.238-.9-.354-.1-.038-.1-.085-.007-.151.2-.143.393-.3.608-.422a.94.94,0,0,1,.561-.114,4,4,0,0,1,1.487.487,1.694,1.694,0,0,1-1.747.554m2.109.913a4.943,4.943,0,0,1-1.144-.583,1.553,1.553,0,0,1,1.587-.436,5.074,5.074,0,0,1,1.155.6,5.943,5.943,0,0,1-.577.326,1.406,1.406,0,0,1-1.021.093m1.824,1.089a4.721,4.721,0,0,1-1.11-.729,1.528,1.528,0,0,1,1.467-.318,4.547,4.547,0,0,1,1.192.758,1.754,1.754,0,0,1-1.549.289m1.568,1.225c-.328-.242-.615-.515-.919-.774l-.018-.043a1.56,1.56,0,0,1,1.379-.191,4.154,4.154,0,0,1,1.159.9l.016.042a1.6,1.6,0,0,1-1.617.066m1.4,1.489a4.075,4.075,0,0,1-.842-.959,1.256,1.256,0,0,1,1.355,0c.421.284.475.636.9,1.017v.024a1.387,1.387,0,0,1-1.408-.078m1.911-.075c-.154-.18-.3-.333-.425-.5-.186-.255-.371-.512-.531-.78a1.61,1.61,0,0,1-.135-1.08,1.256,1.256,0,0,1,.115-.377c.2.167.4.328.589.505a1.813,1.813,0,0,1,.642,1.072,1.954,1.954,0,0,1-.255,1.159" fill="#89b535"/>
      <path id="Path_760" data-name="Path 760" d="M30.267,24.528S22.076,18.5,21.648,9.01c0,0,.054-3.152,2.95-2.694a3.3,3.3,0,0,1,1.71,3.378s.48,9.49,3.959,14.663" fill="#57b7d8"/>
      <path id="Path_761" data-name="Path 761" d="M28.146,22.092a19.8,19.8,0,0,1-5.771-11.466S22.289,8.5,23.786,8.5c0,0,1.5.341,1.2,2.372,0,0-1.155,7.026,3.164,11.222" fill="#74bfdc"/>
      <path id="Path_762" data-name="Path 762" d="M95.972,28.28a1.855,1.855,0,0,1,.247,1.033,1.148,1.148,0,0,1-.5.908,1.041,1.041,0,0,1-1.528-.536q-1.449-3.058-5.787-5.662V38.832q-.042.951,0,2.233a1.284,1.284,0,0,1-.288.827,1.42,1.42,0,0,1-.828.207,1.487,1.487,0,0,1-.744-.166,9.221,9.221,0,0,1-.247-3.059V21.142q-3.68,9.01-8.8,13.638-.5.332-.745.042c-.164-.249-.11-.51.166-.785Q82,28.7,85.267,18.291H78.119a.588.588,0,0,1-.414-.207,5.2,5.2,0,0,1-.371-.7c-.084-.138-.042-.207.123-.207H86.3V9.32c-2.453.468-5.958.913-8.217,1.079-.5.027-.758-.1-.785-.373q-.041-.495.7-.537c5.812-.964,12.091-2.978,15.066-4.879.358-.3.619-.4.786-.29q1.115.786,2.024,1.4.7.456.455.951-.249.454-.992.331c-.5-.249-3.3.659-6.933,1.817v8.351h3.266a1.835,1.835,0,0,0,1.032-.33q.867-.826,1.778-1.612a.476.476,0,0,1,.7-.041q1.115.826,2.273,1.859c.386.331.523.635.413.909a.511.511,0,0,1-.537.331H88.408v4.7q5.826,1.944,7.564,5.29M101.1,8.665q1.407.249,2.893.414c.744.138,1.1.412,1.074.827q-.039.578-1.32.991-.705.247-.7.744V31.518a4.077,4.077,0,0,1-.33,1.943,1.227,1.227,0,0,1-.827.164,1.04,1.04,0,0,1-.7-.247,4.227,4.227,0,0,1-.249-2.025V10.938a14.113,14.113,0,0,0-.207-1.984q-.123-.33.372-.289m7.515,33.392a1.614,1.614,0,0,0-.786-1.116,15.105,15.105,0,0,0-3.512-1.116q-.579-.084-.538-.62c.055-.3.29-.44.7-.413q4.917.453,5.951.04.455-.246.5-1.28V7.26a30.865,30.865,0,0,0-.166-3.141c-.056-.384.056-.564.33-.537q1.365.249,2.894.5.867.124.867.868,0,.661-1.239.95-.579.125-.579,1.116v31.16a3.7,3.7,0,0,1-1.073,2.893,6.689,6.689,0,0,1-2.6,1.322c-.468.055-.716-.056-.743-.33" fill="#2484b5"/>
      <path id="Path_763" data-name="Path 763" d="M200.715,31.013q.593-.635,1.4-1.4a.363.363,0,0,1,.465,0,12.65,12.65,0,0,1,2.033,1.863c.254.254.337.48.254.678s-.312.31-.679.338H165.493a.608.608,0,0,1-.424-.212,5.856,5.856,0,0,1-.382-.72c-.083-.14-.041-.211.128-.211h3.9L167.778,8.66c-.112-.733-.226-1.368-.338-1.9q-.042-.381.38-.211.975.423,1.779.846a19.123,19.123,0,0,0,3.937-3.176q.381-.633.678-.465,1.354.466,2.412.847c.535.2.763.48.678.847a.686.686,0,0,1-.762.55,2.947,2.947,0,0,0-1.524.3,28.842,28.842,0,0,1-5.123,2.2l.254,6.1h1.778a9.946,9.946,0,0,0,1.989-1.525c.143-.139.268-.153.382-.041a11.512,11.512,0,0,1,1.82,1.694,1.058,1.058,0,0,1,.254.718q-.084.255-.636.3h-5.544l.254,6.308h1.313a10.027,10.027,0,0,0,1.989-1.524c.139-.141.268-.155.38-.042a11.564,11.564,0,0,1,1.821,1.693,1.07,1.07,0,0,1,.254.72c-.056.17-.268.268-.635.3h-5.079l.38,8.171h6.73V8.025A22.606,22.606,0,0,0,177.43,5.4c-.026-.282.086-.366.339-.253A22,22,0,0,1,180.1,6.458h8.509q.507-.04,1.82-1.311a.512.512,0,0,1,.594-.043A6.311,6.311,0,0,1,193.1,6.967a.722.722,0,0,1-.212,1.144,5.1,5.1,0,0,0-.889.422c-.255.113-.381.48-.381,1.1V31.352h6.6l.212-8.34h-4.318a.6.6,0,0,1-.423-.212,5.7,5.7,0,0,1-.381-.719c-.085-.142-.043-.212.126-.212h5.039l.211-6.816h-4.572a.6.6,0,0,1-.423-.212,5.717,5.717,0,0,1-.381-.72c-.085-.14-.043-.211.126-.211h5.292l.213-6.478c.027-.338-.142-.507-.509-.507h-4.488l-.211-1.143h4.529a11.926,11.926,0,0,0,1.61-1.313.383.383,0,0,1,.508-.042,9.069,9.069,0,0,1,2.328,1.736q.846,1.184-1.1,1.735c-.339.057-.524.311-.55.762l-.762,22.692a2.744,2.744,0,0,1,.423-.339m-22.988,2.45q1.227.574,2.159,1.054.761.385.593,1.008a.929.929,0,0,1-.973.527,1.739,1.739,0,0,0-1.609.575,26.737,26.737,0,0,1-11.982,5.9c-.338.064-.522-.047-.549-.335a.49.49,0,0,1,.338-.624A27.252,27.252,0,0,0,176.966,33.9c.253-.416.507-.559.761-.432m2.032-2.111h9.695V7.855c0-.169-.185-.253-.55-.253h-9.145Zm4.107-19.982q.083-.086,1.989-1.736a.365.365,0,0,1,.466,0,12.6,12.6,0,0,1,2.032,1.863q.381.381.254.677c-.083.2-.311.311-.676.339H181.58a.612.612,0,0,1-.424-.212,5.78,5.78,0,0,1-.381-.72c-.084-.14-.042-.211.128-.211Zm-.509,13.563v1.693a1.031,1.031,0,0,1-.254.762.834.834,0,0,1-.677.212,2.037,2.037,0,0,1-.846-.212.989.989,0,0,1-.212-.719V17.948a18,18,0,0,0-.169-2.371q-.084-.423.34-.254c.562.227,1.2.508,1.9.846h1.482a6.681,6.681,0,0,0,1.439-.889.426.426,0,0,1,.508-.084,11.633,11.633,0,0,1,1.779,1.228.743.743,0,0,1,.042,1.058,2.548,2.548,0,0,1-.72.423,2.382,2.382,0,0,0-.17,1.228v5.461q-.041,2.076-.337,2.329a1.367,1.367,0,0,1-.8.211,1.207,1.207,0,0,1-.678-.169,1.793,1.793,0,0,1-.168-.973V24.933Zm0-.355h2.457V18.524c0-.281-.17-.423-.509-.423h-1.948Zm14.669,12.744q4.758,2.049,5.4,4.144a1.285,1.285,0,0,1-.392,1.183,1.3,1.3,0,0,1-1.03.364,2.019,2.019,0,0,1-1.03-.545,27.767,27.767,0,0,0-10.939-6.649c-.36-.151-.524-.365-.491-.637a.544.544,0,0,1,.736-.227,42.09,42.09,0,0,1,7.751,2.367" fill="#367537"/>
      <path id="Path_764" data-name="Path 764" d="M136.254,14.481h-12.91l.207.71h8.855l.1.13c.242,2.059-.854,6.8-.854,6.8l.107-.308c-1.4,6.214-3.463,12.22-9.144,17.7-.662.45-.9.89-.7,1.305.109.242.316.281.619.108A42.442,42.442,0,0,0,129.54,33.9c5.3-7.185,6.665-17.291,6.914-19.419Z" fill="#57b7d8"/>
      <path id="Path_765" data-name="Path 765" d="M141.539,9.741V4.089c-.71-.114-1.467-.227-2.177-.341-.315-.027-.321.152-.258.537a27.931,27.931,0,0,1,.308,3.141V44.438c0-.143.523-.307.818-.5a3.094,3.094,0,0,0,1.309-2.892V9.741Z" fill="#57b7d8"/>
      <path id="Path_766" data-name="Path 766" d="M144.094,12.355h4.276s.8,22.021,11.5,28.384c0,0,.293.96-1.124.548,0,0-11.584-7.661-14.648-28.932" fill="#57b7d8"/>
      <path id="Path_767" data-name="Path 767" d="M157.62,12.371a2.432,2.432,0,1,1-2.432-2.433,2.432,2.432,0,0,1,2.432,2.433" fill="#57b7d8"/>
      <path id="Path_768" data-name="Path 768" d="M238.767,8.1h-5.761V5.045c-.709-.08-1.322-.173-2.057-.285-.309-.024-.743.037-.713.184a3.017,3.017,0,0,1-.066,1.138V8.1h-7.09V5.025a11.88,11.88,0,0,0-1.712-.265c-.307-.024-.563.037-.531.184a10.481,10.481,0,0,1,.115,1.138V8.1h-8.508V18.465c0,.319-.062.539.123.661a1.446,1.446,0,0,0,.888.221,1.4,1.4,0,0,0,.836-.184.958.958,0,0,0,.279-.734v-.4h24.818v.879c0,.367.32.564.813.587.617.021,1.313-.027,1.313-.144V8.1Zm-17.815,9.218H214.57V13.773h6.382Zm0-4.254H214.57V9.519h6.382Zm9.218,4.254h-7.09V13.773h7.09Zm0-4.254h-7.09V9.519h7.09Zm9.218,4.254h-6.382V13.773h6.382Zm0-4.254h-6.382V9.519h6.36c.307,0,.022-.2.022.017Z" fill="#89b535"/>
      <path id="Path_769" data-name="Path 769" d="M235.2,24.409H216.183c-.164,0-.206.235-.122.373a6.367,6.367,0,0,0,.371.77.567.567,0,0,0,.413.275h25.379V24.409Z" fill="#89b535"/>
      <path id="Path_770" data-name="Path 770" d="M231.346,28.663H212.335c-.165,0-.206.14-.123.278a6.926,6.926,0,0,0,.372.818c.082.11.218.322.412.322h30.646V28.663Z" fill="#89b535"/>
      <path id="Path_771" data-name="Path 771" d="M227.925,20.863H210.839c-.166,0-.207.084-.124.221a7.556,7.556,0,0,0,.373.847c.082.111.218.351.411.351h32.144V20.863Z" fill="#89b535"/>
      <path id="Path_772" data-name="Path 772" d="M223.754,33.173s-.908.4.535.671c0,0,10.966,1.2,13.8,6.872H221.662V30.081h-3.545V42.135h24.444c-.819-1.419-6-9.351-18.807-8.962" fill="#89b535"/>
      <path id="Path_773" data-name="Path 773" d="M242.348,33.482a2.16,2.16,0,1,1-2.159-2.159,2.159,2.159,0,0,1,2.159,2.159" fill="#89b535"/>
      <path id="Path_774" data-name="Path 774" d="M212.955,21.572s-3.85,3.459-2.512,9.821c0,0,1.5,8.092-1.925,10.6,0,0-.267.517,1.122-.018,0,0,5.56-2.451,3.315-12.235,0,0-1.551-6.045,1.336-8.172Z" fill="#89b535"/>
      <path id="Path_775" data-name="Path 775" d="M239.681,68.436V62.657h-8.845l-.438.063v5.716ZM230.4,70.042a.531.531,0,0,1-.167.313,1.8,1.8,0,0,1-1.314.083.3.3,0,0,1-.167-.291V61.574l-.022-.251.147-.042q.626.335,1.46.793l.5.02h8.573l1.023-1a.261.261,0,0,1,.417,0l1,1.023q1.063,1.084-.377,1.459a.18.18,0,0,0-.143.188v6.362a.5.5,0,0,1-.293.417,1.571,1.571,0,0,1-1.064.084.415.415,0,0,1-.292-.4V69H230.4Zm-2.3-10.075c-.207.028-.319.167-.334.416-.012.417-.172.648-.48.69-.3.027-.506-.167-.6-.585-.154-.695-.312-1.4-.48-2.127-.041-.153.063-.223.313-.208q1.584.165,3.358.228c.3-.445.592-.9.856-1.355a31.526,31.526,0,0,0,2.232-6.092c.027-.111.09-.145.189-.1q.957.313,1.9.584.832.249.749.751c-.067.307-.4.459-1,.459a.332.332,0,0,0-.333.229,17.6,17.6,0,0,1-3.776,5.528,43.987,43.987,0,0,0,10.325-.938,6.593,6.593,0,0,0-1.772-2.462.206.206,0,0,1-.042-.25.2.2,0,0,1,.271-.063,10.09,10.09,0,0,1,2.545,2.065q2,2.233,1.753,3.422a.7.7,0,0,1-.481.541.793.793,0,0,1-.708-.083,10.019,10.019,0,0,1-1.357-2.691A63.384,63.384,0,0,1,228.1,59.967m-23.38,2.524-1.231.166c-.138.028-.216,0-.23-.082-.054-.21-.125-.446-.208-.71-.013-.069.062-.1.231-.083l1.438.146H211.9V53.063h-6.341l-1.231.166c-.139.028-.216,0-.23-.083-.054-.209-.125-.446-.208-.71-.014-.069.064-.1.23-.082l1.439.144h12.286l1.272-1.438a.2.2,0,0,1,.314,0l1.794,1.335q.312.229.228.437a.477.477,0,0,1-.436.231h-7.469v8.865h5.383l1.272-1.44a.2.2,0,0,1,.313,0l1.793,1.335c.209.153.286.3.23.438a.477.477,0,0,1-.438.23h-8.553v7.656c0,.152-.105.291-.311.416a1.356,1.356,0,0,1-1.065.063c-.195-.069-.285-.173-.272-.312V62.491Zm11.118-7.844c.085-.11.175-.139.272-.084a8.794,8.794,0,0,1,2.357,1.691q1.9,1.92,1.774,3.045a.815.815,0,0,1-.46.584.883.883,0,0,1-.228.042q-.711-.021-1.4-1.585A9.654,9.654,0,0,0,215.9,54.9a.2.2,0,0,1-.063-.25m-7.8-.355c.027-.1.09-.124.188-.083.53.2,1.029.362,1.5.5.444.167.626.383.542.646s-.319.348-.709.292a.247.247,0,0,0-.252.1,13.841,13.841,0,0,1-4.712,5.132c-.14.083-.251.076-.335-.021s-.041-.216.084-.314a12.762,12.762,0,0,0,3.568-5.673,2.01,2.01,0,0,0,.124-.585M191.939,68a.285.285,0,0,1,.313-.271,13.671,13.671,0,0,1,3.859.542q1.815.583,2.149,1.4a.81.81,0,0,1-.126.648.73.73,0,0,1-.6.292,1.914,1.914,0,0,1-.854-.355,14.227,14.227,0,0,0-4.423-1.941c-.208-.041-.313-.145-.313-.312m-3.984-.668c.39.223.819.459,1.291.71.321.18.42.4.294.667s-.341.306-.647.167a.606.606,0,0,0-.376.041,12.818,12.818,0,0,1-5.654,1.67c-.206-.014-.311-.07-.311-.168-.014-.18.1-.27.354-.27a9.493,9.493,0,0,0,4.758-2.651c.137-.123.233-.179.291-.166m7.093-5.486V60.155H187.2l-.6.083v1.606Zm0,.563H186.6V64.1h8.45Zm0,2.253H186.6v1.607h8.45Zm-8.45,2.713a.538.538,0,0,1-.166.312,1.809,1.809,0,0,1-1.315.083.3.3,0,0,1-.166-.291V59.07l-.021-.251.145-.041q.626.333,1.462.793l.666.019h7.573l1.022-1c.154-.141.291-.141.417,0l1,1.021q1.062,1.086-.376,1.461a.178.178,0,0,0-.147.187v5.946a.5.5,0,0,1-.291.417,1.566,1.566,0,0,1-1.065.082.413.413,0,0,1-.29-.4V66.83H186.6Zm.585-8.3c-.168.028-.259-.021-.272-.146,0-.167.07-.257.209-.271a7.464,7.464,0,0,0,5.111-4.674c.041-.11.111-.145.208-.1q.646.313,1.4.626.626.271.5.71c-.1.181-.341.263-.731.249a9.926,9.926,0,0,0,6.342,1.9c.168,0,.257.048.271.145s-.027.188-.167.271a1.824,1.824,0,0,0-1.064,1.252c-.042.1-.131.139-.27.125a9.545,9.545,0,0,1-5.7-3.233,8.643,8.643,0,0,1-5.84,3.15m.292-3.109c-.126.042-.216.022-.272-.062a.2.2,0,0,1,.085-.271,6.848,6.848,0,0,0,2.544-4.819c.028-.166.1-.229.23-.188q.855.252,1.668.5c.527.141.764.355.709.647s-.355.445-.9.46c-.1.013-.318.3-.666.854h6.53l1.022-.979a.214.214,0,0,1,.312.02l1.273,1.377q.437.5.166.9c-.166.251-.466.307-.9.167a.626.626,0,0,0-.6.147q-.981.73-1.753,1.231a.321.321,0,0,1-.333.02c-.084-.069-.084-.173,0-.313a12.41,12.41,0,0,0,1.021-2h-6.654l-.541.063a7.456,7.456,0,0,1-2.942,2.252m-1,.146c.125-.069.216-.062.272.021s.056.175-.043.272a10.6,10.6,0,0,1-2.106,1.669q-.918.563-1.69.959c-.112.056-.159.174-.145.354a.616.616,0,0,1-.312.731c-.308.082-.552-.091-.731-.523q-.375-.75-.711-1.626c-.054-.166-.014-.256.125-.271.417-.069.837-.154,1.252-.25a11.958,11.958,0,0,0,4.089-1.336m-3.525-2.94h1.19l1.229-1.378a.206.206,0,0,1,.314,0l1.668,1.274q.313.228.229.437a.475.475,0,0,1-.438.23h-4.192l-1.23.166c-.139.028-.217,0-.23-.082-.055-.21-.126-.446-.209-.71-.014-.069.064-.1.229-.083Zm-7.339,15.6V52.645H161.673l-.291.041V68.77Zm-14.227,1.4a.459.459,0,0,1-.234.375,1.769,1.769,0,0,1-1.2,0,.407.407,0,0,1-.211-.375v-19q0-.292.249-.1l1.565,1.021h14l.98-.98a.183.183,0,0,1,.313.02l1.085,1.086a.842.842,0,0,1,.271.6c-.027.236-.279.417-.751.542a.313.313,0,0,0-.187.355V70.042a.429.429,0,0,1-.209.4,1.561,1.561,0,0,1-1.273.041.342.342,0,0,1-.165-.312v-.834H161.382Zm10.8-3.567V61.073h-6.842l-.521.062V66.6Zm-7.363,1.105a.549.549,0,0,1-.168.314,1.8,1.8,0,0,1-1.314.083.3.3,0,0,1-.167-.292V60.072l-.021-.251.146-.042c.376.194.8.425,1.274.689l.771.041h6.778l.753-.751c.1-.125.214-.125.354,0l.979.834a.738.738,0,0,1,.313.585c-.014.222-.215.383-.6.479-.069.028-.1.112-.084.25v5.841a.407.407,0,0,1-.228.4,1.8,1.8,0,0,1-1.168.1.341.341,0,0,1-.251-.354v-.73h-7.363Zm4.943-2.857V62.825h-1.919l-.439.063v1.96Zm-2.358.9a.363.363,0,0,1-.146.271,1.45,1.45,0,0,1-1.167.084.244.244,0,0,1-.168-.251V61.74a1.65,1.65,0,0,1-.019-.23l.124-.02a13.924,13.924,0,0,1,1.418.751l.4.02H169.7l.668-.646a.226.226,0,0,1,.333,0l.876.75a.621.621,0,0,1,.293.523c-.015.208-.195.354-.542.437-.07.015-.1.092-.083.23V65.7a.386.386,0,0,1-.21.354,1.516,1.516,0,0,1-1.043.083.268.268,0,0,1-.229-.313v-.416h-2.358Zm3.442-9.157V54.647h-4.172l-.521.063v1.878Zm-3.087.563h-1.606v.292a.539.539,0,0,1-.167.313,1.815,1.815,0,0,1-1.313.083.3.3,0,0,1-.168-.292v-3.9l-.021-.251.146-.041c.376.2.8.424,1.274.688l.77.042h4.11l.751-.751q.146-.187.354,0l.982.835a.736.736,0,0,1,.313.583c-.014.224-.216.383-.6.481-.07.027-.1.111-.084.25V57.4a.411.411,0,0,1-.229.4,1.819,1.819,0,0,1-1.17.1.342.342,0,0,1-.25-.355v-.4h-1.438v1.522H172.4l.9-1.272c.1-.112.193-.1.292.02l1.062,1.273c.139.14.189.258.147.355a.3.3,0,0,1-.292.187H163.676l-1.356.167c-.112.028-.174.015-.188-.04-.07-.252-.131-.5-.188-.752-.014-.07.064-.1.23-.084l1.5.146h4.088Zm-15.62.062h-.022a13.634,13.634,0,0,1-5.111-4.84l-.082.085a19.152,19.152,0,0,1-3.359,3.148h.063l1.438.147h1.108l1.187-1.293a.184.184,0,0,1,.293,0l1.564,1.188c.208.154.285.3.231.44a.483.483,0,0,1-.439.227h-3.944l-1.231.169c-.138.027-.215,0-.228-.084-.057-.209-.127-.439-.208-.689a15.793,15.793,0,0,1-2.651,1.5,2.812,2.812,0,0,0-.353.168q.312.144.688.354l.479.021H151.6Zm-6.572,4.881V58.318h-4.005l-.437.063v3.713Zm6.092-3.776H147.22v3.776h4.444Zm-1.335,8.366V64.66H142.82l-.356.062v1.962Zm0,.563h-7.864v1.941h7.864Zm-7.865,3.046a.528.528,0,0,1-.167.313,1.81,1.81,0,0,1-1.313.083.3.3,0,0,1-.167-.291V63.575l-.022-.082a1.725,1.725,0,0,1-1.146.02.3.3,0,0,1-.169-.293V57.735a22.178,22.178,0,0,1-2.459.709c-.181.014-.279-.027-.293-.126-.015-.125.048-.208.187-.249q6.3-2.337,8.825-7.28a.213.213,0,0,1,.23-.126c.5.208,1.007.4,1.522.563q.708.273.583.772a.442.442,0,0,1-.25.313,13.259,13.259,0,0,0,8.511,4.131c.139,0,.216.048.23.146s-.049.194-.23.25a1.984,1.984,0,0,0-1.146,1.438c-.014.168-.134.209-.355.126-.32-.126-.633-.236-.939-.333q.335.624-.5.834c-.069.028-.1.111-.082.25v4.005a.413.413,0,0,1-.231.4,1.8,1.8,0,0,1-1.167.1.34.34,0,0,1-.25-.355v-.647H141.13v.459l-.1.23q.6.292,1.376.73l.418.022h7.155l.875-.878c.111-.11.231-.1.355.042l1.231,1.232a1,1,0,0,1,.334.71c0,.291-.208.5-.626.624a.21.21,0,0,0-.167.23v4.151a.485.485,0,0,1-.23.354,1.718,1.718,0,0,1-1.253.063.35.35,0,0,1-.165-.271V69.75h-7.865Zm6.8-11.7.146-.064c.529.208,1.028.418,1.5.626.43.167.618.384.562.646s-.355.348-.855.292a.249.249,0,0,0-.271.189,4.749,4.749,0,0,1-1.815,1.439c-.153.1-.258.1-.313.021a.215.215,0,0,1,.021-.293,5.289,5.289,0,0,0,.709-1.961q.168-.437.313-.9m-6.925.228a.2.2,0,0,1,.27-.041,3.951,3.951,0,0,1,1.065.75,1.966,1.966,0,0,1,.812,1.816.751.751,0,0,1-.5.5.837.837,0,0,1-.668-.125,1.241,1.241,0,0,1-.4-.564,7.494,7.494,0,0,0-.545-2.085.208.208,0,0,1-.04-.251M131.286,51.08c0-.069.051-.1.147-.083q.834.147,1.607.229c.569.1.855.3.855.6-.015.334-.258.551-.731.646-.153.029-.222.113-.208.251V68.874a1.522,1.522,0,0,1-.521.959,3.109,3.109,0,0,1-1.858.669q0-1.107-1.815-1.795a.3.3,0,0,1-.229-.334c.042-.139.154-.187.334-.145a15.436,15.436,0,0,0,1.9.312c.237-.014.382-.07.438-.167a.653.653,0,0,0,.083-.333V51.08Zm-4.839,1.356c0-.082.049-.118.145-.1q.741.19,1.629.335.812.146.812.667c0,.376-.249.613-.75.709-.139.028-.2.1-.187.231v10.8a.449.449,0,0,1-.251.459,1.542,1.542,0,0,1-1.168.042.4.4,0,0,1-.23-.374V52.436ZM120.69,70.147c0,.152-.1.291-.313.416a1.35,1.35,0,0,1-1.063.063c-.2-.069-.286-.173-.272-.312v-8.97a11.359,11.359,0,0,1-3.985,5.006c-.139.083-.251.077-.332-.021s-.064-.209.062-.333q2.628-2.712,3.9-8.344h-2.317l-1.229.166c-.139.028-.216,0-.23-.083q-.083-.315-.21-.709c-.012-.069.063-.1.231-.084l1.438.147h2.671V53.646c-1.14.153-2.3.258-3.482.313-.224,0-.342-.069-.357-.208,0-.168.1-.258.315-.272a20.02,20.02,0,0,0,7.05-2.5,1.253,1.253,0,0,1,.416-.082q.583.48,1.232,1c.291.238.354.489.186.752-.152.222-.457.244-.917.063a24.922,24.922,0,0,0-2.795.646v3.735h.71l1.272-1.441a.2.2,0,0,1,.312,0l1.795,1.336c.206.153.284.3.229.437a.477.477,0,0,1-.438.231h-3.88v1.564a9.537,9.537,0,0,1,1.648,1.043q2.065,1.628,2,2.753a.718.718,0,0,1-.395.626.841.841,0,0,1-.71.021,1.38,1.38,0,0,1-.522-.5,20.365,20.365,0,0,0-2.023-3.129Zm-11.971-15.1c.042-.1.112-.118.209-.063q.708.417,1.356.793.606.356.418.73c-.126.25-.375.306-.752.166a.25.25,0,0,0-.249.042,13.108,13.108,0,0,1-4.278,3.36q2.546,5.132,6.489,6.758a.278.278,0,0,1,.187.355c-.028.111-.145.166-.354.166a1.7,1.7,0,0,0-1.67.814c-.083.125-.195.139-.333.041a11.617,11.617,0,0,1-1.773-1.606,22.085,22.085,0,0,1-4.8-9.825V68.957a1.511,1.511,0,0,1-.522.96,3.086,3.086,0,0,1-1.855.668q-.127-1.044-1.816-1.564a.276.276,0,0,1-.25-.314c.028-.125.133-.181.313-.167a16.8,16.8,0,0,0,1.877.167.606.606,0,0,0,.5-.209.581.581,0,0,0,.084-.375V51c0-.07.048-.1.147-.084q.833.147,1.6.23c.57.1.857.3.857.606q-.024.5-.731.646c-.154.028-.223.111-.209.25v.376a29.646,29.646,0,0,0,2.023,6.55,9.531,9.531,0,0,0,3.525-4.527m-13.7,2.377h3.4l.919-.9a.182.182,0,0,1,.291,0l1.044.918a.509.509,0,0,1,.231.563c-.073.237-.3.362-.69.375l-.145.126q-1.5,6.758-6.885,9.721c-.14.055-.237.034-.293-.063a.256.256,0,0,1,.084-.292,16.027,16.027,0,0,0,3.838-4.444,12.759,12.759,0,0,0,1.711-5.444h-3.5l-1.148.168c-.181.055-.278.055-.292,0-.068-.265-.133-.523-.187-.772,0-.07.069-.1.209-.084ZM80.9,60.091h5.695V53.313H80.9Zm-1.649-6.778H73.908l-.459.062v6.716h5.8Zm0,7.342h-5.8v7.113h5.8Zm7.344,0H80.9v7.113h5.695ZM73.449,69.5a.459.459,0,0,1-.233.375,1.772,1.772,0,0,1-1.2,0A.411.411,0,0,1,71.8,69.5V51.915c0-.195.085-.23.251-.1.377.236.842.544,1.4.918l.459.021H86.529l.98-.981a.182.182,0,0,1,.311.021L88.9,52.874a.849.849,0,0,1,.272.6c-.028.237-.279.417-.75.543a.311.311,0,0,0-.188.354v15a.427.427,0,0,1-.21.395,1.564,1.564,0,0,1-1.272.043.347.347,0,0,1-.166-.313V68.333H73.449Zm-8.592-4.965a.19.19,0,0,1,.251-.021c.319.307.689.633,1.1.981.364.333.46.625.294.876-.195.222-.488.208-.876-.042a.254.254,0,0,0-.292-.021,9.907,9.907,0,0,1-3.171,1.105,12.452,12.452,0,0,0,5.445,1.4c.18,0,.278.07.292.21,0,.11-.084.187-.251.228a1.955,1.955,0,0,0-1.376,1.336c-.042.125-.146.167-.313.125a9.989,9.989,0,0,1-4.819-2.337,11.523,11.523,0,0,1-1.107-1.231,6.281,6.281,0,0,1-1.5-2.9h-2.5v3.693q1.338-.292,2.8-.73.313-.125.438.082a.3.3,0,0,1-.126.376,18.142,18.142,0,0,1-4.338,1.69q-2.023.542-2,.793c.042.389-.071.611-.334.667a.549.549,0,0,1-.626-.4q-.354-.876-.687-1.752c-.057-.167,0-.249.166-.249q1.606-.043,3.066-.188V64.243H51.6q-.462,4.86-2.969,6.509-.271.125-.4-.022c-.084-.152,0-.341.25-.563q1.543-2.545,1.544-8.073V58.985c.014-.193.1-.241.275-.144.465.277,1.012.612,1.645,1h12.14l1.335-1.356a.262.262,0,0,1,.417,0l1.754,1.294a.457.457,0,0,1,.209.416c-.043.127-.17.2-.377.21H63l1.647,1.251q.312.231.229.438a.477.477,0,0,1-.438.23h-9.7l-1.232.167c-.137.028-.215,0-.228-.084-.056-.208-.126-.445-.209-.709-.013-.069.063-.1.23-.083l1.439.145h6.7l1.21-1.355H51.694v1.689c0,.543-.02,1.072-.063,1.586H64.126L65.5,62.261a.283.283,0,0,1,.438,0l1.878,1.356a.449.449,0,0,1,.209.417c-.043.126-.168.2-.376.209H59.245a8.536,8.536,0,0,0,2.212,2.712,12.4,12.4,0,0,0,3.4-2.42M55.2,53.229H53.384l-.522.062v1.961H55.2Zm0,2.587H52.863v2.023H55.2Zm5.589-.564h2.355V53.229H60.789Zm-1.667-2.023H56.868v2.023h2.254Zm1.667,4.61h2.355V55.816H60.789Zm-1.667-2.023H56.868v2.023h2.254Zm3.754-3.15,1.022-1a.26.26,0,0,1,.417,0l1,1.021q1.063,1.084-.375,1.46a.181.181,0,0,0-.147.188v4.277a.5.5,0,0,1-.292.417,1.567,1.567,0,0,1-1.063.083.416.416,0,0,1-.294-.4V58.4H52.862v.292a.537.537,0,0,1-.166.314,1.8,1.8,0,0,1-1.315.082.3.3,0,0,1-.167-.292V52.144l-.019-.251.145-.04q.624.333,1.46.792l.584.021H55.2V50.83l.124-.1q.834.146,1.732.291c.541.1.813.3.813.605q-.02.586-.794.668c-.137.041-.208.112-.208.208v.168h2.255V50.83l.123-.1q.835.146,1.732.291.814.147.814.605-.021.586-.793.668c-.139.041-.209.112-.209.208v.168ZM38.7,61.844V59.821H33.613l-.6.083v1.94Zm4.257,6.926V63.6l-.023.062c-.152.236-.424.285-.813.146a.31.31,0,0,0-.292.02,15.648,15.648,0,0,1-2.044,1.044l.083.021q1.75,1.125,1.815,2a.774.774,0,0,1-.271.585.672.672,0,0,1-.669.124,1.628,1.628,0,0,1-.729-.542A18.217,18.217,0,0,0,36.6,64.222v3.672q0,.229-.312.416a1.351,1.351,0,0,1-1.065.063c-.194-.069-.285-.173-.27-.313v-4l-.042.061a10.6,10.6,0,0,1-5.133,3.025c-.152.043-.25.014-.29-.083s0-.167.125-.25a8.175,8.175,0,0,0,4.63-4.4h-1.23v.459a.541.541,0,0,1-.168.313,1.8,1.8,0,0,1-1.315.083.3.3,0,0,1-.167-.292V58.735l-.02-.25.146-.041c.419.223.9.487,1.46.792l.669.022H38.64l.751-.751c.1-.126.216-.126.354,0l.981.834a.734.734,0,0,1,.311.584c-.013.222-.215.383-.6.48-.07.028-.1.111-.084.25v2.086a.412.412,0,0,1-.229.4,1.8,1.8,0,0,1-1.166.1.34.34,0,0,1-.252-.354v-.481H36.6v.981l.125.041a15.943,15.943,0,0,1,2.338,1.023,8.617,8.617,0,0,0,1.979-2.169.15.15,0,0,1,.23-.064c.347.209.759.438,1.231.689a.9.9,0,0,1,.461.48V52.562H29.44l-.542.062V68.77ZM28.9,70.251a.462.462,0,0,1-.232.375,1.79,1.79,0,0,1-1.206,0,.411.411,0,0,1-.211-.375V51.08c0-.2.084-.229.251-.105q.585.377,1.544,1l.4.022H42.894l.982-.981a.184.184,0,0,1,.313.022l1.083,1.084a.845.845,0,0,1,.272.6c-.028.236-.278.418-.752.542a.314.314,0,0,0-.187.355v16.5a.429.429,0,0,1-.208.4,1.567,1.567,0,0,1-1.272.042.344.344,0,0,1-.166-.312v-.918H28.9ZM35.01,55.315H32.277l-1.232.167q-.208.042-.228-.084c-.056-.208-.125-.445-.21-.709-.014-.07.064-.1.232-.083l1.438.145H35.01V53.082l.125-.1q.834.147,1.731.292c.543.1.813.3.813.6q-.021.583-.792.668c-.139.042-.209.112-.209.208h1.294l1.189-1.293a.182.182,0,0,1,.291,0l1.566,1.189q.312.231.229.438a.477.477,0,0,1-.438.23H36.678v1.856h2.38l1.187-1.293a.182.182,0,0,1,.292,0L42.1,57.067c.209.154.285.3.23.438a.475.475,0,0,1-.438.23H31.109l-1.231.167c-.139.028-.216,0-.23-.084-.056-.209-.125-.445-.208-.71-.014-.068.063-.1.229-.082l1.44.145h3.9ZM18.826,67.5a1.656,1.656,0,0,0,.21.92c.318.333,1.062.418,2.23.249q.751-.228,1.273-2.106c.054-.195.153-.286.292-.272.167.014.249.126.249.335q.024,1.731.356,1.857a.662.662,0,0,1,.438.687.965.965,0,0,1-.647.876,8.63,8.63,0,0,1-2.962.334q-2.149-.043-2.609-.626a2.852,2.852,0,0,1-.479-1.794V51.435a3.828,3.828,0,0,1-.02-.4c.014-.112.069-.16.167-.146.557.11,1.112.208,1.669.291.429.07.646.279.646.626-.013.321-.217.508-.6.563a.208.208,0,0,0-.21.231V58.34a10.568,10.568,0,0,0,2.211-3.777c.042-.1.112-.116.209-.062.487.238.959.466,1.419.689.4.194.555.425.457.688s-.341.334-.729.21a.278.278,0,0,0-.25.061,10.457,10.457,0,0,1-3.317,2.941v1.5a7.572,7.572,0,0,1,2,1.023q2.13,1.419,2.128,2.545a.775.775,0,0,1-.334.647.848.848,0,0,1-.709.062c-.418-.126-.626-.313-.626-.563a20.015,20.015,0,0,0-2.461-3.088ZM14.09,53.772V50.851l.125-.084q.834.105,1.731.189.732.083.731.583t-.751.646c-.139.028-.2.1-.187.23v1.357q-.02,7.884-.794,10.784-1.438,4.881-5.277,5.9c-.167.043-.278.014-.332-.083a.289.289,0,0,1,.143-.356A9,9,0,0,0,11.3,68.56a12.424,12.424,0,0,0,2.565-6.591q-1.188,1.045-2.211,1.92a.556.556,0,0,0-.1.417q.1.542-.291.624c-.266.043-.459-.09-.583-.395q-.316-.771-.648-1.543-.1-.271.145-.292a17.943,17.943,0,0,0,3.8-1.649q.125-1.9.125-7.279m-2.8,1.543a.178.178,0,0,1,.271,0A5.083,5.083,0,0,1,12.777,56.5a2.631,2.631,0,0,1,.687,2.294.811.811,0,0,1-.583.46.869.869,0,0,1-.689-.23,1.256,1.256,0,0,1-.334-.647,6.885,6.885,0,0,0-.584-2.794.274.274,0,0,1,.021-.272M8.208,70.084a.446.446,0,0,1-.251.458,1.539,1.539,0,0,1-1.167.043.4.4,0,0,1-.23-.376V60.738a11.53,11.53,0,0,1-2.315,4.674c-.154.124-.278.146-.376.062s-.1-.251.02-.459a24.233,24.233,0,0,0,2.525-8.531H5.829l-1.355.166c-.112.028-.174.014-.187-.042-.07-.25-.132-.5-.188-.751-.014-.069.061-.1.23-.083l1.5.146H6.56V50.934c0-.083.048-.118.144-.1.494.126,1.036.236,1.63.334q.813.147.812.667,0,.564-.751.71c-.138.028-.2.1-.187.229v3.15h.335l.9-1.273c.1-.11.193-.1.29.021L10.8,55.941c.138.138.188.257.145.355a.3.3,0,0,1-.292.188H8.208v1.355a6,6,0,0,1,1.252.792q1.479,1.21,1.419,2.15a.831.831,0,0,1-.4.584.909.909,0,0,1-.688-.021,1.5,1.5,0,0,1-.48-.5q-.958-2-1.106-2.19Z" fill="#4d4d4d"/>
    </g>
  </g>
</svg>
